<svg width="20" height="20" viewBox="0 0 20 20" fill="none" xmlns="http://www.w3.org/2000/svg">
<path d="M17.0349 19.9818C17.4004 19.96 17.7452 19.8051 18.0042 19.5464L18.6034 18.9471L13.2929 13.6366L12.8009 14.1281C12.6567 14.2752 12.4747 14.3798 12.275 14.4304C12.0753 14.481 11.8655 14.4757 11.6686 14.4151C10.2608 13.9298 8.99111 13.1117 7.96734 12.0304C6.88665 11.0063 6.06923 9.73645 5.58457 8.32873C5.52404 8.13197 5.51882 7.92235 5.5695 7.72282C5.62018 7.5233 5.7248 7.34157 5.87189 7.19755L6.36344 6.70561L1.05289 1.39661L0.452105 1.99932C0.194093 2.25819 0.0397643 2.60256 0.018245 2.96742C-0.0971432 4.78171 0.187481 9.55569 5.31687 14.6851C10.4463 19.8145 15.2203 20.0968 17.0349 19.9818Z" fill="#2E3591"/>
<path d="M1.59668 0.85238L6.90722 6.16331L7.43301 5.63753C7.64305 5.4271 7.76103 5.14193 7.76103 4.84462C7.76103 4.5473 7.64305 4.26213 7.43301 4.05171L3.70828 0.32698C3.49738 0.11754 3.21221 0 2.91499 0C2.61776 0 2.33259 0.11754 2.1217 0.32698L1.59668 0.85238Z" fill="#2E3591"/>
<path d="M19.6723 17.8779C19.8816 17.667 19.999 17.3819 19.999 17.0848C19.999 16.7877 19.8816 16.5026 19.6723 16.2917L15.9475 12.567C15.7371 12.3569 15.4519 12.239 15.1546 12.239C14.8573 12.239 14.5721 12.3569 14.3617 12.567L13.8359 13.0928L19.1472 18.4033L19.6723 17.8779Z" fill="#2E3591"/>
</svg>
