<svg width="23" height="23" viewBox="0 0 23 23" fill="none" xmlns="http://www.w3.org/2000/svg">
<path d="M17.7158 22.3811C18.0958 22.3585 18.4544 22.1974 18.7238 21.9283L19.347 21.3052L13.8242 15.7824L13.3126 16.2936C13.1625 16.4465 12.9733 16.5553 12.7656 16.6079C12.5579 16.6605 12.3398 16.655 12.135 16.592C10.671 16.0872 9.35047 15.2365 8.28578 14.112C7.1619 13.047 6.31181 11.7263 5.80778 10.2624C5.74482 10.0577 5.7394 9.83973 5.79211 9.63223C5.84481 9.42473 5.95361 9.23574 6.10658 9.08596L6.61778 8.57436L1.09497 3.05316L0.470174 3.67996C0.201851 3.94919 0.0413536 4.30732 0.0189742 4.68676C-0.101026 6.57356 0.194974 11.5384 5.52938 16.8728C10.8638 22.2071 15.8286 22.5007 17.7158 22.3811Z" fill="#2E3591"/>
<path d="M1.66052 2.48716L7.18332 8.01036L7.73012 7.46356C7.94856 7.24472 8.07125 6.94816 8.07125 6.63896C8.07125 6.32976 7.94856 6.03319 7.73012 5.81436L3.85652 1.94076C3.63719 1.72295 3.34063 1.60071 3.03152 1.60071C2.72242 1.60071 2.42585 1.72295 2.20652 1.94076L1.66052 2.48716Z" fill="#2E3591"/>
<path d="M20.459 20.1931C20.6767 19.9738 20.7988 19.6773 20.7988 19.3683C20.7988 19.0593 20.6767 18.7628 20.459 18.5435L16.5854 14.6699C16.3666 14.4515 16.07 14.3288 15.7608 14.3288C15.4516 14.3288 15.155 14.4515 14.9362 14.6699L14.3894 15.2167L19.913 20.7395L20.459 20.1931Z" fill="#2E3591"/>
<path d="M16.8001 -6.10352e-05C15.3154 0.00152719 13.8919 0.592036 12.8421 1.6419C11.7922 2.69176 11.2017 4.11522 11.2001 5.59994C11.1953 6.83654 11.6053 8.03904 12.3645 9.01514C12.4208 9.08782 12.4503 9.17766 12.4481 9.26954L12.4001 11.3415C12.4004 11.3589 12.4048 11.3759 12.4129 11.3912C12.421 11.4065 12.4326 11.4197 12.4467 11.4297C12.4608 11.4398 12.4771 11.4464 12.4942 11.449C12.5114 11.4516 12.5289 11.4501 12.5453 11.4447L14.3745 10.7727C14.4687 10.7381 14.5725 10.7401 14.6653 10.7783C15.3421 11.0586 16.0677 11.2019 16.8001 11.1999C18.2853 11.1999 19.7097 10.6099 20.7599 9.55974C21.8101 8.50954 22.4001 7.08515 22.4001 5.59994C22.4001 4.11473 21.8101 2.69035 20.7599 1.64014C19.7097 0.589938 18.2853 -6.1013e-05 16.8001 -6.10352e-05ZM20.0465 8.85234C19.8188 9.0707 19.5156 9.19262 19.2001 9.19262C18.8847 9.19262 18.5814 9.0707 18.3537 8.85234L16.8001 7.29554L15.2481 8.85034C15.0181 9.06477 14.7154 9.184 14.4009 9.184C14.0865 9.184 13.7837 9.06477 13.5537 8.85034C13.3319 8.62359 13.2079 8.31891 13.2083 8.00173C13.2087 7.68456 13.3334 7.38017 13.5557 7.15394L15.1077 5.59994L13.5541 4.04474C13.442 3.93361 13.3529 3.8014 13.292 3.65572C13.2311 3.51004 13.1996 3.35376 13.1994 3.19586C13.1991 3.03797 13.23 2.88158 13.2904 2.73569C13.3508 2.5898 13.4394 2.45728 13.5511 2.34575C13.6629 2.23422 13.7956 2.14589 13.9416 2.08582C14.0877 2.02576 14.2441 1.99516 14.402 1.99577C14.5599 1.99638 14.7161 2.0282 14.8617 2.08939C15.0072 2.15059 15.1392 2.23995 15.2501 2.35234L16.8001 3.90554L18.3529 2.35074C18.5804 2.13069 18.8845 2.00768 19.2009 2.00768C19.5174 2.00768 19.8215 2.13069 20.0489 2.35074C20.2597 2.58278 20.3761 2.88518 20.3755 3.19864C20.3748 3.51209 20.2571 3.814 20.0453 4.04514L18.4945 5.59994L20.0473 7.15434C20.2689 7.38145 20.3928 7.68622 20.3927 8.0035C20.3925 8.32079 20.2683 8.62544 20.0465 8.85234Z" fill="#2E3591"/>
</svg>
