<svg width="9" height="9" viewBox="0 0 9 9" fill="none" xmlns="http://www.w3.org/2000/svg">
<path d="M8.48159 7.76398H8.23715V3.86827C8.23715 3.76742 8.17298 3.68034 8.0813 3.65284L5.94556 2.93787V8.22229H8.48159C8.60994 8.22229 8.71076 8.12145 8.71076 7.99314C8.71074 7.86479 8.60992 7.76398 8.48159 7.76398ZM7.77883 7.76398H7.32051V6.84734H6.86219V7.76398H6.40387V6.61817C6.40387 6.48983 6.50469 6.38901 6.63304 6.38901H7.54968C7.67803 6.38901 7.77884 6.48983 7.77884 6.61817V7.76398H7.77883ZM7.54968 5.93071H6.63304C6.50469 5.93071 6.40387 5.82986 6.40387 5.70154C6.40387 5.57319 6.50469 5.47237 6.63304 5.47237H7.54968C7.67803 5.47237 7.77884 5.57319 7.77884 5.70154C7.77883 5.82986 7.67801 5.93071 7.54968 5.93071ZM7.54968 5.01407H6.63304C6.50469 5.01407 6.40387 4.91322 6.40387 4.7849C6.40387 4.65655 6.50469 4.55574 6.63304 4.55574H7.54968C7.67803 4.55574 7.77884 4.65655 7.77884 4.7849C7.77883 4.91322 7.67801 5.01407 7.54968 5.01407Z" fill="#2E3591"/>
<path d="M5.34072 1.78896L1.67418 0.414008C1.51836 0.359008 1.36253 0.473591 1.36253 0.629439V7.76393H1.11808C0.989734 7.76393 0.888916 7.86475 0.888916 7.9931C0.888916 8.12141 0.989734 8.22225 1.11808 8.22225H5.48739C5.48739 6.73413 5.48739 5.7459 5.48739 2.00439C5.48739 1.90813 5.4278 1.82104 5.34072 1.78896ZM3.19578 7.76393H2.27915V6.61813C2.27915 6.48978 2.37997 6.38896 2.50831 6.38896H3.1958V7.76393H3.19578ZM2.96663 5.93066H2.50831C2.37997 5.93066 2.27915 5.82981 2.27915 5.70149C2.27915 5.57314 2.37997 5.47232 2.50831 5.47232H2.96663C3.09498 5.47232 3.1958 5.57314 3.1958 5.70149C3.19578 5.82981 3.09498 5.93066 2.96663 5.93066ZM2.96663 5.01402H2.50831C2.37997 5.01402 2.27915 4.91317 2.27915 4.78486C2.27915 4.65651 2.37997 4.55569 2.50831 4.55569H2.96663C3.09498 4.55569 3.1958 4.65651 3.1958 4.78486C3.19578 4.91317 3.09498 5.01402 2.96663 5.01402ZM2.96663 4.09739H2.50831C2.37997 4.09739 2.27915 3.99654 2.27915 3.86822C2.27915 3.73987 2.37997 3.63905 2.50831 3.63905H2.96663C3.09498 3.63905 3.1958 3.73987 3.1958 3.86822C3.19578 3.99654 3.09498 4.09739 2.96663 4.09739ZM2.96663 3.18075H2.50831C2.37997 3.18075 2.27915 3.0799 2.27915 2.95158C2.27915 2.82324 2.37997 2.72242 2.50831 2.72242H2.96663C3.09498 2.72242 3.1958 2.82324 3.1958 2.95158C3.19578 3.0799 3.09498 3.18075 2.96663 3.18075ZM4.57075 7.76393H3.65412V6.38898H4.3416C4.46995 6.38898 4.57077 6.48979 4.57077 6.61814V7.76393H4.57075ZM4.34159 5.93066H3.88327C3.75492 5.93066 3.6541 5.82981 3.6541 5.70149C3.6541 5.57314 3.75492 5.47232 3.88327 5.47232H4.34159C4.46993 5.47232 4.57075 5.57314 4.57075 5.70149C4.57075 5.82981 4.46993 5.93066 4.34159 5.93066ZM4.34159 5.01402H3.88327C3.75492 5.01402 3.6541 4.91317 3.6541 4.78486C3.6541 4.65651 3.75492 4.55569 3.88327 4.55569H4.34159C4.46993 4.55569 4.57075 4.65651 4.57075 4.78486C4.57075 4.91317 4.46993 5.01402 4.34159 5.01402ZM4.34159 4.09739H3.88327C3.75492 4.09739 3.6541 3.99654 3.6541 3.86822C3.6541 3.73987 3.75492 3.63905 3.88327 3.63905H4.34159C4.46993 3.63905 4.57075 3.73987 4.57075 3.86822C4.57075 3.99654 4.46993 4.09739 4.34159 4.09739ZM4.34159 3.18075H3.88327C3.75492 3.18075 3.6541 3.0799 3.6541 2.95158C3.6541 2.82324 3.75492 2.72242 3.88327 2.72242H4.34159C4.46993 2.72242 4.57075 2.82324 4.57075 2.95158C4.57075 3.0799 4.46993 3.18075 4.34159 3.18075Z" fill="#2E3591"/>
</svg>
