<?xml version="1.0" encoding="utf-8"?>
<!-- Generator: Adobe Illustrator 25.2.0, SVG Export Plug-In . SVG Version: 6.00 Build 0)  -->
<svg version="1.1" id="Layer_1" xmlns="http://www.w3.org/2000/svg" xmlns:xlink="http://www.w3.org/1999/xlink" x="0px" y="0px"
	 viewBox="0 0 23 22" style="enable-background:new 0 0 23 22;" xml:space="preserve">
<style type="text/css">
	.st0{fill:#FFFFFF;}
</style>
<g>
	<path class="st0" d="M23,14c0,0.1,0,0.2,0,0.4c0,2.6-2.1,4.6-4.6,4.6c-0.5,0-1-0.1-1.4-0.2c0.1-0.2,0.2-0.4,0.3-0.7
		c0.1-0.2,0.2-0.5,0.2-0.7c0.3,0.1,0.6,0.1,0.9,0.1c1.7,0,3.1-1.4,3.1-3.1v-0.2l0-0.1l0-0.2V10h-3.9V9.5c0-0.1,0-0.2,0-0.2
		c-0.1-0.4-0.5-0.8-1-0.8H22c0.6,0,1,0.5,1,1L23,14z"/>
</g>
<g>
	<path class="st0" d="M19.3,2c-1.4,0-2.5,1.1-2.5,2.5c0,1.4,1.1,2.5,2.5,2.5c1.4,0,2.5-1.1,2.5-2.5C21.8,3.1,20.7,2,19.3,2z
		 M19.3,5.5c-0.6,0-1-0.5-1-1c0-0.6,0.5-1,1-1s1,0.5,1,1C20.3,5.1,19.9,5.5,19.3,5.5z"/>
</g>
<g>
	<path class="st0" d="M5.9,18c0.1,0.2,0.2,0.5,0.3,0.7c-0.5,0.2-1,0.3-1.5,0.3C2.1,19,0,16.9,0,14.3c0-0.1,0-0.2,0-0.3v0l0-0.1V9.6
		c0-0.6,0.5-1,1-1h5.5c-0.5,0-0.9,0.3-1,0.8c0,0.1,0,0.2,0,0.2V10h-4v3.7l0,0.2l0,0.1c0,0.1,0,0.2,0,0.2c0,1.7,1.4,3.1,3.2,3.1
		c0.3,0,0.7-0.1,1-0.2C5.7,17.6,5.8,17.8,5.9,18z"/>
</g>
<g>
	<path class="st0" d="M3.6,2C2.2,2,1.1,3.1,1.1,4.5C1.1,5.9,2.2,7,3.6,7C5,7,6.1,5.9,6.1,4.5C6.1,3.1,5,2,3.6,2z M3.6,5.5
		c-0.5,0-1-0.4-1-1c0-0.6,0.5-1,1-1c0.6,0,1,0.5,1,1C4.6,5.1,4.2,5.5,3.6,5.5z"/>
</g>
<g>
	<path class="st0" d="M17.5,9.3c-0.1-0.4-0.5-0.8-1-0.8h-10c-0.5,0-0.9,0.3-1,0.8c0,0.1,0,0.2,0,0.2V16c0,0.5,0,0.9,0.2,1.4
		c0.1,0.2,0.1,0.5,0.2,0.7c0.1,0.2,0.2,0.5,0.3,0.7c1,2,3,3.3,5.4,3.3c2.3,0,4.3-1.3,5.3-3.2c0.1-0.2,0.2-0.4,0.3-0.7
		c0.1-0.2,0.2-0.5,0.2-0.7c0.1-0.4,0.2-0.9,0.2-1.4V9.5C17.6,9.5,17.6,9.4,17.5,9.3z M16.1,16c0,0.2,0,0.4,0,0.5
		c0,0.3-0.1,0.6-0.2,0.8c-0.1,0.2-0.2,0.5-0.3,0.7c-0.8,1.5-2.3,2.4-4,2.4c-1.8,0-3.3-1-4-2.5c-0.1-0.2-0.2-0.5-0.3-0.7
		C7.1,17,7,16.7,7,16.4c0-0.1,0-0.3,0-0.4V10h9.1V16z"/>
</g>
<g>
	<g>
		<path class="st0" d="M11.5,0C9.6,0,8,1.6,8,3.5S9.6,7,11.5,7C13.5,7,15,5.5,15,3.5S13.5,0,11.5,0z M11.5,5.5c-1.1,0-2-0.9-2-2
			c0-1.1,0.9-2,2-2c1.1,0,2,0.9,2,2C13.5,4.6,12.7,5.5,11.5,5.5z"/>
	</g>
</g>
<g>
	<path class="st0" d="M11.5,0C9.6,0,8,1.6,8,3.5S9.6,7,11.5,7C13.5,7,15,5.5,15,3.5S13.5,0,11.5,0z M11.5,5.5c-1.1,0-2-0.9-2-2
		c0-1.1,0.9-2,2-2c1.1,0,2,0.9,2,2C13.5,4.6,12.7,5.5,11.5,5.5z"/>
</g>
</svg>
