<svg width="23" height="22" viewBox="0 0 23 22" fill="none" xmlns="http://www.w3.org/2000/svg">
<path d="M14.4319 14.0423L14.4382 13.9557L14.4246 13.8699C14.4225 13.8569 14.4214 13.8431 14.4214 13.8286V9.5543C14.4214 9.41307 14.5359 9.29858 14.6771 9.29858H21.9685C22.1097 9.29858 22.2242 9.41307 22.2242 9.5543V13.8286C22.2242 13.8431 22.2231 13.8569 22.221 13.8699L22.2074 13.9557L22.2137 14.0423C22.2207 14.1376 22.2242 14.234 22.2242 14.3314C22.2242 16.4861 20.4775 18.2328 18.3228 18.2328C16.1681 18.2328 14.4214 16.4861 14.4214 14.3314C14.4214 14.234 14.4249 14.1376 14.4319 14.0423Z" fill="white" stroke="#2E3591" stroke-width="1.5"/>
<path d="M21.0925 4.52575C21.0925 5.50014 20.3026 6.29003 19.3282 6.29003C18.3539 6.29003 17.564 5.50014 17.564 4.52575C17.564 3.55137 18.3539 2.76147 19.3282 2.76147C20.3026 2.76147 21.0925 3.55137 21.0925 4.52575Z" fill="white" stroke="#2E3591" stroke-width="1.5"/>
<path d="M0.760518 14.0438L0.766844 13.9572L0.753217 13.8714C0.751146 13.8584 0.75 13.8446 0.75 13.83V9.55576C0.75 9.41453 0.864486 9.30005 1.00571 9.30005H8.29712C8.43834 9.30005 8.55283 9.41453 8.55283 9.55576V13.83C8.55283 13.8446 8.55168 13.8584 8.54961 13.8714L8.53599 13.9572L8.54231 14.0438C8.54928 14.1391 8.55283 14.2355 8.55283 14.3329C8.55283 16.4876 6.80611 18.2343 4.65142 18.2343C2.49672 18.2343 0.75 16.4876 0.75 14.3329C0.75 14.2355 0.753553 14.1391 0.760518 14.0438Z" fill="white" stroke="#2E3591" stroke-width="1.5"/>
<path d="M5.37865 4.52722C5.37865 5.5016 4.58876 6.2915 3.61438 6.2915C2.63999 6.2915 1.8501 5.5016 1.8501 4.52722C1.8501 3.55283 2.63999 2.76294 3.61438 2.76294C4.58876 2.76294 5.37865 3.55283 5.37865 4.52722Z" fill="white" stroke="#2E3591" stroke-width="1.5"/>
<path d="M6.25228 15.8089L6.25337 15.7712L6.25068 15.7336C6.25024 15.7273 6.25 15.7209 6.25 15.7143V9.5543C6.25 9.41307 6.36449 9.29858 6.50571 9.29858H16.5628C16.7041 9.29858 16.8185 9.41307 16.8185 9.5543V15.7143C16.8185 15.7169 16.8185 15.7194 16.8184 15.7219C16.8183 15.7259 16.8181 15.7297 16.8179 15.7336L16.8152 15.7712L16.8163 15.8089C16.8178 15.8609 16.8185 15.9132 16.8185 15.9657C16.8185 18.8841 14.4527 21.25 11.5343 21.25C8.61585 21.25 6.25 18.8841 6.25 15.9657C6.25 15.9132 6.25076 15.8609 6.25228 15.8089Z" fill="white" stroke="#2E3591" stroke-width="1.5"/>
<g filter="url(#filter0_i_1531_2286)">
<path d="M11.5342 7.03998C13.4782 7.03998 15.0541 5.46403 15.0541 3.51999C15.0541 1.57595 13.4782 0 11.5342 0C9.59011 0 8.01416 1.57595 8.01416 3.51999C8.01416 5.46403 9.59011 7.03998 11.5342 7.03998Z" fill="white"/>
</g>
<path d="M14.3041 3.51999C14.3041 5.04981 13.064 6.28998 11.5342 6.28998C10.0043 6.28998 8.76416 5.04981 8.76416 3.51999C8.76416 1.99017 10.0043 0.75 11.5342 0.75C13.064 0.75 14.3041 1.99017 14.3041 3.51999Z" stroke="#2E3591" stroke-width="1.5"/>
<defs>
<filter id="filter0_i_1531_2286" x="7.01416" y="-1" width="8.04004" height="8.04004" filterUnits="userSpaceOnUse" color-interpolation-filters="sRGB">
<feFlood flood-opacity="0" result="BackgroundImageFix"/>
<feBlend mode="normal" in="SourceGraphic" in2="BackgroundImageFix" result="shape"/>
<feColorMatrix in="SourceAlpha" type="matrix" values="0 0 0 0 0 0 0 0 0 0 0 0 0 0 0 0 0 0 127 0" result="hardAlpha"/>
<feOffset dx="-1" dy="-1"/>
<feGaussianBlur stdDeviation="0.5"/>
<feComposite in2="hardAlpha" operator="arithmetic" k2="-1" k3="1"/>
<feColorMatrix type="matrix" values="0 0 0 0 1 0 0 0 0 1 0 0 0 0 1 0 0 0 0.27 0"/>
<feBlend mode="normal" in2="shape" result="effect1_innerShadow_1531_2286"/>
</filter>
</defs>
</svg>
