<svg width="22" height="23" viewBox="0 0 22 23" fill="none" xmlns="http://www.w3.org/2000/svg">
<path d="M21.3156 18.5954H18.9689V4.3198C18.9689 4.02647 18.6756 3.73314 18.3822 3.73314H4.10667V1.38647C4.10667 0.99536 3.91111 0.799805 3.52 0.799805H0.586667C0.195556 0.799805 0 0.99536 0 1.38647C0 1.77758 0.195556 1.97314 0.586667 1.97314H2.93333V19.182C2.93333 19.4754 3.22667 19.7687 3.52 19.7687H5.28C5.18222 20.062 5.08444 20.3554 5.08444 20.6487C5.08444 21.822 6.06222 22.7998 7.23556 22.7998C8.40889 22.7998 9.28889 21.822 9.28889 20.6487C9.28889 20.3554 9.19111 20.062 9.09333 19.7687H12.7111C12.6133 20.062 12.5156 20.3554 12.5156 20.6487C12.5156 21.822 13.4933 22.7998 14.5689 22.7998C15.7422 22.7998 16.72 21.822 16.72 20.6487C16.72 20.3554 16.6222 20.062 16.5244 19.7687H21.3156C21.6089 19.7687 21.9022 19.4754 21.9022 19.182C21.9022 18.7909 21.7067 18.5954 21.3156 18.5954ZM7.23556 21.5287C6.74667 21.5287 6.35556 21.1376 6.35556 20.6487C6.35556 20.1598 6.74667 19.7687 7.23556 19.7687C7.72444 19.7687 8.11556 20.1598 8.11556 20.6487C8.11556 21.1376 7.72444 21.5287 7.23556 21.5287ZM10.3644 18.5954H4.10667V12.4354H10.2667V18.5954H10.3644ZM10.3644 11.1642H4.10667V4.90647H10.2667V11.1642H10.3644ZM14.6667 21.5287C14.1778 21.5287 13.7867 21.1376 13.7867 20.6487C13.7867 20.1598 14.1778 19.7687 14.6667 19.7687C15.1556 19.7687 15.5467 20.1598 15.5467 20.6487C15.5467 21.1376 15.1556 21.5287 14.6667 21.5287ZM17.7956 18.5954H11.6356V12.4354H17.7956V18.5954ZM17.7956 11.1642H11.6356V4.90647H17.7956V11.1642Z" fill="#2E3591"/>
<path d="M16.3287 14.2932C16.3287 14.5866 16.1332 14.7821 15.8398 14.7821H13.5909C13.2976 14.7821 13.1021 14.5866 13.1021 14.2932C13.1021 13.9999 13.2976 13.8043 13.5909 13.8043H15.8398C16.0354 13.7066 16.3287 13.9999 16.3287 14.2932Z" fill="#2E3591"/>
<path d="M8.89756 14.2932C8.89756 14.5866 8.70201 14.7821 8.40868 14.7821H6.15979C5.86645 14.7821 5.6709 14.5866 5.6709 14.2932C5.6709 13.9999 5.86645 13.8043 6.15979 13.8043H8.40868C8.60423 13.7066 8.89756 13.9999 8.89756 14.2932Z" fill="#2E3591"/>
<path d="M16.3287 6.86194C16.3287 7.15527 16.1332 7.35082 15.8398 7.35082H13.5909C13.2976 7.35082 13.1021 7.15527 13.1021 6.86194C13.1021 6.5686 13.2976 6.37305 13.5909 6.37305H15.8398C16.0354 6.37305 16.3287 6.5686 16.3287 6.86194Z" fill="#2E3591"/>
<path d="M8.89817 6.86194C8.89817 7.15527 8.70262 7.35082 8.40929 7.35082H6.1604C5.86706 7.35082 5.57373 7.15527 5.57373 6.86194C5.57373 6.5686 5.76929 6.37305 6.06262 6.37305H8.31151C8.60484 6.37305 8.89817 6.5686 8.89817 6.86194Z" fill="#2E3591"/>
</svg>
