<svg width="50" height="50" viewBox="0 0 50 50" fill="none" xmlns="http://www.w3.org/2000/svg">
<circle cx="25" cy="25" r="24.5" fill="white" stroke="#E5E5E5"/>
<path d="M23.3333 34.4005C23.687 34.4005 24.0261 34.253 24.2761 33.9904C24.5262 33.7279 24.6667 33.3718 24.6667 33.0005V24.6005C24.6667 24.2292 24.5262 23.8731 24.2761 23.6105C24.0261 23.348 23.687 23.2005 23.3333 23.2005C22.9797 23.2005 22.6406 23.348 22.3905 23.6105C22.1405 23.8731 22 24.2292 22 24.6005V33.0005C22 33.3718 22.1405 33.7279 22.3905 33.9904C22.6406 34.253 22.9797 34.4005 23.3333 34.4005ZM36.6667 17.6005H31.3333V16.2005C31.3333 15.0866 30.9119 14.0183 30.1618 13.2306C29.4116 12.443 28.3942 12.0005 27.3333 12.0005H24.6667C23.6058 12.0005 22.5884 12.443 21.8382 13.2306C21.0881 14.0183 20.6667 15.0866 20.6667 16.2005V17.6005H15.3333C14.9797 17.6005 14.6406 17.748 14.3905 18.0105C14.1405 18.2731 14 18.6292 14 19.0005C14 19.3718 14.1405 19.7279 14.3905 19.9904C14.6406 20.253 14.9797 20.4005 15.3333 20.4005H16.6667V35.8005C16.6667 36.9144 17.0881 37.9827 17.8382 38.7703C18.5884 39.558 19.6058 40.0005 20.6667 40.0005H31.3333C32.3942 40.0005 33.4116 39.558 34.1618 38.7703C34.9119 37.9827 35.3333 36.9144 35.3333 35.8005V20.4005H36.6667C37.0203 20.4005 37.3594 20.253 37.6095 19.9904C37.8595 19.7279 38 19.3718 38 19.0005C38 18.6292 37.8595 18.2731 37.6095 18.0105C37.3594 17.748 37.0203 17.6005 36.6667 17.6005ZM23.3333 16.2005C23.3333 15.8292 23.4738 15.4731 23.7239 15.2105C23.9739 14.948 24.313 14.8005 24.6667 14.8005H27.3333C27.687 14.8005 28.0261 14.948 28.2761 15.2105C28.5262 15.4731 28.6667 15.8292 28.6667 16.2005V17.6005H23.3333V16.2005ZM32.6667 35.8005C32.6667 36.1718 32.5262 36.5279 32.2761 36.7904C32.0261 37.053 31.687 37.2005 31.3333 37.2005H20.6667C20.313 37.2005 19.9739 37.053 19.7239 36.7904C19.4738 36.5279 19.3333 36.1718 19.3333 35.8005V20.4005H32.6667V35.8005ZM28.6667 34.4005C29.0203 34.4005 29.3594 34.253 29.6095 33.9904C29.8595 33.7279 30 33.3718 30 33.0005V24.6005C30 24.2292 29.8595 23.8731 29.6095 23.6105C29.3594 23.348 29.0203 23.2005 28.6667 23.2005C28.313 23.2005 27.9739 23.348 27.7239 23.6105C27.4738 23.8731 27.3333 24.2292 27.3333 24.6005V33.0005C27.3333 33.3718 27.4738 33.7279 27.7239 33.9904C27.9739 34.253 28.313 34.4005 28.6667 34.4005Z" fill="#2E3591"/>
</svg>
