<svg width="24" height="28" viewBox="0 0 24 28" fill="none" xmlns="http://www.w3.org/2000/svg">
<path d="M9.33333 22.4005C9.68696 22.4005 10.0261 22.253 10.2761 21.9904C10.5262 21.7279 10.6667 21.3718 10.6667 21.0005V12.6005C10.6667 12.2292 10.5262 11.8731 10.2761 11.6105C10.0261 11.348 9.68696 11.2005 9.33333 11.2005C8.97971 11.2005 8.64057 11.348 8.39052 11.6105C8.14048 11.8731 8 12.2292 8 12.6005V21.0005C8 21.3718 8.14048 21.7279 8.39052 21.9904C8.64057 22.253 8.97971 22.4005 9.33333 22.4005ZM22.6667 5.60049H17.3333V4.20049C17.3333 3.08658 16.9119 2.01829 16.1618 1.23064C15.4116 0.442987 14.3942 0.000488281 13.3333 0.000488281H10.6667C9.6058 0.000488281 8.58838 0.442987 7.83824 1.23064C7.08809 2.01829 6.66667 3.08658 6.66667 4.20049V5.60049H1.33333C0.979711 5.60049 0.640573 5.74799 0.390524 6.01054C0.140476 6.27309 0 6.62918 0 7.00049C0 7.37179 0.140476 7.72789 0.390524 7.99044C0.640573 8.25299 0.979711 8.40049 1.33333 8.40049H2.66667V23.8005C2.66667 24.9144 3.08809 25.9827 3.83824 26.7703C4.58839 27.558 5.6058 28.0005 6.66667 28.0005H17.3333C18.3942 28.0005 19.4116 27.558 20.1618 26.7703C20.9119 25.9827 21.3333 24.9144 21.3333 23.8005V8.40049H22.6667C23.0203 8.40049 23.3594 8.25299 23.6095 7.99044C23.8595 7.72789 24 7.37179 24 7.00049C24 6.62918 23.8595 6.27309 23.6095 6.01054C23.3594 5.74799 23.0203 5.60049 22.6667 5.60049ZM9.33333 4.20049C9.33333 3.82918 9.47381 3.47309 9.72386 3.21054C9.97391 2.94799 10.313 2.80049 10.6667 2.80049H13.3333C13.687 2.80049 14.0261 2.94799 14.2761 3.21054C14.5262 3.47309 14.6667 3.82918 14.6667 4.20049V5.60049H9.33333V4.20049ZM18.6667 23.8005C18.6667 24.1718 18.5262 24.5279 18.2761 24.7904C18.0261 25.053 17.687 25.2005 17.3333 25.2005H6.66667C6.31305 25.2005 5.97391 25.053 5.72386 24.7904C5.47381 24.5279 5.33333 24.1718 5.33333 23.8005V8.40049H18.6667V23.8005ZM14.6667 22.4005C15.0203 22.4005 15.3594 22.253 15.6095 21.9904C15.8595 21.7279 16 21.3718 16 21.0005V12.6005C16 12.2292 15.8595 11.8731 15.6095 11.6105C15.3594 11.348 15.0203 11.2005 14.6667 11.2005C14.313 11.2005 13.9739 11.348 13.7239 11.6105C13.4738 11.8731 13.3333 12.2292 13.3333 12.6005V21.0005C13.3333 21.3718 13.4738 21.7279 13.7239 21.9904C13.9739 22.253 14.313 22.4005 14.6667 22.4005Z" fill="#2E3591"/>
</svg>
