<svg width="25" height="25" viewBox="0 0 25 25" fill="none" xmlns="http://www.w3.org/2000/svg">
<path d="M23.5741 8.00304C23.6734 7.7364 23.7675 7.37565 23.7937 6.95739C23.8302 6.22021 23.6473 5.18503 22.6068 4.24395C22.6748 3.76295 22.6748 2.99963 22.2513 2.24154C21.6919 1.23772 20.5992 0.558047 18.9994 0.218213C17.9276 -0.011829 16.5212 -0.058883 14.8168 0.0718226C11.3818 0.00385567 8.03578 0.427342 7.84757 0.453483L6.61893 0.599873C6.26341 0.348918 5.82947 0.202528 5.36416 0.202528H2.17494C0.97245 0.202528 0 1.18021 0 2.37747V10.8733C0 12.0758 0.977678 13.0483 2.17494 13.0483H5.36416C5.74059 13.0483 6.09088 12.9542 6.39935 12.7869C6.61893 13.2679 6.94308 13.8168 7.42408 14.324C7.45022 14.3501 7.47636 14.3762 7.50773 14.3972C9.14939 15.6572 11.0838 20.1953 11.7687 22.0461C11.7008 22.6212 11.6328 23.8655 12.2079 24.5399C12.4641 24.8379 12.8196 25 13.217 25C13.6195 25 15.0102 24.9059 15.8781 23.7086C16.699 22.5689 16.746 20.8645 16.0141 18.6372C15.3971 16.7655 15.3396 15.9343 15.3605 15.5997C15.6428 15.6624 15.9199 15.7199 16.1866 15.767H16.1918C16.2389 15.7774 17.3891 16.0336 18.7641 16.0963C20.7195 16.1904 22.1363 15.8506 22.9624 15.0925C24.1021 14.0521 23.9662 12.7241 23.6263 11.8772C23.9191 11.4955 24.2746 10.8733 24.306 10.0786C24.3269 9.35715 24.0864 8.6618 23.5741 8.00304ZM5.36416 11.6419H2.17494C1.75146 11.6419 1.41162 11.2968 1.41162 10.8786V2.3827C1.41162 1.95921 1.75668 1.61938 2.17494 1.61938H5.36416C5.78765 1.61938 6.12748 1.96444 6.12748 2.3827V10.8786C6.12748 11.302 5.78765 11.6419 5.36416 11.6419ZM22.1834 12.149C22.1834 12.1542 22.3663 12.4418 22.4291 12.8339C22.5075 13.3201 22.3716 13.7227 22.0056 14.0573C21.007 14.967 18.1315 14.7579 16.5264 14.4024C16.5055 14.3972 16.4846 14.3919 16.4585 14.3867C16.1709 14.3344 15.8624 14.2717 15.5487 14.2037C15.2141 14.0835 14.7541 14.0992 14.409 14.4076C13.7136 15.0245 13.7921 16.4257 14.6652 19.0869C15.2403 20.8331 15.2612 22.1506 14.7279 22.8878C14.2783 23.51 13.5359 23.5884 13.2536 23.5936C13.1281 23.3845 13.0915 22.6682 13.1856 22.0774C13.2013 21.9624 13.1908 21.8422 13.1542 21.7271C13.0549 21.4605 10.7597 15.1762 8.41221 13.3149C7.80051 12.6509 7.53387 11.8719 7.43976 11.5216C7.5025 11.3177 7.5391 11.0981 7.5391 10.8733V2.3827C7.5391 2.22585 7.52342 2.069 7.49205 1.92261L8.0201 1.85988H8.02533C8.05669 1.85465 11.4603 1.41548 14.822 1.48867C14.8429 1.48867 14.8691 1.48867 14.8952 1.48867C16.4794 1.36319 17.7603 1.39979 18.7066 1.60369C19.8777 1.85465 20.6515 2.29382 21.007 2.91598C21.3782 3.55905 21.1743 4.22303 21.1586 4.28577C21.0488 4.57855 21.1482 4.89747 21.3991 5.08569C22.9467 6.24636 22.2356 7.60047 22.1415 7.76777C21.969 8.03964 22.0108 8.3847 22.2356 8.61997C22.6853 9.09051 22.9049 9.56105 22.8892 10.0211C22.8683 10.706 22.3402 11.2184 22.3036 11.2498C22.0422 11.4746 21.9951 11.8562 22.1834 12.149Z" fill="#2E3591"/>
</svg>
