<svg width="26" height="25" viewBox="0 0 26 25" fill="none" xmlns="http://www.w3.org/2000/svg">
<path d="M15.455 4.17833L1.68527 17.9491C1.61593 18.0187 1.56651 18.1055 1.54217 18.2006L0.0158777 24.3267C-0.00657025 24.4176 -0.00519456 24.5128 0.0198719 24.603C0.0449383 24.6932 0.0928484 24.7755 0.158974 24.8418C0.260543 24.943 0.398063 24.9999 0.541463 25C0.5857 25 0.629767 24.9945 0.672669 24.9837L6.79874 23.4572C6.89399 23.4333 6.98094 23.3839 7.05027 23.3143L20.8213 9.54451L15.455 4.17833ZM24.2326 2.3007L22.6998 0.76795C21.6754 -0.256491 19.8899 -0.255475 18.8666 0.76795L16.989 2.64558L22.355 8.01155L24.2326 6.13397C24.7443 5.62246 25.0262 4.94158 25.0262 4.21746C25.0262 3.49334 24.7443 2.81246 24.2326 2.3007Z" fill="#2E3591"/>
</svg>
