<svg width="50" height="50" viewBox="0 0 50 50" fill="none" xmlns="http://www.w3.org/2000/svg">
<circle cx="25" cy="25" r="24.5" fill="white" stroke="#E5E5E5"/>
<path d="M27.455 17.1783L13.6853 30.9491C13.6159 31.0187 13.5665 31.1055 13.5422 31.2006L12.0159 37.3267C11.9934 37.4176 11.9948 37.5128 12.0199 37.603C12.0449 37.6932 12.0928 37.7755 12.159 37.8418C12.2605 37.943 12.3981 37.9999 12.5415 38C12.5857 38 12.6298 37.9945 12.6727 37.9837L18.7987 36.4572C18.894 36.4333 18.9809 36.3839 19.0503 36.3143L32.8213 22.5445L27.455 17.1783ZM36.2326 15.3007L34.6998 13.7679C33.6754 12.7435 31.8899 12.7445 30.8666 13.7679L28.989 15.6456L34.355 21.0116L36.2326 19.134C36.7443 18.6225 37.0262 17.9416 37.0262 17.2175C37.0262 16.4933 36.7443 15.8125 36.2326 15.3007Z" fill="#2E3591"/>
</svg>
