<svg width="50" height="50" viewBox="0 0 50 50" fill="none" xmlns="http://www.w3.org/2000/svg">
<rect width="50" height="50" rx="5" fill="#2E3591"/>
<path d="M29.6131 31.2361C29.6131 30.2971 29.6131 27.4389 32.3254 27.4389H37.7499V24.1842C37.7499 22.6887 36.5332 21.472 35.0376 21.472H11.7123C10.2167 21.472 9 22.6887 9 24.1842V38.288C9 39.7835 10.2167 41.0002 11.7123 41.0002H35.0376C36.5332 41.0002 37.7499 39.7835 37.7499 38.288V35.0333H32.3254C29.6131 35.0333 29.6131 32.1751 29.6131 31.2361ZM30.698 20.3871V17.0987C30.698 16.5384 30.4056 16.0301 29.9158 15.7394C29.6692 15.5914 29.388 15.5108 29.1004 15.5056C28.8128 15.5005 28.5289 15.571 28.2771 15.7101L18.8976 20.3871H30.698Z" fill="white"/>
<path d="M33.9526 32.3207C34.5518 32.3207 35.0375 31.835 35.0375 31.2358C35.0375 30.6366 34.5518 30.1509 33.9526 30.1509C33.3534 30.1509 32.8677 30.6366 32.8677 31.2358C32.8677 31.835 33.3534 32.3207 33.9526 32.3207Z" fill="white"/>
<path d="M25.8162 15.725V13.4158C25.8223 13.0878 25.7326 12.7651 25.5581 12.4872C25.3836 12.2093 25.1319 11.9884 24.8338 11.8514C24.2577 11.5899 23.6263 11.6865 23.1446 12.1091L13.6973 20.3869H16.467L25.8162 15.725ZM38.835 28.5236H32.3256C31.3486 28.5236 30.6982 28.9853 30.6982 31.2359C30.6982 33.4865 31.3486 33.9481 32.3256 33.9481H38.835C39.7322 33.9481 40.4623 33.218 40.4623 32.3208V30.151C40.4623 29.2538 39.7322 28.5236 38.835 28.5236ZM33.9529 33.4057C32.7563 33.4057 31.7831 32.4325 31.7831 31.2359C31.7831 30.0392 32.7563 29.0661 33.9529 29.0661C35.1496 29.0661 36.1227 30.0392 36.1227 31.2359C36.1227 32.4325 35.1496 33.4057 33.9529 33.4057ZM40.8849 12.683L38.3896 9.3263C38.3143 9.22501 38.2164 9.14275 38.1036 9.08609C37.9908 9.02943 37.8664 8.99995 37.7402 9C37.614 9.00005 37.4895 9.02964 37.3768 9.08639C37.2641 9.14315 37.1662 9.22549 37.091 9.32684L34.6109 12.6667C34.556 12.7214 34.5185 12.7911 34.5033 12.8671C34.4881 12.9431 34.4958 13.0219 34.5255 13.0935C34.5551 13.1651 34.6053 13.2263 34.6698 13.2693C34.7343 13.3123 34.8101 13.3352 34.8876 13.335H36.1124C36.2741 14.1281 36.1857 14.9518 35.8596 15.6926C35.5334 16.4334 34.9855 17.0548 34.2914 17.4712L33.9529 17.6746L36.1227 19.302L36.2182 19.2385C37.19 18.5905 37.9867 17.7126 38.5378 16.6828C39.089 15.653 39.3773 14.503 39.3774 13.335H40.6148C40.6903 13.3351 40.7642 13.3127 40.827 13.2707C40.8899 13.2288 40.9389 13.1691 40.9678 13.0993C40.9967 13.0295 41.0043 12.9527 40.9895 12.8786C40.9748 12.8045 40.9383 12.7364 40.8849 12.683Z" fill="white"/>
</svg>
