<svg width="40" height="40" viewBox="0 0 40 40" fill="none" xmlns="http://www.w3.org/2000/svg">
<rect width="40" height="40" rx="5" fill="#2E3591"/>
<path d="M7.78125 11.415H19.676C20.0345 13.0452 21.4917 14.2691 23.2296 14.2691C24.9675 14.2691 26.4248 13.0453 26.7833 11.415H31.2188C31.6502 11.415 32 11.0655 32 10.6345C32 10.2035 31.6502 9.85402 31.2188 9.85402H26.7829C26.4237 8.22464 24.9645 7 23.2296 7C21.4939 7 20.0354 8.22445 19.6763 9.85402H7.78125C7.3498 9.85402 7 10.2035 7 10.6345C7 11.0655 7.3498 11.415 7.78125 11.415ZM21.1542 10.6366C21.1542 10.6338 21.1542 10.631 21.1542 10.6282C21.1576 9.48831 22.0886 8.56104 23.2296 8.56104C24.369 8.56104 25.3001 9.48704 25.305 10.6264L25.3052 10.6378C25.3034 11.7796 24.373 12.7081 23.2296 12.7081C22.0868 12.7081 21.1567 11.7806 21.1541 10.6394L21.1542 10.6366ZM31.2188 27.5849H26.7829C26.4236 25.9556 24.9645 24.7309 23.2296 24.7309C21.4939 24.7309 20.0354 25.9554 19.6763 27.5849H7.78125C7.3498 27.5849 7 27.9344 7 28.3654C7 28.7965 7.3498 29.1459 7.78125 29.1459H19.676C20.0345 30.7761 21.4917 32 23.2296 32C24.9675 32 26.4248 30.7761 26.7833 29.1459H31.2188C31.6502 29.1459 32 28.7965 32 28.3654C32 27.9344 31.6502 27.5849 31.2188 27.5849ZM23.2296 30.439C22.0868 30.439 21.1567 29.5114 21.1541 28.3703L21.1542 28.3675C21.1542 28.3647 21.1542 28.3619 21.1542 28.3591C21.1576 27.2192 22.0886 26.2919 23.2296 26.2919C24.369 26.2919 25.3001 27.2179 25.305 28.3572L25.3052 28.3687C25.3035 29.5106 24.3731 30.439 23.2296 30.439ZM31.2188 18.7195H19.324C18.9655 17.0893 17.5083 15.8655 15.7704 15.8655C14.0325 15.8655 12.5752 17.0893 12.2167 18.7195H7.78125C7.3498 18.7195 7 19.069 7 19.5C7 19.9311 7.3498 20.2805 7.78125 20.2805H12.2171C12.5764 21.9098 14.0355 23.1345 15.7704 23.1345C17.5061 23.1345 18.9646 21.91 19.3237 20.2805H31.2188C31.6502 20.2805 32 19.9311 32 19.5C32 19.069 31.6502 18.7195 31.2188 18.7195ZM17.8458 19.498C17.8458 19.5008 17.8458 19.5036 17.8458 19.5063C17.8424 20.6462 16.9114 21.5735 15.7704 21.5735C14.631 21.5735 13.6999 20.6475 13.695 19.5082L13.6948 19.4968C13.6965 18.3548 14.627 17.4265 15.7704 17.4265C16.9132 17.4265 17.8433 18.354 17.8459 19.4952L17.8458 19.498Z" fill="white"/>
</svg>
