<svg width="26" height="26" viewBox="0 0 26 26" fill="none" xmlns="http://www.w3.org/2000/svg">
<path d="M14.3783 18.3181C14.119 18.3429 13.8587 18.283 13.6346 18.1468C13.4709 17.9745 13.3925 17.7354 13.4213 17.4968C13.4274 17.2981 13.4505 17.1004 13.4905 16.9059C13.5292 16.6827 13.5792 16.4618 13.6404 16.244L14.3207 13.8449C14.3908 13.6081 14.4372 13.3646 14.459 13.1181C14.459 12.8522 14.4936 12.669 14.4936 12.5626C14.5081 12.0887 14.3107 11.6339 13.9575 11.3276C13.523 10.9858 12.982 10.8178 12.4355 10.8549C12.0438 10.861 11.6552 10.9267 11.2824 11.0499C10.875 11.1799 10.4464 11.3355 9.99678 11.5168L9.80078 12.2968C9.93336 12.2495 10.0948 12.1963 10.2793 12.1372C10.4553 12.0838 10.6377 12.0559 10.8212 12.0545C11.0786 12.0259 11.3377 12.0907 11.5534 12.2376C11.6998 12.4168 11.7685 12.6494 11.7436 12.8818C11.743 13.0805 11.7217 13.2786 11.6802 13.4727C11.6398 13.6795 11.5879 13.8981 11.5245 14.1285L10.8385 16.5394C10.7832 16.7635 10.739 16.9903 10.7059 17.219C10.679 17.4147 10.6655 17.6122 10.6655 17.8099C10.6627 18.2871 10.8756 18.7387 11.242 19.033C11.6832 19.3802 12.2319 19.5523 12.7871 19.5176C13.178 19.5258 13.5675 19.4679 13.9401 19.3462C14.2668 19.232 14.703 19.0685 15.2488 18.8558L15.4333 18.1112C15.2855 18.1741 15.1332 18.2254 14.9779 18.2648C14.7814 18.3108 14.5796 18.3287 14.3783 18.3181Z" fill="#2E3591"/>
<path d="M15.0986 6.94322C14.7849 6.64788 14.3715 6.48898 13.9456 6.50005C13.52 6.4902 13.107 6.64894 12.7925 6.94322C12.2162 7.45256 12.1519 8.34432 12.6489 8.93506C12.6932 8.98772 12.7412 9.03693 12.7925 9.08233C13.4491 9.68424 14.4421 9.68424 15.0986 9.08233C15.6749 8.56796 15.7353 7.67218 15.2334 7.0815C15.1917 7.03229 15.1466 6.98608 15.0986 6.94322Z" fill="#2E3591"/>
<path d="M12.6834 0C5.67853 0 0 5.82029 0 13C0 20.1797 5.67853 26 12.6834 26C19.6882 26 25.3667 20.1797 25.3667 13C25.3667 5.82029 19.6882 0 12.6834 0ZM12.6834 24.8182C6.31532 24.8182 1.15305 19.527 1.15305 13C1.15305 6.47298 6.31532 1.18183 12.6834 1.18183C19.0514 1.18183 24.2137 6.47298 24.2137 13C24.2137 19.527 19.0514 24.8182 12.6834 24.8182Z" fill="#2E3591"/>
</svg>
