<svg width="50" height="50" viewBox="0 0 50 50" fill="none" xmlns="http://www.w3.org/2000/svg">
<rect width="50" height="50" rx="5" fill="#2E3591"/>
<path d="M13 27C13 25.346 14.346 24 16 24C17.654 24 19 25.346 19 27H21V23.73C21 22.983 21.86 22.492 22.505 22.867C23.155 23.245 24 22.753 24 22C24 21.274 23.144 20.757 22.505 21.133C21.854 21.516 21 21.023 21 20.27V15H12C10.346 15 9 16.346 9 18V27H13Z" fill="white"/>
<path d="M21 37C19.346 37 18 35.654 18 34C18 32.346 19.346 31 21 31V29H17.73C16.984 29 16.479 28.158 16.867 27.494C17.242 26.854 16.757 26 16 26C15.276 26 14.76 26.858 15.133 27.494C15.517 28.148 15.027 29 14.27 29H9V38C9 39.654 10.346 41 12 41H21V37Z" fill="white"/>
<path d="M31 29C31 30.654 29.654 32 28 32C26.346 32 25 30.654 25 29H23V32.27C23 33.019 22.141 33.51 21.495 33.133C20.849 32.756 20 33.246 20 34C20 34.729 20.855 35.244 21.495 34.867C22.143 34.486 23 34.985 23 35.73V41H32C33.654 41 35 39.654 35 38V29H31ZM38 9H28C27.7348 9 27.4804 9.10536 27.2929 9.29289C27.1054 9.48043 27 9.73478 27 10V14.27C27 15.028 27.852 15.514 28.506 15.133C29.16 14.75 30 15.255 30 16C30 16.73 29.146 17.245 28.506 16.867C27.856 16.484 27 16.985 27 17.73V22C27 22.2652 27.1054 22.5196 27.2929 22.7071C27.4804 22.8946 27.7348 23 28 23H31C31 24.654 32.346 26 34 26C35.654 26 37 24.654 37 23H40C40.2652 23 40.5196 22.8946 40.7071 22.7071C40.8946 22.5196 41 22.2652 41 22V12C41 10.346 39.654 9 38 9Z" fill="white"/>
</svg>
