<svg width="87" height="70" viewBox="0 0 87 70" fill="none" xmlns="http://www.w3.org/2000/svg">
<path d="M86.1538 8.28692C82.95 9.69231 79.5361 10.6238 75.9769 11.0762C79.6385 8.89 82.4331 5.45462 83.7469 1.31385C80.3331 3.34923 76.5638 4.78692 72.5469 5.58923C69.3054 2.13769 64.6854 0 59.6454 0C49.8669 0 41.9946 7.93692 41.9946 17.6669C41.9946 19.0669 42.1131 20.4131 42.4038 21.6946C27.72 20.9785 14.7269 13.9408 5.99846 3.22C4.47462 5.86385 3.58077 8.89 3.58077 12.1477C3.58077 18.2646 6.73077 23.6869 11.4262 26.8262C8.58846 26.7723 5.80462 25.9485 3.44615 24.6508V24.8446C3.44615 33.4277 9.56846 40.5569 17.5969 42.1992C16.1592 42.5923 14.5923 42.7808 12.9662 42.7808C11.8354 42.7808 10.6938 42.7162 9.62231 42.4792C11.9108 49.4738 18.4046 54.6162 26.1262 54.7831C20.1169 59.4838 12.4869 62.3162 4.22692 62.3162C2.77846 62.3162 1.38923 62.2515 0 62.0738C7.82385 67.1192 17.0962 70 27.0954 70C59.5969 70 77.3661 43.0769 77.3661 19.74C77.3661 18.9592 77.3392 18.2054 77.3015 17.4569C80.8069 14.9692 83.7523 11.8623 86.1538 8.28692Z" fill="#03A9F4"/>
</svg>
