<svg width="50" height="50" viewBox="0 0 50 50" fill="none" xmlns="http://www.w3.org/2000/svg">
<rect width="50" height="50" rx="5" fill="#2E3591"/>
<path d="M11 38.8243C11 39.4014 11.2293 39.9548 11.6373 40.3629C12.0454 40.771 12.5989 41.0002 13.176 41.0002H35.8659C36.443 41.0002 36.9964 40.771 37.4045 40.3629C37.8126 39.9548 38.0419 39.4014 38.0419 38.8243V21.4634H11V38.8243ZM29.7262 26.0841H33.2547V29.6126H29.7262V26.0841ZM29.7262 32.083H33.2547V35.6115H29.7262V32.083ZM22.7588 26.0841H26.283V29.6126H22.7588V26.0841ZM22.7588 32.083H26.283V35.6115H22.7588V32.083ZM15.7829 26.0841H19.3114V29.6126H15.7829V26.0841ZM15.7829 32.083H19.3114V35.6115H15.7829V32.083Z" fill="white"/>
<path d="M31.3479 16.1338C31.4497 16.1338 31.5474 16.0933 31.6194 16.0213C31.6914 15.9493 31.7319 15.8516 31.7319 15.7498V9.384C31.7319 9.28215 31.6914 9.18448 31.6194 9.11247C31.5474 9.04046 31.4497 9 31.3479 9C31.246 9 31.1484 9.04046 31.0763 9.11247C31.0043 9.18448 30.9639 9.28215 30.9639 9.384V15.7498C30.9639 15.8516 31.0043 15.9493 31.0763 16.0213C31.1484 16.0933 31.246 16.1338 31.3479 16.1338Z" fill="white"/>
<path d="M35.8659 12.3701H32.4867V15.7493C32.4867 16.0559 32.3649 16.35 32.1481 16.5669C31.9312 16.7837 31.6371 16.9055 31.3305 16.9055C31.0238 16.9055 30.7297 16.7837 30.5129 16.5669C30.296 16.35 30.1742 16.0559 30.1742 15.7493V12.3701H18.8634V15.7493C18.873 15.9067 18.8502 16.0645 18.7965 16.2128C18.7429 16.3612 18.6594 16.497 18.5513 16.6119C18.4432 16.7268 18.3127 16.8183 18.1679 16.8809C18.0231 16.9435 17.867 16.9757 17.7093 16.9757C17.5515 16.9757 17.3954 16.9435 17.2506 16.8809C17.1058 16.8183 16.9753 16.7268 16.8672 16.6119C16.7591 16.497 16.6756 16.3612 16.622 16.2128C16.5683 16.0645 16.5456 15.9067 16.5551 15.7493V12.3701H13.176C12.5992 12.3712 12.0464 12.6009 11.6386 13.0087C11.2307 13.4165 11.0011 13.9693 11 14.5461V20.6943H38.0419V14.5461C38.0407 13.9693 37.8111 13.4165 37.4033 13.0087C36.9954 12.6009 36.4426 12.3712 35.8659 12.3701Z" fill="white"/>
<path d="M17.6941 16.134C17.7448 16.1346 17.7952 16.1251 17.8423 16.106C17.8894 16.087 17.9322 16.0588 17.9683 16.0231C18.0044 15.9874 18.0331 15.9448 18.0527 15.898C18.0722 15.8511 18.0823 15.8008 18.0823 15.75V9.38424C18.0723 9.28883 18.0273 9.20052 17.956 9.13633C17.8847 9.07214 17.7921 9.03662 17.6962 9.03662C17.6002 9.03662 17.5077 9.07214 17.4364 9.13633C17.3651 9.20052 17.3201 9.28883 17.3101 9.38424V15.75C17.3101 15.8519 17.3505 15.9496 17.4225 16.0216C17.4945 16.0936 17.5922 16.134 17.6941 16.134Z" fill="white"/>
</svg>
