<svg width="25" height="25" viewBox="0 0 25 25" fill="none" xmlns="http://www.w3.org/2000/svg">
<path d="M23.5728 16.996C24.0851 16.3425 24.3308 15.642 24.2995 14.9205C24.2681 14.1259 23.9126 13.5038 23.6198 13.1221C23.9596 12.2752 24.0903 10.9421 22.9559 9.90694C22.1246 9.14889 20.7131 8.80908 18.7578 8.90318C17.3829 8.96591 16.2327 9.22208 16.1857 9.23254H16.1805C15.9191 9.27959 15.642 9.3371 15.3597 9.39983C15.3388 9.06524 15.3963 8.234 16.0132 6.3624C16.7451 4.1353 16.7033 2.43099 15.8772 1.2913C15.0094 0.0941029 13.624 0 13.2162 0C12.8241 0 12.4634 0.162066 12.2072 0.460059C11.6269 1.13446 11.6949 2.37871 11.7681 2.95378C11.078 4.80447 9.14366 9.34233 7.50732 10.6023C7.47595 10.6232 7.44981 10.6493 7.42367 10.6754C6.9427 11.1826 6.61857 11.7315 6.399 12.2125C6.09055 12.0452 5.74028 11.9511 5.36386 11.9511H2.17482C0.972397 11.9511 0 12.9287 0 14.1259V22.6213C0 23.8237 0.977625 24.7961 2.17482 24.7961H5.36386C5.82915 24.7961 6.26307 24.6497 6.61857 24.3988L7.84713 24.5452C8.03534 24.5713 11.3812 24.9948 14.816 24.9268C15.4381 24.9739 16.0236 25 16.5673 25C17.5031 25 18.3187 24.9268 18.9983 24.7804C20.5981 24.4406 21.6907 23.761 22.2449 22.7624C22.6683 21.9992 22.6683 21.2411 22.6004 20.7601C23.6407 19.8191 23.8237 18.7788 23.7871 18.0468C23.7662 17.6234 23.6721 17.2627 23.5728 16.996ZM2.17482 23.3846C1.75136 23.3846 1.41154 23.0395 1.41154 22.6213V14.1207C1.41154 13.6972 1.75659 13.3574 2.17482 13.3574H5.36386C5.78733 13.3574 6.12714 13.7024 6.12714 14.1207V22.6161C6.12714 23.0395 5.7821 23.3793 5.36386 23.3793H2.17482V23.3846ZM22.2344 16.3844C22.0148 16.6144 21.973 16.9647 22.1403 17.2365C22.1403 17.2417 22.3547 17.6077 22.3808 18.1096C22.4174 18.7944 22.088 19.4009 21.398 19.9184C21.1522 20.1066 21.0529 20.4308 21.1575 20.7235C21.1575 20.7288 21.3823 21.4189 21.0163 22.0724C20.666 22.6997 19.8871 23.1493 18.7056 23.4003C17.7593 23.6041 16.4732 23.6407 14.8944 23.5153C14.8735 23.5153 14.8473 23.5153 14.8212 23.5153C11.4596 23.5885 8.06148 23.1493 8.02489 23.1441H8.01966L7.49164 23.0813C7.523 22.935 7.53869 22.7781 7.53869 22.6213V14.1207C7.53869 13.8959 7.50209 13.6763 7.43936 13.4724C7.53346 13.1221 7.79486 12.3432 8.41175 11.6792C10.7591 9.81807 13.0542 3.53931 13.1535 3.26746C13.1953 3.15767 13.2058 3.03743 13.1849 2.91719C13.096 2.33166 13.1274 1.61543 13.2528 1.40109C13.5299 1.40632 14.2775 1.48473 14.7271 2.10686C15.2604 2.844 15.2394 4.16144 14.6644 5.90757C13.7861 8.56859 13.7129 9.96968 14.4082 10.5866C14.7532 10.895 15.2133 10.9107 15.5479 10.7905C15.8668 10.7173 16.17 10.6545 16.4576 10.6075C16.4785 10.6023 16.5046 10.597 16.5255 10.5918C18.1305 10.2415 21.0059 10.0272 22.0044 10.9368C22.8513 11.7106 22.2501 12.7353 22.1821 12.845C21.9887 13.1378 22.0462 13.5194 22.3076 13.7547C22.3128 13.7599 22.8618 14.2775 22.8879 14.9728C22.9088 15.4381 22.6893 15.9138 22.2344 16.3844Z" fill="#2E3591"/>
</svg>
