<svg width="172" height="155" viewBox="0 0 172 155" fill="none" xmlns="http://www.w3.org/2000/svg">
<circle cx="82.6328" cy="77.5" r="77.5" fill="#ECE9FF"/>
<path d="M30.9674 127.685L31.6519 129.791C31.7188 129.997 31.9108 130.137 32.1274 130.137H34.3424L32.5505 131.439C32.3752 131.566 32.3019 131.792 32.3688 131.998L33.0533 134.104L31.2613 132.802C31.0861 132.675 30.8488 132.675 30.6736 132.802L28.8816 134.104L29.5661 131.998C29.633 131.792 29.5597 131.566 29.3844 131.439L27.5925 130.137H29.8075C30.0241 130.137 30.2161 129.997 30.283 129.791L30.9674 127.685Z" stroke="#E45B5B" stroke-linejoin="round"/>
<circle cx="168.917" cy="81.1167" r="2.58333" fill="#CCBC9A"/>
<path d="M1.00029 52.3483C28.0427 31.8708 26.376 16.2337 18.556 15.9649C10.736 15.6962 6.40762 27.1945 9.52579 30.5351C11.9438 33.1256 33.1441 26.7296 42.5354 18.6254" stroke="black" stroke-width="1.5" stroke-linecap="round"/>
<rect x="130.166" y="15.5" width="31" height="10.3333" rx="2" fill="white"/>
<rect x="138.691" y="18.6" width="20.6667" height="4.13333" rx="1" fill="#D2D7DC"/>
<circle cx="134.816" cy="21.1833" r="2.58333" fill="#FFD064"/>
<rect x="44.4004" y="25.8334" width="77.5" height="103.333" rx="5" fill="white"/>
<line x1="53.918" y1="57.6046" x2="113.418" y2="57.6046" stroke="#E5E5E5" stroke-width="2.5" stroke-linecap="round"/>
<line x1="53.918" y1="77.1925" x2="113.418" y2="77.1925" stroke="#E5E5E5" stroke-width="2.5" stroke-linecap="round"/>
<line x1="53.918" y1="96.7804" x2="113.418" y2="96.7804" stroke="#E5E5E5" stroke-width="2.5" stroke-linecap="round"/>
<line x1="53.918" y1="38.0167" x2="82.418" y2="38.0167" stroke="#2E3591" stroke-width="2.5" stroke-linecap="round"/>
<line x1="53.918" y1="115.517" x2="113.418" y2="115.517" stroke="#E5E5E5" stroke-width="2.5" stroke-linecap="round"/>
<path d="M75.4004 93.8736C75.4004 110.309 88.7717 123.68 105.207 123.68C112.947 123.68 120.006 120.714 125.31 115.861L130.812 121.363L130.747 121.427C129.958 122.217 129.523 123.266 129.523 124.383C129.523 125.499 129.958 126.549 130.747 127.338L156.771 153.362C158.956 155.546 162.51 155.546 164.695 153.362C165.787 152.269 166.334 150.834 166.334 149.399C166.334 147.965 165.788 146.53 164.695 145.437L138.672 119.414C137.882 118.625 136.833 118.19 135.716 118.19C134.6 118.19 133.55 118.625 132.761 119.414L132.696 119.479L127.194 113.977C132.048 108.673 135.014 101.613 135.014 93.8736C135.014 77.438 121.643 64.0667 105.207 64.0667C88.7717 64.0667 75.4004 77.438 75.4004 93.8736ZM132.35 93.8736C132.35 108.84 120.174 121.016 105.207 121.016C90.2407 121.016 78.0645 108.84 78.0645 93.8736C78.0645 78.9072 90.2407 66.7308 105.207 66.7308C120.174 66.7308 132.35 78.907 132.35 93.8736Z" fill="#A3A4A5"/>
<path d="M108.032 94.5498L118.355 104.872C118.949 105.467 118.949 106.427 118.355 107.021C117.76 107.615 116.8 107.615 116.206 107.021L105.883 96.6985L95.5611 107.021C94.9669 107.615 94.0066 107.615 93.4124 107.021C92.8183 106.427 92.8183 105.467 93.4124 104.872L103.735 94.5498L93.4124 84.2272C92.8183 83.6331 92.8183 82.6727 93.4124 82.0786C93.7087 81.7822 94.0977 81.6333 94.4867 81.6333C94.8757 81.6333 95.2647 81.7823 95.5611 82.0786L105.883 92.4011L116.206 82.0786C116.502 81.7822 116.891 81.6333 117.28 81.6333C117.669 81.6333 118.058 81.7823 118.354 82.0786C118.949 82.6727 118.949 83.6331 118.354 84.2272L108.032 94.5498Z" fill="black"/>
</svg>
