<svg width="308" height="236" viewBox="0 0 308 236" fill="none" xmlns="http://www.w3.org/2000/svg">
<path d="M22.61 222H18.62L6.615 203.835V222H2.625V197.64H6.615L18.62 215.77V197.64H22.61V222ZM37.9646 222.315C36.1446 222.315 34.4996 221.907 33.0296 221.09C31.5596 220.25 30.4046 219.083 29.5646 217.59C28.7246 216.073 28.3046 214.323 28.3046 212.34C28.3046 210.38 28.7363 208.642 29.5996 207.125C30.4629 205.608 31.6413 204.442 33.1346 203.625C34.6279 202.808 36.2963 202.4 38.1396 202.4C39.9829 202.4 41.6513 202.808 43.1446 203.625C44.6379 204.442 45.8163 205.608 46.6796 207.125C47.5429 208.642 47.9746 210.38 47.9746 212.34C47.9746 214.3 47.5313 216.038 46.6446 217.555C45.7579 219.072 44.5446 220.25 43.0046 221.09C41.4879 221.907 39.8079 222.315 37.9646 222.315ZM37.9646 218.85C38.9913 218.85 39.9479 218.605 40.8346 218.115C41.7446 217.625 42.4796 216.89 43.0396 215.91C43.5996 214.93 43.8796 213.74 43.8796 212.34C43.8796 210.94 43.6113 209.762 43.0746 208.805C42.5379 207.825 41.8263 207.09 40.9396 206.6C40.0529 206.11 39.0963 205.865 38.0696 205.865C37.0429 205.865 36.0863 206.11 35.1996 206.6C34.3363 207.09 33.6479 207.825 33.1346 208.805C32.6213 209.762 32.3646 210.94 32.3646 212.34C32.3646 214.417 32.8896 216.027 33.9396 217.17C35.0129 218.29 36.3546 218.85 37.9646 218.85ZM77.1457 222L71.5457 212.27H68.5007V222H64.5107V197.675H72.9107C74.7774 197.675 76.3524 198.002 77.6357 198.655C78.9424 199.308 79.9107 200.183 80.5407 201.28C81.1941 202.377 81.5207 203.602 81.5207 204.955C81.5207 206.542 81.0541 207.988 80.1207 209.295C79.2107 210.578 77.7991 211.453 75.8857 211.92L81.9057 222H77.1457ZM68.5007 209.085H72.9107C74.4041 209.085 75.5241 208.712 76.2707 207.965C77.0407 207.218 77.4257 206.215 77.4257 204.955C77.4257 203.695 77.0524 202.715 76.3057 202.015C75.5591 201.292 74.4274 200.93 72.9107 200.93H68.5007V209.085ZM106.05 211.885C106.05 212.608 106.003 213.262 105.91 213.845H91.175C91.2917 215.385 91.8633 216.622 92.89 217.555C93.9167 218.488 95.1767 218.955 96.67 218.955C98.8167 218.955 100.333 218.057 101.22 216.26H105.525C104.942 218.033 103.88 219.492 102.34 220.635C100.823 221.755 98.9333 222.315 96.67 222.315C94.8267 222.315 93.17 221.907 91.7 221.09C90.2533 220.25 89.11 219.083 88.27 217.59C87.4533 216.073 87.045 214.323 87.045 212.34C87.045 210.357 87.4417 208.618 88.235 207.125C89.0517 205.608 90.1833 204.442 91.63 203.625C93.1 202.808 94.78 202.4 96.67 202.4C98.49 202.4 100.112 202.797 101.535 203.59C102.958 204.383 104.067 205.503 104.86 206.95C105.653 208.373 106.05 210.018 106.05 211.885ZM101.885 210.625C101.862 209.155 101.337 207.977 100.31 207.09C99.2833 206.203 98.0117 205.76 96.495 205.76C95.1183 205.76 93.94 206.203 92.96 207.09C91.98 207.953 91.3967 209.132 91.21 210.625H101.885ZM118.727 222.315C117.21 222.315 115.845 222.047 114.632 221.51C113.442 220.95 112.497 220.203 111.797 219.27C111.097 218.313 110.723 217.252 110.677 216.085H114.807C114.877 216.902 115.262 217.59 115.962 218.15C116.685 218.687 117.583 218.955 118.657 218.955C119.777 218.955 120.64 218.745 121.247 218.325C121.877 217.882 122.192 217.322 122.192 216.645C122.192 215.922 121.842 215.385 121.142 215.035C120.465 214.685 119.38 214.3 117.887 213.88C116.44 213.483 115.262 213.098 114.352 212.725C113.442 212.352 112.648 211.78 111.972 211.01C111.318 210.24 110.992 209.225 110.992 207.965C110.992 206.938 111.295 206.005 111.902 205.165C112.508 204.302 113.372 203.625 114.492 203.135C115.635 202.645 116.942 202.4 118.412 202.4C120.605 202.4 122.367 202.96 123.697 204.08C125.05 205.177 125.773 206.682 125.867 208.595H121.877C121.807 207.732 121.457 207.043 120.827 206.53C120.197 206.017 119.345 205.76 118.272 205.76C117.222 205.76 116.417 205.958 115.857 206.355C115.297 206.752 115.017 207.277 115.017 207.93C115.017 208.443 115.203 208.875 115.577 209.225C115.95 209.575 116.405 209.855 116.942 210.065C117.478 210.252 118.272 210.497 119.322 210.8C120.722 211.173 121.865 211.558 122.752 211.955C123.662 212.328 124.443 212.888 125.097 213.635C125.75 214.382 126.088 215.373 126.112 216.61C126.112 217.707 125.808 218.687 125.202 219.55C124.595 220.413 123.732 221.09 122.612 221.58C121.515 222.07 120.22 222.315 118.727 222.315ZM149.638 202.715V222H145.648V219.725C145.018 220.518 144.19 221.148 143.163 221.615C142.16 222.058 141.086 222.28 139.943 222.28C138.426 222.28 137.061 221.965 135.848 221.335C134.658 220.705 133.713 219.772 133.013 218.535C132.336 217.298 131.998 215.805 131.998 214.055V202.715H135.953V213.46C135.953 215.187 136.385 216.517 137.248 217.45C138.111 218.36 139.29 218.815 140.783 218.815C142.276 218.815 143.455 218.36 144.318 217.45C145.205 216.517 145.648 215.187 145.648 213.46V202.715H149.638ZM160.642 196.1V222H156.652V196.1H160.642ZM172.286 205.97V216.645C172.286 217.368 172.449 217.893 172.776 218.22C173.126 218.523 173.709 218.675 174.526 218.675H176.976V222H173.826C172.029 222 170.653 221.58 169.696 220.74C168.739 219.9 168.261 218.535 168.261 216.645V205.97H165.986V202.715H168.261V197.92H172.286V202.715H176.976V205.97H172.286ZM207.56 197.675V200.93H197.235V208.105H205.285V211.36H197.235V222H193.245V197.675H207.56ZM221.373 222.315C219.553 222.315 217.908 221.907 216.438 221.09C214.968 220.25 213.813 219.083 212.973 217.59C212.133 216.073 211.713 214.323 211.713 212.34C211.713 210.38 212.144 208.642 213.008 207.125C213.871 205.608 215.049 204.442 216.543 203.625C218.036 202.808 219.704 202.4 221.548 202.4C223.391 202.4 225.059 202.808 226.553 203.625C228.046 204.442 229.224 205.608 230.088 207.125C230.951 208.642 231.383 210.38 231.383 212.34C231.383 214.3 230.939 216.038 230.053 217.555C229.166 219.072 227.953 220.25 226.413 221.09C224.896 221.907 223.216 222.315 221.373 222.315ZM221.373 218.85C222.399 218.85 223.356 218.605 224.243 218.115C225.153 217.625 225.888 216.89 226.448 215.91C227.008 214.93 227.288 213.74 227.288 212.34C227.288 210.94 227.019 209.762 226.483 208.805C225.946 207.825 225.234 207.09 224.348 206.6C223.461 206.11 222.504 205.865 221.478 205.865C220.451 205.865 219.494 206.11 218.608 206.6C217.744 207.09 217.056 207.825 216.543 208.805C216.029 209.762 215.773 210.94 215.773 212.34C215.773 214.417 216.298 216.027 217.348 217.17C218.421 218.29 219.763 218.85 221.373 218.85ZM254.542 202.715V222H250.552V219.725C249.922 220.518 249.094 221.148 248.067 221.615C247.064 222.058 245.99 222.28 244.847 222.28C243.33 222.28 241.965 221.965 240.752 221.335C239.562 220.705 238.617 219.772 237.917 218.535C237.24 217.298 236.902 215.805 236.902 214.055V202.715H240.857V213.46C240.857 215.187 241.289 216.517 242.152 217.45C243.015 218.36 244.194 218.815 245.687 218.815C247.18 218.815 248.359 218.36 249.222 217.45C250.109 216.517 250.552 215.187 250.552 213.46V202.715H254.542ZM271.287 202.4C272.803 202.4 274.157 202.715 275.347 203.345C276.56 203.975 277.505 204.908 278.182 206.145C278.858 207.382 279.197 208.875 279.197 210.625V222H275.242V211.22C275.242 209.493 274.81 208.175 273.947 207.265C273.083 206.332 271.905 205.865 270.412 205.865C268.918 205.865 267.728 206.332 266.842 207.265C265.978 208.175 265.547 209.493 265.547 211.22V222H261.557V202.715H265.547V204.92C266.2 204.127 267.028 203.508 268.032 203.065C269.058 202.622 270.143 202.4 271.287 202.4ZM284.706 212.27C284.706 210.333 285.103 208.618 285.896 207.125C286.713 205.632 287.809 204.477 289.186 203.66C290.586 202.82 292.138 202.4 293.841 202.4C295.101 202.4 296.338 202.68 297.551 203.24C298.788 203.777 299.768 204.5 300.491 205.41V196.1H304.516V222H300.491V219.095C299.838 220.028 298.928 220.798 297.761 221.405C296.618 222.012 295.299 222.315 293.806 222.315C292.126 222.315 290.586 221.895 289.186 221.055C287.809 220.192 286.713 219.002 285.896 217.485C285.103 215.945 284.706 214.207 284.706 212.27ZM300.491 212.34C300.491 211.01 300.211 209.855 299.651 208.875C299.114 207.895 298.403 207.148 297.516 206.635C296.629 206.122 295.673 205.865 294.646 205.865C293.619 205.865 292.663 206.122 291.776 206.635C290.889 207.125 290.166 207.86 289.606 208.84C289.069 209.797 288.801 210.94 288.801 212.27C288.801 213.6 289.069 214.767 289.606 215.77C290.166 216.773 290.889 217.543 291.776 218.08C292.686 218.593 293.643 218.85 294.646 218.85C295.673 218.85 296.629 218.593 297.516 218.08C298.403 217.567 299.114 216.82 299.651 215.84C300.211 214.837 300.491 213.67 300.491 212.34Z" fill="black"/>
<circle cx="150.633" cy="77.5" r="77.5" fill="#ECE9FF"/>
<path d="M98.9674 127.685L99.6519 129.791C99.7188 129.997 99.9108 130.137 100.127 130.137H102.342L100.55 131.439C100.375 131.566 100.302 131.792 100.369 131.998L101.053 134.104L99.2613 132.802C99.0861 132.675 98.8488 132.675 98.6736 132.802L96.8816 134.104L97.5661 131.998C97.633 131.792 97.5597 131.566 97.3844 131.439L95.5925 130.137H97.8075C98.0241 130.137 98.2161 129.997 98.283 129.791L98.9674 127.685Z" stroke="#E45B5B" stroke-linejoin="round"/>
<circle cx="236.917" cy="81.1167" r="2.58333" fill="#CCBC9A"/>
<path d="M69.0003 52.3483C96.0427 31.8708 94.376 16.2337 86.556 15.9649C78.736 15.6962 74.4076 27.1945 77.5258 30.5351C79.9438 33.1256 101.144 26.7296 110.535 18.6254" stroke="black" stroke-width="1.5" stroke-linecap="round"/>
<rect x="198.166" y="15.5" width="31" height="10.3333" rx="2" fill="white"/>
<rect x="206.691" y="18.6" width="20.6667" height="4.13333" rx="1" fill="#D2D7DC"/>
<circle cx="202.816" cy="21.1833" r="2.58333" fill="#FFD064"/>
<rect x="112.4" y="25.8334" width="77.5" height="103.333" rx="5" fill="white"/>
<line x1="121.918" y1="57.6046" x2="181.418" y2="57.6046" stroke="#E5E5E5" stroke-width="2.5" stroke-linecap="round"/>
<line x1="121.918" y1="77.1925" x2="181.418" y2="77.1925" stroke="#E5E5E5" stroke-width="2.5" stroke-linecap="round"/>
<line x1="121.918" y1="96.7804" x2="181.418" y2="96.7804" stroke="#E5E5E5" stroke-width="2.5" stroke-linecap="round"/>
<line x1="121.918" y1="38.0167" x2="150.418" y2="38.0167" stroke="#2E3591" stroke-width="2.5" stroke-linecap="round"/>
<line x1="121.918" y1="115.517" x2="181.418" y2="115.517" stroke="#E5E5E5" stroke-width="2.5" stroke-linecap="round"/>
<path d="M143.4 93.8736C143.4 110.309 156.772 123.68 173.207 123.68C180.947 123.68 188.006 120.714 193.31 115.861L198.812 121.363L198.747 121.427C197.958 122.217 197.523 123.266 197.523 124.383C197.523 125.499 197.958 126.549 198.747 127.338L224.771 153.362C226.956 155.546 230.51 155.546 232.695 153.362C233.787 152.269 234.334 150.834 234.334 149.399C234.334 147.965 233.788 146.53 232.695 145.437L206.672 119.414C205.882 118.625 204.833 118.19 203.716 118.19C202.6 118.19 201.55 118.625 200.761 119.414L200.696 119.479L195.194 113.977C200.048 108.673 203.014 101.613 203.014 93.8736C203.014 77.438 189.643 64.0667 173.207 64.0667C156.772 64.0667 143.4 77.438 143.4 93.8736ZM200.35 93.8736C200.35 108.84 188.174 121.016 173.207 121.016C158.241 121.016 146.065 108.84 146.065 93.8736C146.065 78.9072 158.241 66.7308 173.207 66.7308C188.174 66.7308 200.35 78.907 200.35 93.8736Z" fill="#A3A4A5"/>
<path d="M176.032 94.5498L186.355 104.872C186.949 105.467 186.949 106.427 186.355 107.021C185.76 107.615 184.8 107.615 184.206 107.021L173.883 96.6985L163.561 107.021C162.967 107.615 162.007 107.615 161.412 107.021C160.818 106.427 160.818 105.467 161.412 104.872L171.735 94.5498L161.412 84.2272C160.818 83.6331 160.818 82.6727 161.412 82.0786C161.709 81.7822 162.098 81.6333 162.487 81.6333C162.876 81.6333 163.265 81.7823 163.561 82.0786L173.883 92.4011L184.206 82.0786C184.502 81.7822 184.891 81.6333 185.28 81.6333C185.669 81.6333 186.058 81.7823 186.354 82.0786C186.949 82.6727 186.949 83.6331 186.354 84.2272L176.032 94.5498Z" fill="black"/>
</svg>
