<svg width="18" height="22" viewBox="0 0 18 22" fill="none" xmlns="http://www.w3.org/2000/svg">
<path d="M0 18.7V17.05H2.31V8.635C2.31 7.095 2.76375 5.72458 3.67125 4.52375C4.57875 3.32292 5.775 2.56667 7.26 2.255V1.4575C7.26 1.03583 7.41125 0.6875 7.71375 0.4125C8.01625 0.1375 8.37833 0 8.8 0C9.22167 0 9.58375 0.1375 9.88625 0.4125C10.1888 0.6875 10.34 1.03583 10.34 1.4575V2.255C11.825 2.56667 13.0258 3.32292 13.9425 4.52375C14.8592 5.72458 15.3175 7.095 15.3175 8.635V17.05H17.6V18.7H0ZM8.8 22C8.21333 22 7.7 21.7846 7.26 21.3538C6.82 20.9229 6.6 20.405 6.6 19.8H11C11 20.405 10.7846 20.9229 10.3538 21.3538C9.92292 21.7846 9.405 22 8.8 22ZM3.96 17.05H13.6675V8.635C13.6675 7.27833 13.2 6.12333 12.265 5.17C11.33 4.21667 10.1842 3.74 8.8275 3.74C7.47083 3.74 6.32042 4.21667 5.37625 5.17C4.43208 6.12333 3.96 7.27833 3.96 8.635V17.05Z" fill="#2E3591"/>
</svg>
