<svg width="188" height="55" viewBox="0 0 188 55" fill="none" xmlns="http://www.w3.org/2000/svg">
<path d="M185.535 4.83941H55.0652C53.9534 4.83941 53.1033 3.98923 53.1033 2.87746C53.1033 1.76569 53.9534 0.915512 55.0652 0.915512H185.535C186.647 0.915512 187.497 1.76569 187.497 2.87746C187.497 3.98923 186.581 4.83941 185.535 4.83941Z" fill="#2E3591"/>
<path d="M33.0261 22.8892C33.0261 26.0937 32.5683 28.9058 31.5874 31.4563C30.6718 33.9415 29.3638 36.0996 27.7943 37.8654C26.2247 39.6311 24.3936 40.9391 22.4316 41.8547C20.4697 42.7702 18.3769 43.228 16.2842 43.228C14.126 43.228 12.0987 42.7702 10.1367 41.9201C8.17478 41.0699 6.40903 39.7619 4.90487 38.127C3.40071 36.4266 2.15814 34.3993 1.30797 31.9141C0.39239 29.4944 0 26.6169 0 23.4777C0 20.2732 0.457788 17.4611 1.43876 14.976C2.35434 12.4908 3.6623 10.3327 5.23186 8.56694C6.80142 6.80119 8.63257 5.49322 10.6599 4.57765C12.6873 3.66207 14.7146 3.20428 16.8728 3.20428C18.9655 3.20428 20.9928 3.66207 22.9548 4.51225C24.9167 5.36243 26.6171 6.67039 28.1213 8.30535C29.6254 10.0057 30.868 12.033 31.7182 14.5182C32.5683 16.8725 33.0261 19.6846 33.0261 22.8892ZM27.8597 23.5431C27.8597 20.2732 27.4019 17.4611 26.4209 15.1068C25.5053 12.7524 24.132 10.9213 22.497 9.67871C20.7966 8.43615 18.8347 7.78216 16.6112 7.78216C14.3876 7.78216 12.4257 8.37075 10.6599 9.61331C8.95956 10.8559 7.5862 12.5562 6.60522 14.8452C5.62425 17.0687 5.16646 19.75 5.16646 22.8238C5.16646 26.0283 5.62425 28.8404 6.60522 31.1947C7.5208 33.5491 8.89417 35.3802 10.5945 36.6882C12.2949 37.9962 14.3222 38.5847 16.6112 38.5847C18.7693 38.5847 20.7313 37.9962 22.4316 36.819C24.132 35.6418 25.4399 33.8761 26.4209 31.6525C27.4019 29.429 27.8597 26.6823 27.8597 23.5431Z" fill="#2E3591"/>
<path d="M44.9291 27.1403V42.5089H40.0242C40.0242 40.3507 40.0242 38.0618 40.0242 35.6421C40.0242 33.2223 40.0242 30.8026 40.0242 28.3828C40.0242 25.9631 40.0242 23.6742 40.0242 21.5814C40.0242 19.4233 40.0242 17.5921 40.0242 16.0226C40.0242 14.453 40.0242 13.2758 40.0242 12.4911C40.0242 9.61355 40.0242 7.12841 39.9588 4.97027C39.8934 2.81213 39.828 1.17717 39.6318 0H44.9291C44.9291 2.09274 44.9291 4.25089 44.9291 6.53983C44.9291 8.82876 44.9291 10.9869 44.9291 13.0143C44.9291 15.0416 44.9291 16.742 44.9291 18.1153C44.9291 19.4887 44.9291 20.2735 44.9291 20.4697C46.2371 18.6385 47.8066 17.2651 49.5724 16.2842C51.3381 15.3686 53.1693 14.8454 55.0004 14.8454C57.8126 14.8454 59.9707 15.761 61.4748 17.5921C62.979 19.4233 63.7638 22.17 63.7638 25.8323C63.7638 26.6171 63.7638 27.6635 63.7638 29.0368C63.7638 30.3448 63.7638 31.7836 63.7638 33.4185C63.7638 35.0535 63.7638 36.5576 63.7638 38.1272C63.7638 39.6967 63.7638 41.1355 63.7638 42.4435H58.8589C58.8589 41.2663 58.8589 39.9583 58.8589 38.585C58.8589 37.2116 58.8589 35.7728 58.8589 34.3995C58.8589 33.0261 58.8589 31.7182 58.8589 30.6064C58.8589 29.4946 58.8589 28.579 58.8589 27.9251C58.8589 25.7015 58.6627 24.0012 58.2703 22.7586C57.878 21.516 57.2894 20.7312 56.5046 20.2081C55.7198 19.7503 54.7388 19.4887 53.5617 19.4887C52.3191 19.4887 51.0765 19.8811 49.8994 20.6005C48.7222 21.3852 47.7412 22.3008 46.8256 23.478C45.9755 24.7205 45.3215 25.8977 44.9291 27.1403Z" fill="#2E3591"/>
<path d="M94.9584 15.434C94.0428 17.4613 93.2581 19.2271 92.6695 20.7313C92.0809 22.2354 91.5577 23.6088 91.0999 24.8513L84.7563 42.5089C83.5137 45.9096 82.3366 48.4601 81.1594 50.2913C79.9822 52.1224 78.7396 53.365 77.4971 54.019C76.2545 54.6729 74.8158 54.9999 73.3116 54.9999C72.1344 54.9999 70.9573 54.8037 69.9109 54.4114C68.8645 54.019 67.8181 53.4304 66.8372 52.7764L68.4067 48.5255C68.9953 48.9833 69.7147 49.4411 70.6303 49.8335C71.5458 50.2913 72.4614 50.4875 73.3116 50.4875C74.0964 50.4875 74.8811 50.2259 75.6659 49.8335C76.3853 49.3757 77.1701 48.4601 78.0203 47.1521C78.6089 46.1712 79.1974 44.9286 79.8514 43.2937L72.4614 24.9167C71.9382 23.7396 71.415 22.3662 70.7611 20.862C70.1071 19.3579 69.2569 17.5921 68.2105 15.4994H73.5078L82.075 37.1462C82.7289 35.3151 83.4483 33.1569 84.3639 30.6718C85.2141 28.1867 86.1296 25.5707 87.1106 22.8894C88.0262 20.2081 88.9418 17.7229 89.7266 15.434H94.9584Z" fill="#2E3591"/>
<path d="M123.537 42.5089H118.894C118.632 41.9203 118.436 41.1355 118.24 40.0238C118.044 38.912 117.913 37.8002 117.847 36.6231C117.782 35.4459 117.717 34.4649 117.717 33.7455V31.6528C116.997 33.4839 116.147 35.2497 115.035 37.0808C113.923 38.8466 112.681 40.3508 111.242 41.4625C109.803 42.6397 108.168 43.2283 106.272 43.2283C104.048 43.2283 102.152 42.2473 100.648 40.2854C99.1434 38.3234 98.3586 35.4459 98.3586 31.7182C98.3586 29.6254 98.6202 27.5327 99.2088 25.5707C99.7974 23.6088 100.648 21.7776 101.825 20.2081C103.002 18.6385 104.506 17.3306 106.272 16.415C108.038 15.4994 110.196 14.9762 112.681 14.9762C114.381 14.9762 116.016 15.107 117.52 15.3032C119.024 15.4994 120.463 15.8264 121.837 16.1534V28.5137C121.837 31.849 121.967 34.6611 122.294 36.95C122.621 39.1736 123.014 41.0047 123.537 42.5089ZM116.866 23.0202V19.6195C116.409 19.4887 115.885 19.4233 115.231 19.2925C114.577 19.1617 113.596 19.1617 112.223 19.1617C109.934 19.1617 108.103 19.7503 106.795 20.9275C105.487 22.1046 104.571 23.6742 103.983 25.5707C103.46 27.4673 103.198 29.4946 103.198 31.6528C103.198 33.6801 103.59 35.3805 104.31 36.6884C105.029 37.9964 105.945 38.6504 106.991 38.6504C107.907 38.6504 108.888 38.258 109.803 37.4078C110.719 36.5577 111.634 35.5113 112.485 34.2033C113.335 32.8954 114.054 31.522 114.708 30.0832C115.362 28.6445 115.885 27.2711 116.278 26.0285C116.67 24.786 116.866 23.7396 116.866 23.0202Z" fill="#2E3591"/>
<path d="M148.977 42.509C148.977 41.0048 148.977 39.6314 148.977 38.3889C148.977 37.2117 148.977 35.9037 148.977 34.5958C148.977 33.2224 148.977 31.9798 148.977 30.8027C148.977 29.6255 148.977 28.6445 148.977 27.9252C148.977 25.7016 148.781 24.0013 148.389 22.7587C147.996 21.5161 147.408 20.7313 146.623 20.2082C145.838 19.7504 144.857 19.4888 143.68 19.4888C142.438 19.4888 141.195 19.8812 140.018 20.6005C138.841 21.3853 137.86 22.3009 136.944 23.4781C136.094 24.6552 135.44 25.8324 135.048 27.0096V42.3782H130.143C130.143 40.8086 130.143 39.3699 130.143 38.1273C130.143 36.8847 130.143 35.5114 130.143 34.0072C130.143 32.503 130.143 31.0643 130.143 29.6909C130.143 28.2521 130.143 27.075 130.143 26.0286C130.143 23.4127 130.012 21.1891 129.685 19.4234C129.358 17.6576 129.096 16.2189 128.769 15.3033H133.543C133.674 15.6957 133.805 16.2189 133.936 16.8729C134.067 17.5268 134.197 18.1808 134.328 18.8348C134.459 19.4888 134.524 20.0774 134.59 20.4698C136.29 18.4424 137.99 17.0036 139.691 16.0881C141.391 15.1725 143.222 14.7801 145.053 14.7801C147.866 14.7801 150.024 15.6957 151.528 17.5268C153.032 19.358 153.751 22.1047 153.751 25.767C153.751 26.6826 153.751 27.7944 153.751 29.1677C153.751 30.5411 153.751 31.9799 153.751 33.484C153.751 34.9882 153.751 36.4269 153.751 37.8003C153.751 39.1737 153.751 40.6778 153.751 42.3782H148.977V42.509Z" fill="#2E3591"/>
<path d="M185.535 42.5089H180.892C180.63 41.9203 180.434 41.1355 180.238 40.0238C180.042 38.912 179.911 37.8002 179.845 36.6231C179.78 35.4459 179.715 34.4649 179.715 33.7455V31.6528C178.995 33.4839 178.145 35.2497 177.033 37.0808C175.921 38.8466 174.679 40.3508 173.24 41.4625C171.801 42.6397 170.166 43.2283 168.27 43.2283C166.046 43.2283 164.15 42.2473 162.646 40.2854C161.141 38.3234 160.357 35.4459 160.357 31.7182C160.357 29.6254 160.618 27.5327 161.207 25.5707C161.795 23.6088 162.646 21.7776 163.823 20.2081C165 18.6385 166.504 17.3306 168.27 16.415C170.036 15.4994 172.194 14.9762 174.679 14.9762C176.379 14.9762 178.014 15.107 179.518 15.3032C181.023 15.4994 182.461 15.8264 183.835 16.1534V28.5137C183.835 31.849 183.965 34.6611 184.292 36.95C184.554 39.1736 185.012 41.0047 185.535 42.5089ZM178.864 23.0202V19.6195C178.407 19.4887 177.883 19.4233 177.229 19.2925C176.575 19.1617 175.594 19.1617 174.221 19.1617C171.932 19.1617 170.101 19.7503 168.793 20.9275C167.485 22.1046 166.57 23.6742 165.981 25.5707C165.458 27.4673 165.196 29.4946 165.196 31.6528C165.196 33.6801 165.589 35.3805 166.308 36.6884C167.027 37.9964 167.943 38.6504 168.989 38.6504C169.905 38.6504 170.886 38.258 171.801 37.4078C172.717 36.5577 173.633 35.5113 174.483 34.2033C175.333 32.8954 176.052 31.522 176.706 30.0832C177.36 28.6445 177.883 27.2711 178.276 26.0285C178.668 24.786 178.864 23.7396 178.864 23.0202Z" fill="#2E3591"/>
</svg>
