<svg width="423" height="124" viewBox="0 0 423 124" fill="none" xmlns="http://www.w3.org/2000/svg">
<path d="M418.297 10.9106H124.147C121.64 10.9106 119.724 8.99381 119.724 6.48727C119.724 3.98073 121.64 2.06396 124.147 2.06396H418.297C420.803 2.06396 422.72 3.98073 422.72 6.48727C422.72 8.99381 420.656 10.9106 418.297 10.9106Z" fill="white"/>
<path d="M74.459 51.6051C74.459 58.8298 73.4269 65.1699 71.2152 70.9202C69.151 76.5231 66.2021 81.3887 62.6635 85.3697C59.1249 89.3506 54.9964 92.2995 50.5731 94.3637C46.1498 96.4279 41.4316 97.46 36.7134 97.46C31.8478 97.46 27.2771 96.4279 22.8537 94.5112C18.4304 92.5944 14.4495 89.6455 11.0583 85.9594C7.66706 82.1259 4.86564 77.5552 2.94887 71.9523C0.884661 66.4969 0 60.0094 0 52.9321C0 45.7074 1.03211 39.3673 3.24376 33.7644C5.30797 28.1616 8.25684 23.296 11.7955 19.315C15.3341 15.334 19.4625 12.3851 24.0333 10.3209C28.604 8.25671 33.1748 7.22461 38.0404 7.22461C42.7586 7.22461 47.3294 8.25671 51.7527 10.1735C56.176 12.0902 60.0095 15.0391 63.4007 18.7252C66.7919 22.5587 69.5933 27.1295 71.5101 32.7323C73.4269 38.0403 74.459 44.3804 74.459 51.6051ZM62.8109 53.0795C62.8109 45.7074 61.7788 39.3673 59.5672 34.0593C57.503 28.7514 54.4067 24.6229 50.7206 21.8215C46.887 19.0201 42.4637 17.5457 37.4507 17.5457C32.4376 17.5457 28.0143 18.8726 24.0333 21.6741C20.1998 24.4755 17.1034 28.309 14.8918 33.4696C12.6801 38.4826 11.648 44.5278 11.648 51.4577C11.648 58.6824 12.6801 65.0225 14.8918 70.3304C16.956 75.6384 20.0523 79.7668 23.8859 82.7157C27.7194 85.6646 32.2901 86.9916 37.4507 86.9916C42.3163 86.9916 46.7396 85.6646 50.5731 83.0106C54.4067 80.3566 57.3555 76.3756 59.5672 71.3625C61.7788 66.3495 62.8109 60.1568 62.8109 53.0795Z" fill="white"/>
<path d="M101.294 61.1891V95.8383H90.2357C90.2357 90.9727 90.2357 85.8121 90.2357 80.3567C90.2357 74.9013 90.2357 69.4459 90.2357 63.9905C90.2357 58.5351 90.2357 53.3746 90.2357 48.6564C90.2357 43.7907 90.2357 39.6623 90.2357 36.1237C90.2357 32.585 90.2357 29.931 90.2357 28.1617C90.2357 21.6742 90.2357 16.0713 90.0883 11.2057C89.9408 6.34008 89.7934 2.65398 89.3511 0H101.294C101.294 4.71819 101.294 9.58383 101.294 14.7444C101.294 19.9049 101.294 24.7705 101.294 29.3413C101.294 33.912 101.294 37.7455 101.294 40.8419C101.294 43.9382 101.294 45.7075 101.294 46.1498C104.243 42.0214 107.782 38.9251 111.762 36.7134C115.743 34.6492 119.872 33.4697 124 33.4697C130.34 33.4697 135.206 35.5339 138.597 39.6623C141.988 43.7907 143.758 49.9834 143.758 58.2402C143.758 60.0095 143.758 62.3686 143.758 65.4649C143.758 68.4138 143.758 71.6575 143.758 75.3436C143.758 79.0297 143.758 82.4209 143.758 85.9596C143.758 89.4982 143.758 92.742 143.758 95.6908H132.699C132.699 93.0369 132.699 90.088 132.699 86.9917C132.699 83.8954 132.699 80.6516 132.699 77.5553C132.699 74.459 132.699 71.5101 132.699 69.0036C132.699 66.497 132.699 64.4328 132.699 62.9584C132.699 57.9453 132.257 54.1118 131.372 51.3103C130.488 48.5089 129.161 46.7396 127.391 45.5601C125.622 44.5279 123.411 43.9382 120.757 43.9382C117.955 43.9382 115.154 44.8228 112.5 46.4447C109.846 48.214 107.634 50.2782 105.57 52.9322C103.653 55.7337 102.179 58.3876 101.294 61.1891Z" fill="white"/>
<path d="M214.088 34.7969C212.024 39.3676 210.255 43.3486 208.928 46.7398C207.601 50.131 206.421 53.2273 205.389 56.0287L191.087 95.8385C188.286 103.506 185.632 109.256 182.978 113.384C180.324 117.513 177.522 120.314 174.721 121.789C171.919 123.263 168.676 124 165.284 124C162.63 124 159.976 123.558 157.617 122.673C155.258 121.789 152.899 120.462 150.688 118.987L154.226 109.403C155.553 110.435 157.175 111.468 159.239 112.352C161.303 113.384 163.368 113.827 165.284 113.827C167.054 113.827 168.823 113.237 170.592 112.352C172.214 111.32 173.984 109.256 175.9 106.307C177.227 104.095 178.554 101.294 180.029 97.6078L163.368 56.1762C162.188 53.5222 161.009 50.4259 159.534 47.0347C158.06 43.6435 156.143 39.6625 153.784 34.9443H165.727L185.042 83.7481C186.516 79.6197 188.138 74.7541 190.202 69.1512C192.119 63.5484 194.183 57.6506 196.395 51.6054C198.459 45.5602 200.523 39.9574 202.293 34.7969H214.088Z" fill="white"/>
<path d="M278.521 95.8384H268.052C267.462 94.5114 267.02 92.7421 266.578 90.2355C266.135 87.729 265.84 85.2224 265.693 82.5685C265.546 79.9145 265.398 77.7028 265.398 76.0809V71.3627C263.776 75.4912 261.86 79.4721 259.353 83.6006C256.846 87.5815 254.045 90.9727 250.801 93.4793C247.557 96.1333 243.871 97.4602 239.596 97.4602C234.582 97.4602 230.307 95.2486 226.915 90.8253C223.524 86.402 221.755 79.9145 221.755 71.5102C221.755 66.792 222.345 62.0738 223.672 57.6505C224.999 53.2272 226.915 49.0988 229.569 45.5601C232.223 42.0215 235.615 39.0726 239.596 37.0084C243.577 34.9442 248.442 33.7646 254.045 33.7646C257.879 33.7646 261.565 34.0595 264.956 34.5019C268.347 34.9442 271.591 35.6814 274.687 36.4186V64.2855C274.687 71.8051 274.982 78.1451 275.719 83.3057C276.456 88.3187 277.341 92.4472 278.521 95.8384ZM263.481 51.9002V44.2331C262.449 43.9382 261.27 43.7908 259.795 43.4959C258.321 43.201 256.109 43.201 253.013 43.201C247.852 43.201 243.724 44.528 240.775 47.182C237.826 49.836 235.762 53.3746 234.435 57.6505C233.255 61.9264 232.666 66.4971 232.666 71.3627C232.666 75.9335 233.55 79.767 235.172 82.7159C236.794 85.6648 238.858 87.1392 241.217 87.1392C243.282 87.1392 245.493 86.2545 247.557 84.3378C249.622 82.421 251.686 80.0619 253.603 77.113C255.519 74.1642 257.141 71.0679 258.616 67.8241C260.09 64.5803 261.27 61.484 262.154 58.6826C263.039 55.8812 263.481 53.5221 263.481 51.9002Z" fill="white"/>
<path d="M335.876 95.8383C335.876 92.4471 335.876 89.3508 335.876 86.5494C335.876 83.8954 335.876 80.9465 335.876 77.9977C335.876 74.9013 335.876 72.0999 335.876 69.4459C335.876 66.7919 335.876 64.5803 335.876 62.9584C335.876 57.9453 335.434 54.1118 334.549 51.3104C333.665 48.5089 332.338 46.7396 330.568 45.5601C328.799 44.528 326.587 43.9382 323.934 43.9382C321.132 43.9382 318.331 44.8229 315.677 46.4447C313.023 48.2141 310.811 50.2783 308.747 52.9323C306.83 55.5862 305.356 58.2402 304.471 60.8942V95.5434H293.413C293.413 92.0048 293.413 88.761 293.413 85.9596C293.413 83.1582 293.413 80.0619 293.413 76.6707C293.413 73.2795 293.413 70.0357 293.413 66.9394C293.413 63.6956 293.413 61.0416 293.413 58.6826C293.413 52.7848 293.118 47.7717 292.381 43.7908C291.643 39.8098 291.054 36.566 290.316 34.5018H301.08C301.375 35.3865 301.67 36.566 301.964 38.0405C302.259 39.5149 302.554 40.9893 302.849 42.4638C303.144 43.9382 303.291 45.2652 303.439 46.1499C307.272 41.5791 311.106 38.3353 314.939 36.2711C318.773 34.2069 322.901 33.3223 327.03 33.3223C333.37 33.3223 338.236 35.3865 341.627 39.5149C345.018 43.6433 346.64 49.8359 346.64 58.0928C346.64 60.157 346.64 62.6635 346.64 65.7598C346.64 68.8561 346.64 72.0999 346.64 75.4911C346.64 78.8823 346.64 82.1261 346.64 85.2224C346.64 88.3187 346.64 91.7099 346.64 95.5434H335.876V95.8383Z" fill="white"/>
<path d="M418.297 95.8384H407.829C407.239 94.5114 406.797 92.7421 406.355 90.2355C405.912 87.729 405.617 85.2224 405.47 82.5685C405.322 79.9145 405.175 77.7028 405.175 76.0809V71.3627C403.553 75.4912 401.636 79.4721 399.13 83.6006C396.623 87.5815 393.822 90.9727 390.578 93.4793C387.334 96.1333 383.648 97.4602 379.372 97.4602C374.359 97.4602 370.083 95.2486 366.692 90.8253C363.301 86.402 361.532 79.9145 361.532 71.5102C361.532 66.792 362.122 62.0738 363.449 57.6505C364.776 53.2272 366.692 49.0988 369.346 45.5601C372 42.0215 375.391 39.0726 379.372 37.0084C383.353 34.9442 388.219 33.7646 393.822 33.7646C397.655 33.7646 401.342 34.0595 404.733 34.5019C408.124 34.9442 411.368 35.6814 414.464 36.4186V64.2855C414.464 71.8051 414.759 78.1451 415.496 83.3057C416.086 88.3187 417.118 92.4472 418.297 95.8384ZM403.258 51.9002V44.2331C402.226 43.9382 401.047 43.7908 399.572 43.4959C398.098 43.201 395.886 43.201 392.79 43.201C387.629 43.201 383.501 44.528 380.552 47.182C377.603 49.836 375.539 53.3746 374.212 57.6505C373.032 61.9264 372.443 66.4971 372.443 71.3627C372.443 75.9335 373.327 79.767 374.949 82.7159C376.571 85.6648 378.635 87.1392 380.994 87.1392C383.059 87.1392 385.27 86.2545 387.334 84.3378C389.399 82.421 391.463 80.0619 393.38 77.113C395.296 74.1642 396.918 71.0679 398.393 67.8241C399.867 64.5803 401.047 61.484 401.931 58.6826C402.816 55.8812 403.258 53.5221 403.258 51.9002Z" fill="white"/>
</svg>
