<svg width="26" height="22" viewBox="0 0 26 22" fill="none" xmlns="http://www.w3.org/2000/svg">
<path d="M8.06476 14.6669H8.0659C8.06686 14.6669 8.06781 14.6667 8.06877 14.6667H21.3644C21.6918 14.6667 21.9796 14.4495 22.0695 14.1348L25.0028 3.86814C25.0661 3.64681 25.0218 3.40885 24.8833 3.22514C24.7447 3.04142 24.5279 2.93333 24.2978 2.93333H6.37351L5.84929 0.574253C5.77462 0.238715 5.47708 0 5.13333 0H0.733333C0.328281 0 0 0.328281 0 0.733333C0 1.13839 0.328281 1.46667 0.733333 1.46667H4.54514C4.63795 1.8847 7.05375 12.756 7.19278 13.3814C6.41342 13.7202 5.86667 14.4973 5.86667 15.4C5.86667 16.6131 6.85361 17.6 8.06667 17.6H21.3644C21.7695 17.6 22.0978 17.2717 22.0978 16.8667C22.0978 16.4616 21.7695 16.1333 21.3644 16.1333H8.06667C7.66238 16.1333 7.33333 15.8043 7.33333 15.4C7.33333 14.9963 7.66123 14.6678 8.06476 14.6669ZM23.3255 4.4L20.8112 13.2H8.65486L6.69931 4.4H23.3255Z" fill="#2E3591"/>
<path d="M7.3335 19.8001C7.3335 21.0132 8.32044 22.0001 9.5335 22.0001C10.7466 22.0001 11.7335 21.0132 11.7335 19.8001C11.7335 18.587 10.7466 17.6001 9.5335 17.6001C8.32044 17.6001 7.3335 18.587 7.3335 19.8001ZM9.5335 19.0668C9.93778 19.0668 10.2668 19.3958 10.2668 19.8001C10.2668 20.2044 9.93778 20.5334 9.5335 20.5334C9.12921 20.5334 8.80016 20.2044 8.80016 19.8001C8.80016 19.3958 9.12921 19.0668 9.5335 19.0668Z" fill="#2E3591"/>
<path d="M17.6978 19.8001C17.6978 21.0132 18.6847 22.0001 19.8978 22.0001C21.1108 22.0001 22.0978 21.0132 22.0978 19.8001C22.0978 18.587 21.1108 17.6001 19.8978 17.6001C18.6847 17.6001 17.6978 18.587 17.6978 19.8001ZM19.8978 19.0668C20.302 19.0668 20.6311 19.3958 20.6311 19.8001C20.6311 20.2044 20.302 20.5334 19.8978 20.5334C19.4935 20.5334 19.1644 20.2044 19.1644 19.8001C19.1644 19.3958 19.4935 19.0668 19.8978 19.0668Z" fill="#2E3591"/>
</svg>
