<svg width="19" height="23" viewBox="0 0 19 23" fill="none" xmlns="http://www.w3.org/2000/svg">
<path d="M18.9946 5.26972L13.2497 0H1.59097C1.07924 0 0.664062 0.380517 0.664062 0.849527V15.9242H18.9946V5.26972Z" fill="#EFF3F5"/>
<path d="M13.25 4.42019C13.25 4.8892 13.6652 5.26972 14.1769 5.26972H18.9997L13.25 0V4.42019Z" fill="#DBDFE0"/>
<path d="M0.669922 15.9197V21.6275C0.669922 22.0965 1.0851 22.477 1.59683 22.477H18.0736C18.5853 22.477 19.0005 22.0965 19.0005 21.6275V15.9197H0.669922Z" fill="#F1786B"/>
<path d="M5.1315 14.9552C4.83702 14.9552 4.55218 14.8534 4.29149 14.6543C3.85218 14.3181 3.81838 13.9464 3.86183 13.6942C4.07425 12.5571 6.38186 11.5173 7.72395 11.004C8.45292 9.33151 9.08534 7.36255 9.47638 5.88473C8.6943 4.34939 8.41913 3.26536 8.66051 2.65033C8.7812 2.34504 9.02741 2.14593 9.375 2.07513L9.42328 2.06628L9.47156 2.07071C9.51018 2.07513 9.85294 2.1238 10.1329 2.46892C10.495 2.92024 10.5771 3.6503 10.3743 4.64141C10.3164 4.92459 10.2198 5.33165 10.0943 5.81836C10.8088 7.18114 11.813 8.68551 12.6337 9.72972C13.3192 9.64123 13.9709 9.61026 14.5213 9.66335C15.5496 9.7607 15.7668 10.1722 15.8054 10.4111C15.8634 10.7607 15.5834 11.1235 15.1054 11.3093C14.444 11.5659 13.3626 11.4996 12.484 10.4554C12.4454 10.4111 12.4068 10.3624 12.3681 10.3138C11.2385 10.4863 9.92535 10.8138 8.59292 11.2695C8.45292 11.3182 8.31775 11.3668 8.18257 11.4155C7.2798 13.442 6.39635 14.6057 5.55151 14.8844C5.41633 14.9331 5.2715 14.9552 5.1315 14.9552ZM7.4005 11.7208C5.48392 12.5128 4.53287 13.296 4.44598 13.7871C4.42667 13.8933 4.42667 14.057 4.67288 14.2428C4.89978 14.4154 5.11702 14.4596 5.3584 14.38C6.02944 14.1588 6.74394 13.0969 7.4005 11.7208ZM13.0488 10.2297C13.7006 10.9332 14.4344 10.9907 14.8785 10.8138C15.1102 10.7253 15.2406 10.5748 15.2261 10.4908C15.2116 10.4023 14.9944 10.2518 14.4633 10.2032C14.0675 10.1678 13.5895 10.1766 13.0488 10.2297ZM9.88191 6.62807C9.58742 7.66785 9.18672 8.92002 8.71844 10.1324C8.63637 10.3403 8.55913 10.5394 8.47706 10.7341C9.52466 10.3801 10.7895 10.035 11.9916 9.82707C11.3447 8.98196 10.5481 7.80944 9.88191 6.62807ZM9.44742 2.62379C9.33638 2.65918 9.26397 2.72555 9.22052 2.84059C9.05155 3.26536 9.27362 4.06621 9.70328 5.01308C9.7419 4.84495 9.7757 4.69008 9.80466 4.5485C10.0267 3.44677 9.81432 2.97333 9.66466 2.79192C9.58259 2.69016 9.49569 2.64148 9.44742 2.62379Z" fill="#F1786B"/>
<path d="M14.1976 18.8578H13.092V17.8268H14.1976C14.4052 17.8268 14.5741 17.672 14.5741 17.4817C14.5741 17.2915 14.4052 17.1366 14.1976 17.1366H12.7203C12.5127 17.1366 12.3438 17.2915 12.3438 17.4817V20.9152C12.3438 21.1055 12.5127 21.2603 12.7203 21.2603C12.9279 21.2603 13.0969 21.1055 13.0969 20.9152V19.5436H14.2024C14.41 19.5436 14.5789 19.3887 14.5789 19.1985C14.5741 19.0082 14.4052 18.8578 14.1976 18.8578Z" fill="#EFF3F5"/>
<path d="M6.23112 17.141H5.46835C5.26076 17.141 5.0918 17.2959 5.0918 17.4861V20.9196C5.0918 21.1099 5.26076 21.2647 5.46835 21.2647C5.67594 21.2647 5.84491 21.1099 5.84491 20.9196V19.548H6.23112C6.95527 19.548 7.54424 19.0082 7.54424 18.3445C7.54424 17.6808 6.95527 17.141 6.23112 17.141ZM6.23112 18.8577H5.84491V17.8268H6.23112C6.54009 17.8268 6.79113 18.0569 6.79113 18.3401C6.79113 18.6232 6.54009 18.8577 6.23112 18.8577Z" fill="#EFF3F5"/>
<path d="M9.46491 17.141H8.48007C8.27248 17.141 8.10352 17.2959 8.10352 17.4861V20.9196C8.10352 21.1099 8.27248 21.2647 8.48007 21.2647H9.46491C10.7056 21.2647 11.7146 20.34 11.7146 19.2029C11.7146 18.0613 10.7056 17.141 9.46491 17.141ZM9.46491 20.5701H8.85663V17.8224H9.46491C10.2904 17.8224 10.9615 18.4374 10.9615 19.194C10.9663 19.955 10.2904 20.5701 9.46491 20.5701Z" fill="#EFF3F5"/>
</svg>
