<svg width="32" height="32" viewBox="0 0 32 32" fill="none" xmlns="http://www.w3.org/2000/svg">
<path d="M29.125 22.5H24C23.4825 22.5 23.0625 22.92 23.0625 23.4375V28.25H30.0625V23.4375C30.0625 22.92 29.6425 22.5 29.125 22.5Z" fill="white"/>
<path d="M8 18.1011H2.875C2.3575 18.1011 1.9375 18.5211 1.9375 19.0386V28.2498H8.9375V19.0386C8.9375 18.5211 8.5175 18.1011 8 18.1011Z" fill="white"/>
<path d="M18.5625 11.3125H13.4375C12.92 11.3125 12.5 11.7325 12.5 12.25V28.25H19.5V12.25C19.5 11.7325 19.08 11.3125 18.5625 11.3125Z" fill="white"/>
<path d="M31.0625 30.125H0.9375C0.42 30.125 0 30.545 0 31.0625C0 31.58 0.42 32 0.9375 32H31.0625C31.58 32 32 31.58 32 31.0625C32 30.545 31.58 30.125 31.0625 30.125Z" fill="white"/>
<path d="M12.6069 9.375H19.3944C19.8769 9.375 20.2507 8.95437 20.1976 8.47437C20.1963 8.46187 20.1951 8.44937 20.1932 8.4375C20.0763 7.3825 19.5713 6.445 18.8238 5.77125C18.0763 5.0975 17.0863 4.6875 16.0007 4.6875H16.0001C13.8157 4.68812 12.0194 6.3475 11.8032 8.475C11.8032 8.4775 11.8026 8.48 11.8026 8.4825C11.7482 8.95875 12.1269 9.375 12.6069 9.375Z" fill="white"/>
<path d="M16 4.6875C17.2944 4.6875 18.3438 3.63817 18.3438 2.34375C18.3438 1.04933 17.2944 0 16 0C14.7056 0 13.6562 1.04933 13.6562 2.34375C13.6562 3.63817 14.7056 4.6875 16 4.6875Z" fill="white"/>
<path d="M2.04444 16.2266H8.83194C9.31444 16.2266 9.68819 15.8059 9.63507 15.3259C9.63382 15.3134 9.63257 15.3009 9.63069 15.2891C9.51382 14.2341 9.00882 13.2966 8.26132 12.6228C7.51382 11.9491 6.52382 11.5391 5.43819 11.5391H5.43757C3.25319 11.5397 1.45694 13.1991 1.24069 15.3266C1.24069 15.3291 1.24007 15.3316 1.24007 15.3341C1.18569 15.8103 1.56444 16.2266 2.04444 16.2266Z" fill="white"/>
<path d="M5.4375 11.5391C6.73192 11.5391 7.78125 10.4897 7.78125 9.19531C7.78125 7.90089 6.73192 6.85156 5.4375 6.85156C4.14308 6.85156 3.09375 7.90089 3.09375 9.19531C3.09375 10.4897 4.14308 11.5391 5.4375 11.5391Z" fill="white"/>
<path d="M23.1694 20.6016H29.9569C30.4394 20.6016 30.8132 20.1809 30.7601 19.7009C30.7588 19.6884 30.7576 19.6759 30.7557 19.6641C30.6388 18.6091 30.1338 17.6716 29.3863 16.9978C28.6388 16.3241 27.6488 15.9141 26.5632 15.9141H26.5626C24.3782 15.9147 22.5819 17.5741 22.3657 19.7016C22.3657 19.7041 22.3651 19.7066 22.3651 19.7091C22.3107 20.1853 22.6894 20.6016 23.1694 20.6016Z" fill="white"/>
<path d="M26.5625 15.9141C27.8569 15.9141 28.9062 14.8647 28.9062 13.5703C28.9062 12.2759 27.8569 11.2266 26.5625 11.2266C25.2681 11.2266 24.2188 12.2759 24.2188 13.5703C24.2188 14.8647 25.2681 15.9141 26.5625 15.9141Z" fill="white"/>
</svg>
