<svg width="50" height="50" viewBox="0 0 50 50" fill="none" xmlns="http://www.w3.org/2000/svg">
<rect width="50" height="50" rx="5" fill="#2E3591"/>
<path d="M41 25C41 33.8368 33.8368 41 25 41C16.1632 41 9 33.8368 9 25C9 16.1632 16.1632 9 25 9C33.8368 9 41 16.1632 41 25Z" fill="white"/>
<path d="M33.2054 30.1765L32.839 32.4348C32.8015 32.5965 32.7123 32.7403 32.5859 32.8429C32.4595 32.9455 32.3033 33.0009 32.1427 33H17.8573C17.6967 33.0009 17.5405 32.9455 17.4141 32.8429C17.2877 32.7403 17.1985 32.5965 17.161 32.4348L16.7946 30.1765H33.2054ZM24.9736 17.0006C25.2054 16.9908 25.4232 17.0971 25.5636 17.2825L30.1559 23.3107L33.889 20.7695C34.0085 20.6886 34.1484 20.6461 34.2911 20.6473C34.4339 20.6484 34.5731 20.6933 34.6913 20.7761C34.9326 20.9465 35.0467 21.2495 34.9822 21.5408L33.5349 28.2942H16.4646L15.0182 21.5413C14.9546 21.2589 15.0605 20.9644 15.2882 20.7912C15.4003 20.7066 15.5335 20.6572 15.672 20.6488C15.8105 20.6405 15.9483 20.6736 16.0691 20.7441L20.4896 23.3239L24.405 17.3263C24.4683 17.2295 24.5528 17.1495 24.6516 17.0928C24.7504 17.0361 24.8608 17.0044 24.9736 17.0002V17.0006Z" fill="#2E3591"/>
</svg>
