<!-- <svg xmlns="http://www.w3.org/2000/svg" version="1.1" xmlns:xlink="http://www.w3.org/1999/xlink" xmlns:svgjs="http://svgjs.com/svgjs" width="512" height="512" x="0" y="0" viewBox="0 0 32 32" style="enable-background:new 0 0 512 512" xml:space="preserve" class=""><g><path d="M15 14v16H3l-.031-16zm2 0h12v16H17zM2 6h11.001l-3.25-2.438L11 2l5 3.751L21 2l1.249 1.562L18.999 6H30v6H2z" fill="#000000" data-original="#000000"></path></g></svg> -->


<svg xmlns="http://www.w3.org/2000/svg" version="1.1" xmlnsXlink="http://www.w3.org/1999/xlink" xmlnsSvgjs="http://svgjs.com/svgjs" width="512" height="512" x="0" y="0" viewBox="0 0 32 32" style="enable-background:new 0 0 512 512" xmlSpace="preserve" class=""><g><path d="M15 14v16H3l-.031-16zm2 0h12v16H17zM2 6h11.001l-3.25-2.438L11 2l5 3.751L21 2l1.249 1.562L18.999 6H30v6H2z" fill="#000000" data-original="#000000"></path></g></svg>
