<svg width="62" height="63" viewBox="0 0 62 63" fill="none" xmlns="http://www.w3.org/2000/svg">
<path d="M60.1836 58.3688H58.246V27.4899C58.246 26.6906 57.7374 26.0003 57.0107 25.7823L40.082 20.1152V62.0016H60.1836C61.2009 62.0016 62 61.2022 62 60.1852C61.9999 59.1679 61.2008 58.3688 60.1836 58.3688ZM54.6132 58.3688H50.9804V51.1032H47.3476V58.3688H43.7148V49.2867C43.7148 48.2694 44.514 47.4703 45.5313 47.4703H52.7969C53.8142 47.4703 54.6133 48.2694 54.6133 49.2867V58.3688H54.6132ZM52.7969 43.8376H45.5313C44.514 43.8376 43.7148 43.0382 43.7148 42.0211C43.7148 41.0038 44.514 40.2047 45.5313 40.2047H52.7969C53.8142 40.2047 54.6133 41.0038 54.6133 42.0211C54.6132 43.0382 53.8141 43.8376 52.7969 43.8376ZM52.7969 36.572H45.5313C44.514 36.572 43.7148 35.7726 43.7148 34.7555C43.7148 33.7382 44.514 32.9391 45.5313 32.9391H52.7969C53.8142 32.9391 54.6133 33.7382 54.6133 34.7555C54.6132 35.7726 53.8141 36.572 52.7969 36.572Z" fill="#2E3591"/>
<path d="M35.2867 11.0092L6.22428 0.110836C4.98921 -0.325115 3.75402 0.583115 3.75402 1.81843V58.369H1.81646C0.799121 58.369 0 59.1682 0 60.1855C0 61.2026 0.799121 62.0018 1.81646 62.0018H36.4492C36.4492 50.2065 36.4492 42.3734 36.4492 12.7168C36.4492 11.9538 35.9769 11.2635 35.2867 11.0092ZM18.2851 58.369H11.0195V49.287C11.0195 48.2697 11.8186 47.4705 12.8359 47.4705H18.2852V58.369H18.2851ZM16.4687 43.8379H12.8359C11.8186 43.8379 11.0195 43.0385 11.0195 42.0214C11.0195 41.0041 11.8186 40.2049 12.8359 40.2049H16.4687C17.4861 40.2049 18.2852 41.0041 18.2852 42.0214C18.2851 43.0385 17.4861 43.8379 16.4687 43.8379ZM16.4687 36.5723H12.8359C11.8186 36.5723 11.0195 35.7729 11.0195 34.7558C11.0195 33.7385 11.8186 32.9393 12.8359 32.9393H16.4687C17.4861 32.9393 18.2852 33.7385 18.2852 34.7558C18.2851 35.7729 17.4861 36.5723 16.4687 36.5723ZM16.4687 29.3067H12.8359C11.8186 29.3067 11.0195 28.5073 11.0195 27.4902C11.0195 26.4729 11.8186 25.6737 12.8359 25.6737H16.4687C17.4861 25.6737 18.2852 26.4729 18.2852 27.4902C18.2851 28.5073 17.4861 29.3067 16.4687 29.3067ZM16.4687 22.0411H12.8359C11.8186 22.0411 11.0195 21.2417 11.0195 20.2246C11.0195 19.2073 11.8186 18.4082 12.8359 18.4082H16.4687C17.4861 18.4082 18.2852 19.2073 18.2852 20.2246C18.2851 21.2417 17.4861 22.0411 16.4687 22.0411ZM29.1836 58.369H21.918V47.4707H27.3673C28.3846 47.4707 29.1837 48.2698 29.1837 49.2871V58.369H29.1836ZM27.3671 43.8379H23.7343C22.717 43.8379 21.9179 43.0385 21.9179 42.0214C21.9179 41.0041 22.717 40.2049 23.7343 40.2049H27.3671C28.3845 40.2049 29.1836 41.0041 29.1836 42.0214C29.1836 43.0385 28.3845 43.8379 27.3671 43.8379ZM27.3671 36.5723H23.7343C22.717 36.5723 21.9179 35.7729 21.9179 34.7558C21.9179 33.7385 22.717 32.9393 23.7343 32.9393H27.3671C28.3845 32.9393 29.1836 33.7385 29.1836 34.7558C29.1836 35.7729 28.3845 36.5723 27.3671 36.5723ZM27.3671 29.3067H23.7343C22.717 29.3067 21.9179 28.5073 21.9179 27.4902C21.9179 26.4729 22.717 25.6737 23.7343 25.6737H27.3671C28.3845 25.6737 29.1836 26.4729 29.1836 27.4902C29.1836 28.5073 28.3845 29.3067 27.3671 29.3067ZM27.3671 22.0411H23.7343C22.717 22.0411 21.9179 21.2417 21.9179 20.2246C21.9179 19.2073 22.717 18.4082 23.7343 18.4082H27.3671C28.3845 18.4082 29.1836 19.2073 29.1836 20.2246C29.1836 21.2417 28.3845 22.0411 27.3671 22.0411Z" fill="#2E3591"/>
</svg>
