<svg width="120" height="120" viewBox="0 0 120 120" fill="none" xmlns="http://www.w3.org/2000/svg">
<rect width="120" height="120" rx="5" fill="#F1F2F6"/>
<path d="M89.1836 87.3688H87.246V56.4899C87.246 55.6906 86.7374 55.0003 86.0107 54.7823L69.082 49.1152V91.0016H89.1836C90.2009 91.0016 91 90.2022 91 89.1852C90.9999 88.1679 90.2008 87.3688 89.1836 87.3688ZM83.6132 87.3688H79.9804V80.1032H76.3476V87.3688H72.7148V78.2867C72.7148 77.2694 73.514 76.4703 74.5313 76.4703H81.7969C82.8142 76.4703 83.6133 77.2694 83.6133 78.2867V87.3688H83.6132ZM81.7969 72.8376H74.5313C73.514 72.8376 72.7148 72.0382 72.7148 71.0211C72.7148 70.0038 73.514 69.2047 74.5313 69.2047H81.7969C82.8142 69.2047 83.6133 70.0038 83.6133 71.0211C83.6132 72.0382 82.8141 72.8376 81.7969 72.8376ZM81.7969 65.572H74.5313C73.514 65.572 72.7148 64.7726 72.7148 63.7555C72.7148 62.7382 73.514 61.9391 74.5313 61.9391H81.7969C82.8142 61.9391 83.6133 62.7382 83.6133 63.7555C83.6132 64.7726 82.8141 65.572 81.7969 65.572Z" fill="#2E3591"/>
<path d="M64.2867 40.0092L35.2243 29.1108C33.9892 28.6749 32.754 29.5831 32.754 30.8184V87.369H30.8165C29.7991 87.369 29 88.1682 29 89.1855C29 90.2026 29.7991 91.0018 30.8165 91.0018H65.4492C65.4492 79.2065 65.4492 71.3734 65.4492 41.7168C65.4492 40.9538 64.9769 40.2635 64.2867 40.0092ZM47.2851 87.369H40.0195V78.287C40.0195 77.2697 40.8186 76.4705 41.8359 76.4705H47.2852V87.369H47.2851ZM45.4687 72.8379H41.8359C40.8186 72.8379 40.0195 72.0385 40.0195 71.0214C40.0195 70.0041 40.8186 69.2049 41.8359 69.2049H45.4687C46.4861 69.2049 47.2852 70.0041 47.2852 71.0214C47.2851 72.0385 46.4861 72.8379 45.4687 72.8379ZM45.4687 65.5723H41.8359C40.8186 65.5723 40.0195 64.7729 40.0195 63.7558C40.0195 62.7385 40.8186 61.9393 41.8359 61.9393H45.4687C46.4861 61.9393 47.2852 62.7385 47.2852 63.7558C47.2851 64.7729 46.4861 65.5723 45.4687 65.5723ZM45.4687 58.3067H41.8359C40.8186 58.3067 40.0195 57.5073 40.0195 56.4902C40.0195 55.4729 40.8186 54.6737 41.8359 54.6737H45.4687C46.4861 54.6737 47.2852 55.4729 47.2852 56.4902C47.2851 57.5073 46.4861 58.3067 45.4687 58.3067ZM45.4687 51.0411H41.8359C40.8186 51.0411 40.0195 50.2417 40.0195 49.2246C40.0195 48.2073 40.8186 47.4082 41.8359 47.4082H45.4687C46.4861 47.4082 47.2852 48.2073 47.2852 49.2246C47.2851 50.2417 46.4861 51.0411 45.4687 51.0411ZM58.1836 87.369H50.918V76.4707H56.3673C57.3846 76.4707 58.1837 77.2698 58.1837 78.2871V87.369H58.1836ZM56.3671 72.8379H52.7343C51.717 72.8379 50.9179 72.0385 50.9179 71.0214C50.9179 70.0041 51.717 69.2049 52.7343 69.2049H56.3671C57.3845 69.2049 58.1836 70.0041 58.1836 71.0214C58.1836 72.0385 57.3845 72.8379 56.3671 72.8379ZM56.3671 65.5723H52.7343C51.717 65.5723 50.9179 64.7729 50.9179 63.7558C50.9179 62.7385 51.717 61.9393 52.7343 61.9393H56.3671C57.3845 61.9393 58.1836 62.7385 58.1836 63.7558C58.1836 64.7729 57.3845 65.5723 56.3671 65.5723ZM56.3671 58.3067H52.7343C51.717 58.3067 50.9179 57.5073 50.9179 56.4902C50.9179 55.4729 51.717 54.6737 52.7343 54.6737H56.3671C57.3845 54.6737 58.1836 55.4729 58.1836 56.4902C58.1836 57.5073 57.3845 58.3067 56.3671 58.3067ZM56.3671 51.0411H52.7343C51.717 51.0411 50.9179 50.2417 50.9179 49.2246C50.9179 48.2073 51.717 47.4082 52.7343 47.4082H56.3671C57.3845 47.4082 58.1836 48.2073 58.1836 49.2246C58.1836 50.2417 57.3845 51.0411 56.3671 51.0411Z" fill="#2E3591"/>
</svg>
