<svg width="13" height="15" viewBox="0 0 13 15" fill="none" xmlns="http://www.w3.org/2000/svg">
<path d="M8.53708 3.78488C8.53708 3.92478 8.52754 4.06468 8.51005 4.20299C8.518 4.14735 8.52595 4.09012 8.53231 4.03448C8.49415 4.3111 8.42102 4.57977 8.3145 4.83732C8.33517 4.78645 8.35743 4.73557 8.3781 4.6847C8.27158 4.93589 8.13486 5.17118 7.96793 5.38739L8.06809 5.25862C7.90275 5.47165 7.71038 5.66402 7.49735 5.82935L7.62612 5.7292C7.40991 5.89454 7.17462 6.03285 6.92343 6.13936C6.97431 6.1187 7.02518 6.09644 7.07606 6.07577C6.81851 6.18229 6.54983 6.25542 6.27321 6.29357C6.32885 6.28563 6.38608 6.27768 6.44173 6.27132C6.16351 6.30788 5.88371 6.30788 5.60549 6.27132C5.66114 6.27927 5.71837 6.28722 5.77401 6.29357C5.49739 6.25542 5.22871 6.18229 4.97117 6.07577C5.02204 6.09644 5.07291 6.1187 5.12379 6.13936C4.8726 6.03285 4.63731 5.89613 4.4211 5.7292L4.54987 5.82935C4.33684 5.66402 4.14447 5.47165 3.97913 5.25862L4.07929 5.38739C3.91395 5.17118 3.77564 4.93589 3.66912 4.6847C3.68979 4.73557 3.71205 4.78645 3.73272 4.83732C3.6262 4.57977 3.55307 4.3111 3.51491 4.03448C3.52286 4.09012 3.53081 4.14735 3.53717 4.20299C3.50061 3.92478 3.50061 3.64498 3.53717 3.36676C3.52922 3.4224 3.52127 3.47964 3.51491 3.53528C3.55307 3.25866 3.6262 2.98998 3.73272 2.73243C3.71205 2.78331 3.68979 2.83418 3.66912 2.88505C3.77564 2.63387 3.91236 2.39858 4.07929 2.18236L3.97913 2.31114C4.14447 2.0981 4.33684 1.90574 4.54987 1.7404L4.4211 1.84056C4.63731 1.67522 4.8726 1.53691 5.12379 1.43039C5.07291 1.45106 5.02204 1.47331 4.97117 1.49398C5.22871 1.38747 5.49739 1.31434 5.77401 1.27618C5.71837 1.28413 5.66114 1.29208 5.60549 1.29844C5.88371 1.26187 6.16351 1.26187 6.44173 1.29844C6.38608 1.29049 6.32885 1.28254 6.27321 1.27618C6.54983 1.31434 6.81851 1.38747 7.07606 1.49398C7.02518 1.47331 6.97431 1.45106 6.92343 1.43039C7.17462 1.53691 7.40991 1.67363 7.62612 1.84056L7.49735 1.7404C7.71038 1.90574 7.90275 2.0981 8.06809 2.31114L7.96793 2.18236C8.13327 2.39858 8.27158 2.63387 8.3781 2.88505C8.35743 2.83418 8.33517 2.78331 8.3145 2.73243C8.42102 2.98998 8.49415 3.25866 8.53231 3.53528C8.52436 3.47964 8.51641 3.4224 8.51005 3.36676C8.52754 3.50507 8.53549 3.64498 8.53708 3.78488C8.53867 4.11714 8.82801 4.43669 9.17299 4.42079C9.51639 4.4049 9.8105 4.14099 9.80891 3.78488C9.80573 3.02337 9.5768 2.24437 9.12848 1.62435C9.00766 1.45742 8.87888 1.29367 8.7358 1.14582C8.59113 0.996376 8.43215 0.867603 8.26681 0.742009C7.96634 0.513078 7.63089 0.34456 7.27478 0.214197C5.83919 -0.312025 4.10791 0.156964 3.13654 1.33977C3.003 1.50193 2.87582 1.67045 2.76771 1.85169C2.6596 2.03133 2.57534 2.22211 2.49744 2.41606C2.35118 2.77536 2.27646 3.15691 2.24626 3.54323C2.18743 4.29997 2.38457 5.0901 2.77884 5.73874C3.1588 6.36511 3.73272 6.90247 4.40361 7.20612C4.60074 7.29515 4.80265 7.37781 5.0125 7.43664C5.22076 7.49387 5.43221 7.52567 5.64683 7.5511C6.03792 7.59721 6.43696 7.56541 6.82328 7.48751C8.29066 7.18863 9.51957 5.92474 9.74691 4.44146C9.7803 4.22525 9.80573 4.00904 9.80573 3.78965C9.80732 3.45738 9.51162 3.13783 9.16982 3.15373C8.82642 3.16486 8.53708 3.42876 8.53708 3.78488ZM10.6467 13.7259H2.4895C2.12861 13.7259 1.76773 13.729 1.40684 13.7259C1.3671 13.7259 1.32735 13.7227 1.2892 13.7179C1.34484 13.7259 1.40208 13.7338 1.45772 13.7402C1.39413 13.7306 1.33371 13.7132 1.27489 13.6893C1.32577 13.71 1.37664 13.7322 1.42751 13.7529C1.36392 13.7259 1.3051 13.6909 1.24945 13.648L1.37823 13.7481C1.33053 13.7084 1.28602 13.6655 1.24787 13.6178L1.34802 13.7465C1.3051 13.6909 1.27171 13.6321 1.2431 13.5685C1.26376 13.6194 1.28602 13.6702 1.30669 13.7211C1.28284 13.6623 1.26694 13.6003 1.25581 13.5383C1.26376 13.5939 1.27171 13.6511 1.27807 13.7068C1.25263 13.5144 1.27012 13.3109 1.27012 13.117V12.4365C1.27012 12.2664 1.27966 12.0979 1.30192 11.9294C1.29397 11.985 1.28602 12.0423 1.27966 12.0979C1.32418 11.772 1.41002 11.4525 1.5388 11.1488C1.51813 11.1997 1.49587 11.2506 1.47521 11.3014C1.59921 11.0121 1.75819 10.7402 1.95055 10.4906L1.8504 10.6194C2.04276 10.373 2.26374 10.1504 2.51175 9.95805L2.38298 10.0582C2.63258 9.86584 2.90443 9.70686 3.19377 9.58286C3.1429 9.60353 3.09203 9.62578 3.04115 9.64645C3.34481 9.51927 3.66276 9.43183 3.99026 9.38732C3.93462 9.39526 3.87739 9.40321 3.82174 9.40957C4.05703 9.37937 4.29073 9.37778 4.52761 9.37778H7.43694C7.69925 9.37778 7.95998 9.37619 8.2223 9.40957C8.16665 9.40162 8.10942 9.39367 8.05378 9.38732C8.37969 9.43183 8.69924 9.51768 9.00289 9.64645C8.95201 9.62578 8.90114 9.60353 8.85027 9.58286C9.13961 9.70686 9.41146 9.86584 9.66106 10.0582L9.53229 9.95805C9.77871 10.1504 10.0013 10.3714 10.1936 10.6194L10.0935 10.4906C10.2859 10.7402 10.4448 11.0121 10.5688 11.3014C10.5482 11.2506 10.5259 11.1997 10.5052 11.1488C10.6324 11.4525 10.7199 11.7704 10.7644 12.0979C10.7564 12.0423 10.7485 11.985 10.7421 11.9294C10.7723 12.1695 10.7739 12.4079 10.7739 12.6496V13.4365C10.7739 13.5271 10.7771 13.6178 10.766 13.7068C10.7739 13.6511 10.7819 13.5939 10.7882 13.5383C10.7787 13.6019 10.7612 13.6623 10.7374 13.7211C10.758 13.6702 10.7803 13.6194 10.8009 13.5685C10.7739 13.6321 10.7389 13.6909 10.696 13.7465L10.7962 13.6178C10.7564 13.6655 10.7135 13.71 10.6658 13.7481L10.7946 13.648C10.7389 13.6909 10.6801 13.7243 10.6165 13.7529C10.6674 13.7322 10.7183 13.71 10.7691 13.6893C10.7103 13.7132 10.6483 13.729 10.5863 13.7402C10.642 13.7322 10.6992 13.7243 10.7548 13.7179C10.7199 13.7227 10.6833 13.7243 10.6467 13.7259C10.483 13.7275 10.3145 13.7958 10.1968 13.9119C10.0871 14.0216 10.0029 14.2028 10.0108 14.3618C10.0267 14.702 10.2906 15.0025 10.6467 14.9977C11.2652 14.9882 11.8089 14.5844 11.9901 13.9914C12.0617 13.7561 12.0458 13.5033 12.0458 13.2616C12.0458 12.7084 12.0632 12.1599 11.9679 11.6114C11.828 10.8086 11.4241 10.0534 10.8709 9.46045C10.3176 8.86745 9.57362 8.43185 8.78667 8.23789C8.33517 8.12661 7.88049 8.10912 7.41945 8.10912H4.59915C4.12698 8.10912 3.65799 8.13138 3.19854 8.25379C2.41795 8.46047 1.68347 8.90084 1.14135 9.4986C0.594459 10.1011 0.1986 10.8579 0.0698266 11.6655C-0.0160223 12.2076 0.00146538 12.7513 0.00146538 13.2982C0.00146538 13.5494 -0.0128427 13.8117 0.0777756 14.0518C0.19542 14.3602 0.383016 14.6034 0.658051 14.7863C0.872673 14.9278 1.14453 14.9961 1.3989 14.9993C1.5229 15.0009 1.6469 14.9993 1.77091 14.9993H10.6483C10.9806 14.9993 11.3001 14.7068 11.2842 14.3634C11.2683 14.0168 11.0044 13.7259 10.6467 13.7259Z" fill="#2E3591"/>
</svg>
