<svg width="17" height="20" viewBox="0 0 17 20" fill="none" xmlns="http://www.w3.org/2000/svg">
<path d="M8.21661 9.63409C9.54016 9.63409 10.6862 9.15939 11.6227 8.22281C12.5591 7.28638 13.0338 6.14059 13.0338 4.81689C13.0338 3.49365 12.5591 2.34772 11.6225 1.41098C10.6859 0.474701 9.54001 0 8.21661 0C6.89291 0 5.74713 0.474701 4.8107 1.41113C3.87427 2.34756 3.39941 3.4935 3.39941 4.81689C3.39941 6.14059 3.87427 7.28653 4.81085 8.22296C5.74744 9.15924 6.89337 9.63409 8.21661 9.63409Z" fill="#2E3591"/>
<path d="M16.6456 15.379C16.6186 14.9893 16.564 14.5642 16.4835 14.1152C16.4024 13.663 16.2978 13.2354 16.1727 12.8447C16.0435 12.4408 15.8677 12.0419 15.6504 11.6597C15.4249 11.2629 15.16 10.9175 14.8628 10.6332C14.5519 10.3358 14.1714 10.0967 13.7313 9.9223C13.2928 9.74881 12.8068 9.66092 12.2869 9.66092C12.0828 9.66092 11.8853 9.74469 11.504 9.99295C11.2693 10.146 10.9948 10.323 10.6884 10.5188C10.4264 10.6857 10.0715 10.8421 9.63314 10.9837C9.20544 11.1221 8.77118 11.1923 8.34256 11.1923C7.91394 11.1923 7.47983 11.1221 7.05167 10.9837C6.61374 10.8422 6.25883 10.6858 5.99714 10.5189C5.69364 10.325 5.41899 10.148 5.1808 9.9928C4.79994 9.74454 4.60234 9.66077 4.39818 9.66077C3.87816 9.66077 3.39232 9.74881 2.95394 9.92245C2.51418 10.0966 2.13348 10.3357 1.82235 10.6334C1.52526 10.9178 1.26022 11.2631 1.035 11.6597C0.817868 12.0419 0.642087 12.4406 0.512693 12.8448C0.387724 13.2356 0.283202 13.663 0.202026 14.1152C0.121612 14.5635 0.0669858 14.9888 0.0399779 15.3794C0.0134277 15.7621 0 16.1593 0 16.5605C0 17.6045 0.331877 18.4496 0.986324 19.073C1.63268 19.688 2.48794 20.0001 3.52797 20.0001H13.1581C14.1981 20.0001 15.053 19.6882 15.6996 19.073C16.3542 18.4501 16.686 17.6048 16.686 16.5603C16.6859 16.1573 16.6723 15.7598 16.6456 15.379Z" fill="#2E3591"/>
</svg>
