<svg width="22" height="22" viewBox="0 0 22 22" fill="none" xmlns="http://www.w3.org/2000/svg">
<path d="M2.74085 20.6667H10.9635C11.191 20.6667 11.3771 20.851 11.3771 21.0834C11.3771 21.3157 11.191 21.5 10.9635 21.5H2.74085C1.50743 21.5 0.5 20.4916 0.5 19.25V2.75003C0.5 1.50843 1.50744 0.5 2.74085 0.5H10.9635C11.1909 0.5 11.3771 0.684333 11.3771 0.916733C11.3771 1.14907 11.191 1.33338 10.9635 1.33338H2.74085C1.95887 1.33338 1.32725 1.96943 1.32725 2.75003V19.2501C1.32725 20.0306 1.9588 20.6667 2.74085 20.6667Z" fill="white" stroke="#2E3591"/>
<path d="M15.8207 5.20211L15.8212 5.20264L21.3755 10.7022C21.3757 10.7023 21.3758 10.7024 21.3759 10.7025C21.4562 10.7824 21.5001 10.8885 21.5001 10.9999C21.5001 11.1113 21.4554 11.2184 21.3758 11.2976C21.3757 11.2976 21.3757 11.2977 21.3756 11.2978L15.8212 16.7973L15.8207 16.7979C15.7411 16.8769 15.6374 16.9166 15.5317 16.9166C15.4259 16.9166 15.3198 16.8759 15.2376 16.7928C15.0766 16.6282 15.0788 16.364 15.2418 16.203L15.2421 16.2026L19.2118 12.272L20.0756 11.4167H18.86H8.22268C7.9952 11.4167 7.80908 11.2323 7.80908 11C7.80908 10.7676 7.99517 10.5833 8.22268 10.5833H18.86H20.0756L19.2118 9.72804L15.2421 5.79739L15.2417 5.797C15.078 5.63528 15.0763 5.37106 15.2376 5.20722C15.3988 5.04335 15.6602 5.04273 15.8207 5.20211Z" fill="white" stroke="#2E3591"/>
</svg>
