<svg width="179" height="175" viewBox="0 0 179 175" fill="none" xmlns="http://www.w3.org/2000/svg">
<path d="M77.8947 175C120.915 175 155.79 170.068 155.79 163.984C155.79 157.901 120.915 152.968 77.8947 152.968C34.8747 152.968 0 157.901 0 163.984C0 170.068 34.8747 175 77.8947 175Z" fill="#EBEBEB"/>
<path d="M64.5132 15.2435C63.488 15.2559 62.4733 15.0362 61.545 14.6007C60.673 14.1889 59.8915 13.608 59.2457 12.8919C57.9606 11.453 57.2436 9.59531 57.2286 7.66616C57.2245 6.6807 57.4145 5.70408 57.7877 4.792C58.1494 3.89655 58.672 3.07479 59.3293 2.36727C59.9872 1.65901 60.7795 1.08878 61.66 0.689807C62.5813 0.269104 63.5841 0.0567724 64.5968 0.0679439C65.6228 0.0545293 66.6376 0.281834 67.5598 0.731612C68.4204 1.15632 69.1906 1.74372 69.8278 2.46133C70.466 3.18136 70.9672 4.01197 71.3067 4.9122C72.0244 6.72501 72.0244 8.7432 71.3067 10.556C70.9521 11.4457 70.4366 12.2623 69.786 12.965C69.1307 13.6689 68.342 14.2355 67.4657 14.6321C66.5382 15.0493 65.5303 15.258 64.5132 15.2435ZM60.1602 7.64526C60.1583 8.28252 60.2589 8.91596 60.458 9.52133C60.6428 10.1041 60.9334 10.648 61.315 11.1256C61.6854 11.5927 62.1526 11.9742 62.6842 12.2439C63.2574 12.533 63.8923 12.6783 64.5341 12.6672C65.1825 12.6811 65.824 12.532 66.3997 12.2334C66.9346 11.9527 67.4032 11.5607 67.7741 11.0838C68.1499 10.6009 68.435 10.0537 68.6154 9.469C69.0125 8.26594 69.0125 6.96709 68.6154 5.76399C68.4241 5.18287 68.1323 4.63986 67.7532 4.15969C67.3792 3.69679 66.9106 3.31909 66.3788 3.05184C65.801 2.77315 65.1678 2.62841 64.5263 2.62841C63.8848 2.62841 63.2516 2.77315 62.6737 3.05184C62.1389 3.3282 61.6702 3.71679 61.2994 4.19105C60.93 4.67265 60.6487 5.21578 60.4685 5.79535C60.2707 6.39231 60.1667 7.01638 60.1602 7.64526Z" fill="#263238"/>
<path d="M78.9094 15.348C78.0759 15.3635 77.2483 15.2051 76.4795 14.8829C75.7915 14.5952 75.1705 14.1681 74.6556 13.6287C74.1557 13.1018 73.7634 12.4822 73.5008 11.805C72.9711 10.3951 72.9711 8.84091 73.5008 7.43101C73.7621 6.75 74.1545 6.12685 74.6556 5.59678C75.1705 5.05736 75.7915 4.63034 76.4795 4.3426C77.2483 4.02042 78.0759 3.86202 78.9094 3.87752C79.7379 3.8619 80.5604 4.02034 81.3237 4.3426C82.0078 4.63186 82.625 5.05877 83.1369 5.59678C83.637 6.12375 84.0293 6.74327 84.2923 7.42056C84.8214 8.83046 84.8214 10.3846 84.2923 11.7945C84.031 12.469 83.6445 13.0879 83.1527 13.6182C82.6398 14.1576 82.0205 14.5846 81.3342 14.8724C80.5677 15.1978 79.7419 15.3598 78.9094 15.348ZM76.0143 9.63107C76.0076 10.0869 76.0838 10.5402 76.239 10.9689C76.3754 11.3525 76.5828 11.7071 76.8504 12.014C77.0962 12.3032 77.4009 12.5366 77.7441 12.6985C78.1029 12.8606 78.4921 12.9444 78.8859 12.9444C79.2796 12.9444 79.6689 12.8606 80.0277 12.6985C80.3785 12.5391 80.6904 12.3056 80.9422 12.014C81.2098 11.7061 81.4188 11.3519 81.5589 10.9689C81.7098 10.5338 81.7841 10.0759 81.7783 9.61539C81.7825 9.16354 81.7081 8.71443 81.5589 8.28803C81.4188 7.90496 81.2098 7.55075 80.9422 7.24288C80.6904 6.95128 80.3785 6.71772 80.0277 6.55832C79.6703 6.39455 79.2816 6.31072 78.8885 6.3127C78.4924 6.30876 78.1007 6.39639 77.7441 6.56877C77.3949 6.73555 77.0838 6.97209 76.8295 7.26379C76.5619 7.57066 76.3545 7.92522 76.2181 8.30895C76.0725 8.73409 76.0035 9.18179 76.0143 9.63107Z" fill="#263238"/>
<path d="M93.2177 15.3481C92.4199 15.3671 91.6311 15.1665 90.9394 14.768C90.3 14.3923 89.775 13.8506 89.4192 13.2003V19.6332H86.5918V4.07619H89.0634V5.97836C89.4515 5.34617 89.9898 4.82007 90.6309 4.44723C91.3226 4.05991 92.1064 3.86671 92.8993 3.88807C93.6217 3.8789 94.3366 4.03437 94.9893 4.34271C95.6105 4.63794 96.1662 5.0536 96.6249 5.56552C97.0926 6.09841 97.4576 6.7132 97.7014 7.37886C97.9627 8.08461 98.0937 8.83171 98.0879 9.58413C98.0929 10.3526 97.9726 11.1168 97.7329 11.8469C97.5123 12.5139 97.1722 13.1355 96.7294 13.6811C96.313 14.1938 95.7905 14.6108 95.1983 14.9039C94.5837 15.2096 93.9045 15.362 93.2177 15.3481ZM92.2722 12.9443C92.6786 12.9464 93.0801 12.8515 93.4425 12.6673C93.795 12.4879 94.1068 12.2369 94.3573 11.9305C94.6194 11.6106 94.8209 11.2458 94.9528 10.854C95.093 10.4454 95.1635 10.0162 95.1618 9.58413C95.1643 9.14174 95.0863 8.70266 94.9321 8.28813C94.7844 7.90153 94.5647 7.54673 94.2835 7.24299C94.0106 6.94749 93.6797 6.71097 93.3123 6.54796C92.9316 6.37417 92.5177 6.28673 92.0997 6.29191C91.8202 6.29424 91.5432 6.34189 91.2795 6.433C91 6.52134 90.7354 6.65174 90.4949 6.8197C90.2568 6.98857 90.0412 7.18699 89.8521 7.41022C89.6663 7.63106 89.5204 7.88203 89.4192 8.15226V10.7651C89.6638 11.3789 90.0636 11.9189 90.5786 12.3329C91.0555 12.7258 91.6544 12.9417 92.2722 12.9443Z" fill="#263238"/>
<path d="M104.155 15.348C103.23 15.3496 102.31 15.1996 101.432 14.9038C100.602 14.6352 99.8334 14.2054 99.1699 13.6391L100.215 11.8676C100.827 12.3082 101.491 12.6732 102.191 12.9545C102.8 13.1931 103.448 13.3171 104.103 13.3204C104.566 13.3444 105.027 13.2356 105.43 13.0069C105.583 12.9103 105.708 12.7757 105.793 12.6163C105.878 12.4569 105.921 12.2782 105.916 12.0975C105.921 11.9128 105.869 11.7312 105.767 11.577C105.665 11.4228 105.518 11.3036 105.346 11.2353C104.746 10.9742 104.125 10.761 103.492 10.5978C102.77 10.4044 102.159 10.2111 101.652 10.0282C101.215 9.88334 100.803 9.67367 100.429 9.40628C100.14 9.20126 99.9081 8.92607 99.7555 8.60675C99.6053 8.26438 99.5324 7.89343 99.5407 7.51983C99.5324 6.99436 99.6452 6.47398 99.8699 5.99914C100.086 5.55101 100.4 5.15784 100.79 4.84948C101.2 4.52246 101.668 4.27441 102.169 4.11787C102.726 3.94651 103.306 3.86191 103.888 3.86704C104.681 3.86201 105.469 3.98193 106.225 4.22239C106.961 4.46946 107.64 4.86622 108.215 5.38772L107.076 7.09655C106.579 6.70971 106.027 6.39645 105.441 6.16636C104.941 5.97314 104.409 5.87222 103.873 5.86849C103.452 5.8541 103.037 5.95725 102.671 6.16636C102.512 6.26654 102.383 6.40776 102.298 6.57514C102.212 6.74252 102.173 6.92986 102.185 7.11745C102.18 7.28672 102.22 7.45431 102.3 7.60344C102.394 7.74412 102.521 7.85909 102.671 7.93788C102.882 8.05492 103.105 8.15118 103.335 8.2253C103.611 8.31415 103.951 8.41342 104.38 8.50748C105.143 8.70603 105.791 8.90467 106.334 9.10322C106.794 9.26454 107.23 9.49162 107.625 9.77735C107.946 10.0015 108.209 10.3011 108.388 10.65C108.561 11.032 108.643 11.4486 108.628 11.8676C108.647 12.3602 108.548 12.8501 108.339 13.2965C108.13 13.7429 107.817 14.1328 107.426 14.4335C106.468 15.0941 105.317 15.4159 104.155 15.348Z" fill="#263238"/>
<path d="M111.016 9.50034V0H113.842V9.50034H111.016ZM111.016 15.1389V11.9513H113.842V15.1389H111.016Z" fill="#263238"/>
<path d="M88.3161 93.3372H69.7598V94.8582H88.3161V93.3372Z" fill="#37474F"/>
<path d="M88.3161 95.3127H69.7598V96.8338H88.3161V95.3127Z" fill="#37474F"/>
<path d="M88.3161 97.2933H69.7598V98.8144H88.3161V97.2933Z" fill="#37474F"/>
<path d="M88.3161 99.2739H69.7598V100.795H88.3161V99.2739Z" fill="#37474F"/>
<path d="M88.3161 101.254H69.7598V102.775H88.3161V101.254Z" fill="#37474F"/>
<path d="M96.3525 140.755H61.0684V142.277H96.3525V140.755Z" fill="#37474F"/>
<path d="M96.3525 142.736H61.0684V144.257H96.3525V142.736Z" fill="#37474F"/>
<path d="M96.3525 144.717H61.0684V146.238H96.3525V144.717Z" fill="#37474F"/>
<path d="M96.3525 146.697H61.0684V148.218H96.3525V146.697Z" fill="#37474F"/>
<path d="M96.3525 148.678H61.0684V150.199H96.3525V148.678Z" fill="#37474F"/>
<path d="M45.5856 80.7696C45.5856 80.5658 37.8672 77.9686 37.8672 77.9686L38.3218 51.3801L48.5851 49.1748L45.5856 80.7696Z" fill="#ECE9FF"/>
<path opacity="0.2" d="M45.5856 80.7696C45.5856 80.5658 37.8672 77.9686 37.8672 77.9686L38.3218 51.3801L48.5851 49.1748L45.5856 80.7696Z" fill="black"/>
<path d="M116.475 91.2055C116.527 91.0065 124.69 91.2362 124.69 91.2362L133.411 66.1113L124.527 60.5145L116.475 91.2055Z" fill="#ECE9FF"/>
<path opacity="0.2" d="M116.475 91.2055C116.527 91.0065 124.69 91.2362 124.69 91.2362L133.411 66.1113L124.527 60.5145L116.475 91.2055Z" fill="black"/>
<path d="M44.1055 90.5629C44.1055 90.5629 46.9744 47.5548 49.4932 33.4036C49.4932 33.4036 101.447 37.3334 129.494 48.0356C129.494 48.0356 115.034 98.2653 114.287 100.758C114.277 100.779 77.6913 93.5727 44.1055 90.5629Z" fill="#ECE9FF"/>
<path opacity="0.1" d="M90.4685 39.1466C89.625 44.3235 88.7649 49.5005 87.8866 54.6775L85.2061 70.1822L85.0651 69.968L102.472 74.0807L111.167 76.171L119.848 78.3186L111.121 76.3643L102.399 74.3733L84.9763 70.3024L84.7988 70.2606L84.8303 70.083L87.6046 54.5887C88.5352 49.4675 89.4898 44.3201 90.4685 39.1466Z" fill="black"/>
<path opacity="0.1" d="M88.5611 42.0991C88.5561 42.3497 88.4599 42.5899 88.2924 42.776C88.1248 42.9621 87.8951 43.0817 87.6471 43.113C87.5094 43.1235 87.3709 43.1067 87.2399 43.0637C87.1097 43.0207 86.9878 42.9521 86.8841 42.8621C86.7771 42.7655 86.6908 42.6479 86.632 42.5166C86.5722 42.3853 86.5407 42.2432 86.5391 42.0991C86.5407 41.9551 86.5722 41.8129 86.632 41.6816C86.6908 41.5503 86.7771 41.4327 86.8841 41.3362C87.0309 41.2092 87.2109 41.1269 87.4025 41.0991C87.5949 41.0714 87.7906 41.0994 87.9673 41.1798C88.1439 41.26 88.294 41.3894 88.3994 41.5524C88.5047 41.7154 88.5603 41.9051 88.5611 42.0991ZM88.5611 42.0991C88.5603 41.9811 88.5337 41.8646 88.484 41.7574C88.435 41.6503 88.3629 41.5548 88.2741 41.4773C88.1547 41.3757 88.0087 41.3103 87.8536 41.289C87.6985 41.2676 87.5401 41.2912 87.3975 41.3569C87.2557 41.4226 87.1354 41.5276 87.0508 41.6596C86.9662 41.7916 86.9214 41.945 86.9214 42.1018C86.9214 42.2584 86.9662 42.4119 87.0508 42.5439C87.1354 42.6759 87.2557 42.781 87.3975 42.8466C87.5401 42.9123 87.6985 42.9359 87.8536 42.9146C88.0087 42.8932 88.1547 42.8278 88.2741 42.7262C88.3629 42.6473 88.4342 42.5508 88.4831 42.4429C88.5329 42.3349 88.5594 42.2179 88.5611 42.0991Z" fill="black"/>
<path opacity="0.1" d="M87.648 48.5006C87.6488 48.7518 87.5568 48.9943 87.3884 49.1809C87.22 49.3674 86.9886 49.4845 86.7382 49.5092C86.598 49.524 86.4553 49.5088 86.321 49.4647C86.1866 49.4206 86.063 49.3485 85.9585 49.2533C85.854 49.158 85.7703 49.0417 85.7139 48.912C85.6575 48.7823 85.6293 48.6421 85.6309 48.5006C85.6301 48.3566 85.66 48.2141 85.718 48.0825C85.7769 47.951 85.8632 47.8335 85.9701 47.7377C86.0755 47.647 86.1974 47.5781 86.3293 47.535C86.4611 47.4919 86.6005 47.4756 86.7382 47.4869C86.9861 47.5193 87.2142 47.6394 87.3809 47.8253C87.5476 48.0113 87.6422 48.2509 87.648 48.5006ZM87.648 48.5006C87.6472 48.3817 87.6214 48.2642 87.5717 48.1561C87.5219 48.0479 87.4498 47.9516 87.3602 47.8735C87.2748 47.8015 87.1761 47.7477 87.0691 47.7154C86.9621 47.683 86.8493 47.6728 86.7382 47.6854C86.5383 47.7081 86.3533 47.8038 86.219 47.9541C86.0846 48.1045 86.0108 48.2991 86.0108 48.5006C86.0108 48.7022 86.0846 48.8967 86.219 49.0471C86.3533 49.1975 86.5383 49.2932 86.7382 49.3158C86.8534 49.3292 86.9695 49.318 87.0799 49.2831C87.1893 49.2481 87.2905 49.1902 87.3768 49.1131C87.463 49.036 87.531 48.9415 87.5783 48.8359C87.6248 48.7304 87.6488 48.6161 87.648 48.5006Z" fill="black"/>
<path opacity="0.1" d="M86.5216 55.2681C86.5233 55.5192 86.4304 55.7618 86.262 55.9483C86.0936 56.1349 85.8622 56.2519 85.6126 56.2766C85.4044 56.281 85.2004 56.2234 85.0254 56.1112C84.8512 55.999 84.7135 55.8371 84.6306 55.6465C84.5485 55.4558 84.5244 55.245 84.5626 55.0407C84.6007 54.8365 84.6986 54.6482 84.8438 54.4999C84.9499 54.4101 85.0718 54.3422 85.2037 54.3001C85.3356 54.2578 85.4741 54.2423 85.6126 54.2543C85.8631 54.2802 86.0945 54.3984 86.2628 54.5858C86.4304 54.7732 86.5233 55.0164 86.5216 55.2681ZM86.5216 55.2681C86.5208 55.1491 86.4951 55.0317 86.4453 54.9235C86.3964 54.8153 86.3242 54.7191 86.2338 54.641C86.1492 54.5689 86.0497 54.5151 85.9427 54.4828C85.8357 54.4504 85.7237 54.4402 85.6126 54.4529C85.4119 54.4756 85.2269 54.5713 85.0926 54.7216C84.9582 54.872 84.8844 55.0665 84.8844 55.2681C84.8844 55.4696 84.9582 55.6642 85.0926 55.8146C85.2269 55.965 85.4119 56.0606 85.6126 56.0833C85.7237 56.0938 85.8357 56.082 85.9427 56.0488C86.0497 56.0156 86.1484 55.9616 86.2338 55.89C86.3242 55.8133 86.3964 55.718 86.4461 55.6106C86.4959 55.5033 86.5216 55.3864 86.5216 55.2681Z" fill="black"/>
<path opacity="0.1" d="M85.3889 62.0249C85.3889 62.2757 85.296 62.5177 85.1277 62.7039C84.9601 62.8902 84.7287 63.0077 84.4791 63.0335C84.3406 63.0435 84.2012 63.0248 84.0694 62.9785C83.9383 62.9322 83.8181 62.8594 83.716 62.7645C83.614 62.6696 83.5327 62.5547 83.4772 62.427C83.4216 62.2994 83.3926 62.1616 83.3926 62.0224C83.3926 61.8831 83.4216 61.7453 83.4772 61.6176C83.5327 61.49 83.614 61.3751 83.716 61.2802C83.8181 61.1853 83.9383 61.1124 84.0694 61.0662C84.2012 61.0199 84.3406 61.0011 84.4791 61.0112C84.7295 61.0371 84.9618 61.1552 85.1293 61.3427C85.2977 61.53 85.3897 61.7732 85.3889 62.0249ZM85.3889 62.0249C85.3881 61.906 85.3624 61.7886 85.3126 61.6804C85.2628 61.5723 85.1907 61.476 85.1011 61.3978C85.0157 61.3258 84.917 61.2719 84.81 61.2396C84.703 61.2072 84.5902 61.1971 84.4791 61.2097C84.2792 61.2325 84.0942 61.3281 83.9599 61.4785C83.8255 61.6288 83.7517 61.8234 83.7517 62.0249C83.7517 62.2266 83.8255 62.421 83.9599 62.5714C84.0942 62.7218 84.2792 62.8175 84.4791 62.8401C84.591 62.8506 84.703 62.8389 84.81 62.8057C84.9162 62.7725 85.0157 62.7185 85.1011 62.6468C85.1907 62.5693 85.262 62.4739 85.3118 62.3666C85.3615 62.2595 85.3873 62.143 85.3889 62.0249Z" fill="black"/>
<path opacity="0.1" d="M89.2309 72.8056C89.2309 73.0104 89.1687 73.2103 89.0534 73.3792C88.9373 73.548 88.7731 73.6779 88.5824 73.7517C88.3908 73.8254 88.1826 73.8396 87.9827 73.7923C87.7837 73.745 87.6037 73.6386 87.466 73.4869C87.3283 73.3352 87.2404 73.1455 87.2122 72.9425C87.1848 72.7396 87.2197 72.5331 87.3117 72.3502C87.4038 72.1673 87.5489 72.0166 87.7281 71.9178C87.9072 71.819 88.1121 71.777 88.3161 71.797C88.5666 71.8216 88.7988 71.9385 88.968 72.1249C89.1372 72.3113 89.2309 72.5539 89.2309 72.8056ZM89.2309 72.8056C89.2293 72.6868 89.2027 72.5698 89.153 72.4618C89.1032 72.3539 89.0319 72.2574 88.9431 72.1785C88.8569 72.1071 88.7565 72.0537 88.6487 72.0213C88.5409 71.989 88.4281 71.9785 88.3161 71.9904C88.1892 72.0057 88.0681 72.0506 87.9611 72.1212C87.855 72.1918 87.7662 72.2864 87.7032 72.3972C87.6393 72.5081 87.6028 72.6322 87.5962 72.7598C87.5887 72.8874 87.612 73.0147 87.6626 73.1319C87.714 73.249 87.7911 73.3527 87.8898 73.4346C87.9877 73.5164 88.103 73.5743 88.2274 73.6035C88.3518 73.6327 88.4812 73.6325 88.6056 73.6028C88.73 73.5732 88.8453 73.5149 88.9431 73.4327C89.0319 73.3537 89.1032 73.2573 89.153 73.1493C89.2027 73.0414 89.2293 72.9243 89.2309 72.8056Z" fill="black"/>
<path opacity="0.1" d="M95.6096 74.3628C95.6096 74.5568 95.5532 74.7466 95.4479 74.9096C95.3426 75.0725 95.1925 75.2019 95.0158 75.2822C94.8391 75.3626 94.6434 75.3905 94.451 75.3627C94.2594 75.335 94.0794 75.2528 93.9326 75.1258C93.824 75.0306 93.7369 74.9133 93.6772 74.7818C93.6175 74.6501 93.5859 74.5073 93.5859 74.3628C93.5859 74.2183 93.6175 74.0755 93.6772 73.9439C93.7369 73.8123 93.824 73.695 93.9326 73.5998C94.0371 73.5107 94.1582 73.4431 94.2893 73.401C94.4203 73.3589 94.558 73.3429 94.6957 73.3542C94.9461 73.3777 95.1792 73.4943 95.3484 73.6809C95.5176 73.8676 95.6113 74.1109 95.6096 74.3628ZM95.6096 74.3628C95.6096 74.2438 95.5831 74.1264 95.5342 74.0182C95.4844 73.9101 95.4122 73.8138 95.3227 73.7357C95.2356 73.6643 95.1352 73.6109 95.0282 73.5786C94.9204 73.5463 94.8068 73.5358 94.6957 73.5476C94.5688 73.563 94.4468 73.6078 94.3407 73.6784C94.2345 73.7491 94.1458 73.8436 94.0819 73.9545C94.0189 74.0653 93.9824 74.1895 93.9749 74.3171C93.9683 74.4446 93.9907 74.572 94.0421 74.6892C94.0927 74.8063 94.1707 74.91 94.2685 74.9918C94.3664 75.0737 94.4825 75.1315 94.6069 75.1608C94.7313 75.19 94.8607 75.1897 94.9851 75.16C95.1095 75.1303 95.2248 75.0721 95.3227 74.9899C95.4122 74.9118 95.4844 74.8155 95.5342 74.7074C95.5831 74.5992 95.6096 74.4818 95.6096 74.3628Z" fill="black"/>
<path opacity="0.1" d="M101.99 75.9202C101.991 76.1142 101.935 76.3043 101.83 76.4677C101.726 76.631 101.577 76.7608 101.4 76.8413C101.223 76.9218 101.028 76.9498 100.835 76.9217C100.644 76.8936 100.464 76.8109 100.318 76.6831C100.211 76.5867 100.124 76.4691 100.066 76.3377C100.006 76.2064 99.9743 76.0643 99.9727 75.9202C99.9718 75.7762 100.002 75.6337 100.061 75.5022C100.119 75.3705 100.205 75.253 100.313 75.1572C100.418 75.0675 100.54 74.9996 100.672 74.9574C100.804 74.9152 100.943 74.8996 101.081 74.9117C101.33 74.9364 101.563 75.0535 101.73 75.24C101.898 75.4265 101.991 75.669 101.99 75.9202ZM101.99 75.9202C101.991 75.8016 101.966 75.6843 101.917 75.5761C101.868 75.4679 101.796 75.3715 101.708 75.2931C101.617 75.2239 101.514 75.1734 101.403 75.1447C101.293 75.116 101.178 75.1096 101.065 75.1259C100.864 75.1486 100.679 75.2442 100.546 75.3946C100.411 75.545 100.337 75.7395 100.337 75.9411C100.337 76.1427 100.411 76.3372 100.546 76.4876C100.679 76.6379 100.864 76.7336 101.065 76.7563C101.177 76.7679 101.29 76.7572 101.398 76.7249C101.505 76.6927 101.605 76.6393 101.692 76.5682C101.787 76.4891 101.863 76.3899 101.914 76.2778C101.966 76.1657 101.991 76.0435 101.99 75.9202Z" fill="black"/>
<path opacity="0.1" d="M108.379 77.4773C108.379 77.6714 108.322 77.8611 108.218 78.0241C108.112 78.1871 107.962 78.3164 107.786 78.3968C107.609 78.477 107.413 78.5051 107.221 78.4773C107.029 78.4496 106.848 78.3673 106.702 78.2403C106.595 78.1437 106.509 78.0262 106.45 77.8948C106.391 77.7635 106.359 77.6214 106.357 77.4773C106.359 77.3332 106.391 77.1911 106.45 77.0598C106.509 76.9285 106.595 76.8109 106.702 76.7143C106.806 76.6243 106.927 76.5558 107.058 76.5127C107.189 76.4697 107.328 76.4529 107.465 76.4635C107.713 76.4948 107.943 76.6143 108.111 76.8004C108.278 76.9866 108.374 77.2267 108.379 77.4773ZM108.379 77.4773C108.378 77.3586 108.351 77.2415 108.301 77.1336C108.253 77.0256 108.181 76.9292 108.092 76.8502C107.995 76.768 107.879 76.7097 107.755 76.6801C107.631 76.6504 107.501 76.6502 107.377 76.6794C107.252 76.7086 107.136 76.7664 107.038 76.8483C106.94 76.9302 106.863 77.0338 106.812 77.1509C106.761 77.2681 106.738 77.3955 106.745 77.5231C106.752 77.6506 106.789 77.7748 106.852 77.8857C106.916 77.9965 107.004 78.091 107.111 78.1617C107.217 78.2323 107.339 78.2772 107.465 78.2925C107.577 78.3044 107.69 78.2938 107.797 78.2616C107.905 78.2292 108.005 78.1758 108.092 78.1044C108.181 78.0255 108.253 77.929 108.301 77.8211C108.351 77.7131 108.378 77.5961 108.379 77.4773Z" fill="black"/>
<path opacity="0.1" d="M114.757 79.1026C114.731 79.3508 114.617 79.5815 114.436 79.753C114.255 79.9246 114.018 80.0257 113.769 80.0381C113.63 80.0396 113.493 80.0136 113.365 79.9616C113.236 79.9095 113.12 79.8325 113.022 79.735C112.922 79.6312 112.845 79.5073 112.796 79.3716C112.748 79.2358 112.728 79.0914 112.74 78.9476C112.751 78.8039 112.793 78.6642 112.862 78.5378C112.931 78.4114 113.027 78.3011 113.142 78.2143C113.252 78.1312 113.377 78.0716 113.512 78.0392C113.645 78.0068 113.785 78.0024 113.921 78.0262C114.165 78.0759 114.385 78.2119 114.538 78.4094C114.692 78.6069 114.769 78.8529 114.757 79.1026ZM114.757 79.1026C114.764 78.9846 114.747 78.8663 114.705 78.7555C114.664 78.6447 114.6 78.544 114.516 78.46C114.405 78.3493 114.265 78.2729 114.111 78.2398C113.958 78.2065 113.799 78.2179 113.651 78.2727C113.504 78.3273 113.377 78.4231 113.282 78.5483C113.187 78.6736 113.131 78.8233 113.119 78.9797C113.108 79.1361 113.141 79.2926 113.216 79.4306C113.289 79.5687 113.402 79.6826 113.539 79.7587C113.676 79.8349 113.832 79.8702 113.989 79.8605C114.145 79.8507 114.295 79.7963 114.422 79.7036C114.517 79.633 114.597 79.5427 114.654 79.4391C114.712 79.3355 114.747 79.2208 114.757 79.1026Z" fill="black"/>
<path opacity="0.1" d="M84.2764 68.7818C84.2781 69.0335 84.1852 69.2767 84.0176 69.4641C83.8493 69.6515 83.617 69.7697 83.3674 69.7956C83.0887 69.8169 82.8132 69.7288 82.5989 69.55C82.435 69.4091 82.3205 69.2194 82.2719 69.0087C82.2234 68.7981 82.2436 68.5774 82.3293 68.3791C82.4152 68.1806 82.5621 68.0148 82.7488 67.9058C82.9355 67.7968 83.1518 67.7504 83.3674 67.7733C83.6162 67.7991 83.8476 67.9165 84.0151 68.1028C84.1835 68.2891 84.2764 68.531 84.2764 68.7818ZM84.2764 68.7818C84.2747 68.6637 84.249 68.5473 84.1993 68.4401C84.1495 68.3329 84.0782 68.2374 83.9886 68.1599C83.87 68.0583 83.724 67.993 83.5681 67.9717C83.413 67.9503 83.2554 67.9738 83.1128 68.0395C82.9709 68.1052 82.8501 68.2103 82.7657 68.3423C82.6812 68.4743 82.6364 68.6277 82.6364 68.7845C82.6364 68.9411 82.6812 69.0946 82.7657 69.2265C82.8501 69.3586 82.9709 69.4636 83.1128 69.5293C83.2554 69.595 83.413 69.6186 83.5681 69.5973C83.724 69.5759 83.87 69.5105 83.9886 69.4089C84.079 69.3309 84.1503 69.2345 84.2001 69.1264C84.2499 69.0183 84.2756 68.9007 84.2764 68.7818Z" fill="black"/>
<path opacity="0.2" d="M73.5299 79.9904C79.5885 74.5429 80.0839 65.2155 74.6364 59.1569C69.1889 53.0984 59.8614 52.603 53.803 58.0505C47.7444 63.498 47.249 72.8254 52.6965 78.884C58.144 84.9429 67.4714 85.438 73.5299 79.9904Z" fill="black"/>
<path d="M74.7295 73.1961C77.0423 67.0851 73.9632 60.2561 67.8521 57.9433C61.741 55.6304 54.9121 58.7094 52.5993 64.8205C50.2864 70.9317 53.3655 77.7606 59.4765 80.0735C65.5877 82.3863 72.4166 79.3072 74.7295 73.1961Z" fill="#263238"/>
<path d="M62.9569 64.6718L60.192 64.224L59.7441 66.9889L62.5091 67.4368L62.9569 64.6718Z" fill="#ECE9FF"/>
<path d="M60.6366 61.4576L57.8717 61.0098L57.4238 63.7748L60.1888 64.2225L60.6366 61.4576Z" fill="#ECE9FF"/>
<path d="M71.6972 63.2503L68.9322 62.8025L68.4844 65.5674L71.2494 66.0153L71.6972 63.2503Z" fill="#ECE9FF"/>
<path d="M58.8534 72.46L56.0885 72.0121L55.6406 74.7771L58.4056 75.2249L58.8534 72.46Z" fill="#ECE9FF"/>
<path d="M69.9198 74.2526L67.1548 73.8047L66.707 76.5697L69.4719 77.0175L69.9198 74.2526Z" fill="#ECE9FF"/>
<path d="M62.0663 70.1398L59.3014 69.6919L58.8535 72.4569L61.6185 72.9047L62.0663 70.1398Z" fill="#ECE9FF"/>
<path d="M65.2772 67.8551L62.5122 67.4073L62.0645 70.1723L64.8294 70.6201L65.2772 67.8551Z" fill="#ECE9FF"/>
<path d="M68.4843 65.5652L65.7194 65.1174L65.2715 67.8823L68.0365 68.3302L68.4843 65.5652Z" fill="#ECE9FF"/>
<path d="M67.6054 71.034L64.8404 70.5862L64.3926 73.3511L67.1575 73.799L67.6054 71.034Z" fill="#ECE9FF"/>
<path d="M114.667 84.5374C119.831 78.2356 118.909 68.9407 112.606 63.777C106.304 58.6133 97.0087 59.5361 91.8458 65.8383C86.6821 72.1403 87.6043 81.4352 93.9068 86.5992C100.208 91.763 109.503 90.8399 114.667 84.5374Z" fill="#ECE9FF"/>
<path opacity="0.2" d="M114.667 84.5374C119.831 78.2356 118.909 68.9407 112.606 63.777C106.304 58.6133 97.0087 59.5361 91.8458 65.8383C86.6821 72.1403 87.6043 81.4352 93.9068 86.5992C100.208 91.763 109.503 90.8399 114.667 84.5374Z" fill="black"/>
<path opacity="0.2" d="M117.61 78.6113C117.542 78.904 117.464 79.181 117.38 79.4631L88.6387 73.3281C88.7067 72.8056 88.7954 72.283 88.9157 71.7865C89.3345 69.8716 90.1316 68.0594 91.2587 66.4557C92.3858 64.852 93.8207 63.4889 95.4811 62.4461C97.1407 61.4032 98.9919 60.7015 100.925 60.3818C102.859 60.0622 104.837 60.1311 106.745 60.5844C108.652 61.0378 110.45 61.8665 112.033 63.0223C113.616 64.178 114.953 65.6375 115.966 67.3157C116.98 68.994 117.648 70.8572 117.932 72.7965C118.218 74.736 118.113 76.7127 117.626 78.6113H117.61Z" fill="black"/>
<path d="M107.82 86.1008C113.849 83.5811 116.694 76.6514 114.174 70.6225C111.655 64.5936 104.725 61.7487 98.6965 64.2682C92.6677 66.7876 89.8221 73.7174 92.3418 79.7462C94.8615 85.7749 101.791 88.6197 107.82 86.1008Z" fill="#263238"/>
<path d="M106.227 68.7453L103.502 68.0975L100.277 81.667L103.002 82.3147L106.227 68.7453Z" fill="#ECE9FF"/>
<path d="M118.469 78.3344L88.2637 71.1542C89.2755 67.2119 91.7944 63.8243 95.2786 61.7207C98.7628 59.6172 102.934 58.966 106.893 59.9073C110.853 60.8486 114.285 63.307 116.449 66.7535C118.615 70.2 119.34 74.3587 118.469 78.3344Z" fill="#ECE9FF"/>
<path opacity="0.2" d="M118.469 78.3344L88.2637 71.1542C89.2755 67.2119 91.7944 63.8243 95.2786 61.7207C98.7628 59.6172 102.934 58.966 106.893 59.9073C110.853 60.8486 114.285 63.307 116.449 66.7535C118.615 70.2 119.34 74.3587 118.469 78.3344Z" fill="black"/>
<path opacity="0.1" d="M77.5859 83.9677C77.6563 82.7402 78.1366 81.5717 78.9499 80.6495C79.3882 80.1633 79.9391 79.7919 80.5541 79.5678C81.1755 79.357 81.8352 79.2839 82.4877 79.3535C83.1528 79.413 83.7882 79.656 84.3239 80.0555C84.8589 80.4551 85.2728 80.9954 85.5182 81.6163C85.9844 82.75 86.0922 83.9992 85.8268 85.196C85.675 84.0722 85.3209 82.9849 84.7818 81.9872C84.5421 81.5435 84.197 81.1656 83.7774 80.8867C83.3569 80.6078 82.8746 80.4366 82.3727 80.3882C81.8622 80.3205 81.3433 80.3603 80.8491 80.5052C80.3551 80.6501 79.8968 80.8969 79.5037 81.2295C78.6723 81.9913 78.0176 82.926 77.5859 83.9677Z" fill="black"/>
<path d="M48.1406 53.878C48.2608 52.3103 48.4385 50.7426 48.5901 49.1748C48.7416 47.6071 48.9297 46.0394 49.1126 44.4717C49.2955 42.904 49.4993 41.3362 49.6979 39.7685C49.8964 38.2008 50.1212 36.6331 50.3354 35.0653L50.3877 34.6473L50.811 34.6735C54.2182 34.886 57.6166 35.1665 61.0064 35.5148C62.6995 35.6872 64.3926 35.8859 66.0858 36.1001C67.7789 36.3143 69.4668 36.5704 71.1443 36.8735L60.9437 36.2464L50.7587 35.5827L51.2342 35.1961C51.0043 36.7638 50.7901 38.3315 50.5444 39.8992C50.2988 41.4669 50.0637 43.0346 49.8024 44.5762C49.5411 46.1178 49.2799 47.6855 49.0081 49.2428C48.7364 50.8001 48.4594 52.3312 48.1406 53.878Z" fill="white"/>
<path d="M50.5898 65.803C50.966 63.8887 51.7738 62.0854 52.9518 60.5303C53.2392 60.1331 53.5685 59.7674 53.882 59.3911C54.1956 59.0149 54.577 58.696 54.9272 58.346C55.2773 57.9958 55.6954 57.7293 56.0872 57.4315C56.4792 57.1336 56.913 56.9089 57.3362 56.6371C57.7595 56.3654 58.2298 56.2034 58.6792 55.9996L60.0797 55.5136L61.5325 55.2157C62.0185 55.1426 62.5097 55.1269 63.0009 55.0903C64.9442 55.0665 66.8718 55.4399 68.6656 56.1877C66.8147 55.7988 64.9184 55.6721 63.0323 55.8115C61.1825 55.9798 59.3892 56.5372 57.77 57.4472C56.1413 58.3515 54.6925 59.5472 53.4953 60.9745C52.2703 62.415 51.2888 64.046 50.5898 65.803Z" fill="white"/>
<path d="M91.2871 69.785C91.9266 67.9431 92.9732 66.2694 94.35 64.8885C94.6892 64.5384 95.0658 64.2196 95.4315 63.8904C95.7973 63.5612 96.2153 63.2999 96.6126 63.0073C97.0099 62.7146 97.4536 62.4847 97.8873 62.26C98.3211 62.0353 98.7814 61.842 99.2359 61.6486C99.6904 61.4553 100.176 61.3403 100.647 61.1992L102.105 60.9118L103.584 60.8177C104.075 60.8177 104.566 60.87 105.057 60.9014C106.989 61.1401 108.852 61.7733 110.529 62.7617C108.748 62.1232 106.887 61.7362 105 61.612C103.146 61.5243 101.294 61.8288 99.5652 62.5056C97.8351 63.1807 96.2418 64.1633 94.8618 65.4059C93.4418 66.6628 92.2343 68.1417 91.2871 69.785Z" fill="white"/>
<path d="M45.7469 117.063C41.9688 117.063 33.6964 116.216 28.3714 109.37C21.5779 100.612 24.0236 83.8059 24.1281 83.0951L27.0859 83.5446C27.0859 83.7063 24.7133 99.7914 30.7439 107.53C36.628 115.098 47.3043 114.015 47.4088 114L47.7484 116.974C47.6178 116.984 46.8862 117.063 45.7469 117.063Z" fill="#ECE9FF"/>
<path opacity="0.4" d="M45.7469 117.063C41.9688 117.063 33.6964 116.216 28.3714 109.37C21.5779 100.612 24.0236 83.8059 24.1281 83.0951L27.0859 83.5446C27.0859 83.7063 24.7133 99.7914 30.7439 107.53C36.628 115.098 47.3043 114.015 47.4088 114L47.7484 116.974C47.6178 116.984 46.8862 117.063 45.7469 117.063Z" fill="white"/>
<path d="M27.9572 85.5775C27.4041 85.58 26.8517 85.5361 26.3059 85.4465C21.3153 84.637 19.1101 81.6528 18.1329 79.2908C17.1556 76.9287 16.931 74.0807 17.4536 70.7781L23.7767 71.8232C23.4474 73.856 23.5467 75.6485 24.0484 76.866C24.4089 77.7335 25.0935 78.7786 27.3197 79.1393C28.3335 79.3012 29.41 79.2176 30.5753 77.4879C31.3815 76.1712 31.9246 74.7107 32.1744 73.1871L38.5027 74.2323C38.0894 76.6472 37.2013 78.9562 35.8899 81.0257C33.9459 84.01 31.1554 85.5775 27.9572 85.5775Z" fill="#ECE9FF"/>
<path d="M51.996 125.622C51.996 125.487 46.6344 124.635 46.6344 124.635L44.0215 107.176L50.4962 104.614L51.996 125.622Z" fill="#ECE9FF"/>
<path opacity="0.2" d="M51.996 125.622C51.996 125.487 46.6344 124.635 46.6344 124.635L44.0215 107.176L50.4962 104.614L51.996 125.622Z" fill="black"/>
<path d="M104.879 125.653C104.879 125.517 110.256 124.786 110.256 124.786L113.24 107.389L106.812 104.688L104.879 125.653Z" fill="#ECE9FF"/>
<path opacity="0.2" d="M104.879 125.653C104.879 125.517 110.256 124.786 110.256 124.786L113.24 107.389L106.812 104.688L104.879 125.653Z" fill="black"/>
<path d="M49.7701 100.732C49.7701 100.732 93.0341 98.8874 107.645 101.322C107.645 101.322 103.355 143.181 103.125 143.996C103.125 143.996 60.0857 143.876 53.3602 143.996C53.3602 143.969 49.7178 116.132 49.7701 100.732Z" fill="#ECE9FF"/>
<path opacity="0.2" d="M62.918 112.182C62.918 112.182 86.5332 111.246 94.5127 112.474C94.5127 112.474 92.1663 133.58 92.0411 133.993C92.0411 133.993 68.5252 133.936 64.8672 133.993C64.8724 133.993 63.2577 119.545 62.918 112.182Z" fill="black"/>
<path opacity="0.2" d="M66.1371 133.984H64.8672C64.8672 133.984 63.2577 119.545 62.918 112.177L64.3969 112.124L66.1371 133.984Z" fill="black"/>
<path d="M73.1029 117.386C72.6282 117.236 72.1193 117.229 71.641 117.368C71.1626 117.507 70.7363 117.784 70.4161 118.166C70.096 118.548 69.8963 119.016 69.8426 119.511C69.7889 120.006 69.8836 120.506 70.1145 120.947C70.3454 121.389 70.7023 121.751 71.1398 121.99C71.5772 122.228 72.0756 122.331 72.5716 122.285C73.0676 122.24 73.5389 122.047 73.9256 121.734C74.3124 121.419 74.5971 120.998 74.7438 120.522C74.9388 119.888 74.8759 119.203 74.5686 118.616C74.2613 118.029 73.7345 117.587 73.1029 117.386ZM74.4511 120.449C74.3192 120.864 74.0671 121.232 73.7265 121.504C73.386 121.776 72.9723 121.942 72.5378 121.979C72.1034 122.016 71.6676 121.924 71.2856 121.714C70.9036 121.503 70.5925 121.185 70.3916 120.797C70.1909 120.41 70.1092 119.972 70.1573 119.539C70.2053 119.105 70.3807 118.696 70.6614 118.362C70.942 118.029 71.3153 117.786 71.7341 117.664C72.1528 117.542 72.5982 117.548 73.014 117.679C73.2903 117.767 73.5467 117.908 73.7685 118.093C73.9903 118.28 74.1731 118.509 74.3066 118.766C74.44 119.023 74.5215 119.304 74.5463 119.593C74.5711 119.882 74.5387 120.173 74.4511 120.449ZM73.1029 117.386C72.6282 117.236 72.1193 117.229 71.641 117.368C71.1626 117.507 70.7363 117.784 70.4161 118.166C70.096 118.548 69.8963 119.016 69.8426 119.511C69.7889 120.006 69.8836 120.506 70.1145 120.947C70.3454 121.389 70.7023 121.751 71.1398 121.99C71.5772 122.228 72.0756 122.331 72.5716 122.285C73.0676 122.24 73.5389 122.047 73.9256 121.734C74.3124 121.419 74.5971 120.998 74.7438 120.522C74.9388 119.888 74.8759 119.203 74.5686 118.616C74.2613 118.029 73.7345 117.587 73.1029 117.386ZM74.4511 120.449C74.3192 120.864 74.0671 121.232 73.7265 121.504C73.386 121.776 72.9723 121.942 72.5378 121.979C72.1034 122.016 71.6676 121.924 71.2856 121.714C70.9036 121.503 70.5925 121.185 70.3916 120.797C70.1909 120.41 70.1092 119.972 70.1573 119.539C70.2053 119.105 70.3807 118.696 70.6614 118.362C70.942 118.029 71.3153 117.786 71.7341 117.664C72.1528 117.542 72.5982 117.548 73.014 117.679C73.2903 117.767 73.5467 117.908 73.7685 118.093C73.9903 118.28 74.1731 118.509 74.3066 118.766C74.44 119.023 74.5215 119.304 74.5463 119.593C74.5711 119.882 74.5387 120.173 74.4511 120.449ZM73.1029 117.386C72.6282 117.236 72.1193 117.229 71.641 117.368C71.1626 117.507 70.7363 117.784 70.4161 118.166C70.096 118.548 69.8963 119.016 69.8426 119.511C69.7889 120.006 69.8836 120.506 70.1145 120.947C70.3454 121.389 70.7023 121.751 71.1398 121.99C71.5772 122.228 72.0756 122.331 72.5716 122.285C73.0676 122.24 73.5389 122.047 73.9256 121.734C74.3124 121.419 74.5971 120.998 74.7438 120.522C74.9388 119.888 74.8759 119.203 74.5686 118.616C74.2613 118.029 73.7345 117.587 73.1029 117.386ZM74.4511 120.449C74.3192 120.864 74.0671 121.232 73.7265 121.504C73.386 121.776 72.9723 121.942 72.5378 121.979C72.1034 122.016 71.6676 121.924 71.2856 121.714C70.9036 121.503 70.5925 121.185 70.3916 120.797C70.1909 120.41 70.1092 119.972 70.1573 119.539C70.2053 119.105 70.3807 118.696 70.6614 118.362C70.942 118.029 71.3153 117.786 71.7341 117.664C72.1528 117.542 72.5982 117.548 73.014 117.679C73.2903 117.767 73.5467 117.908 73.7685 118.093C73.9903 118.28 74.1731 118.509 74.3066 118.766C74.44 119.023 74.5215 119.304 74.5463 119.593C74.5711 119.882 74.5387 120.173 74.4511 120.449ZM73.9285 114.732C72.9301 114.417 71.8606 114.404 70.8554 114.697C69.8501 114.99 68.9542 115.574 68.2809 116.376C67.6076 117.177 67.1872 118.161 67.0727 119.201C66.9583 120.242 67.1551 121.293 67.6382 122.222C68.1213 123.151 68.869 123.916 69.7867 124.42C70.7044 124.923 71.7509 125.144 72.794 125.054C73.837 124.962 74.8297 124.564 75.6465 123.909C76.4633 123.255 77.0675 122.372 77.3828 121.374C77.8047 120.037 77.6798 118.587 77.0353 117.342C76.3908 116.098 75.2794 115.159 73.9442 114.732H73.9285ZM75.1043 120.658C74.9293 121.204 74.5964 121.687 74.1474 122.045C73.6985 122.402 73.1537 122.619 72.5817 122.667C72.0099 122.716 71.4364 122.593 70.9338 122.316C70.4313 122.039 70.0221 121.619 69.7578 121.109C69.4936 120.6 69.3862 120.023 69.4492 119.453C69.5122 118.882 69.7427 118.343 70.1117 117.904C70.4807 117.464 70.9716 117.144 71.5226 116.983C72.0735 116.822 72.6598 116.828 73.2074 116.999C73.5737 117.113 73.914 117.298 74.2087 117.544C74.5033 117.79 74.7465 118.091 74.9243 118.431C75.102 118.771 75.2108 119.143 75.2444 119.525C75.278 119.906 75.2357 120.292 75.12 120.658H75.1043ZM74.7281 120.538C74.8789 120.062 74.8853 119.554 74.7466 119.075C74.6077 118.597 74.3299 118.171 73.9484 117.85C73.5668 117.53 73.0988 117.331 72.6035 117.277C72.1084 117.223 71.6084 117.318 71.167 117.549C70.7257 117.78 70.363 118.137 70.1248 118.574C69.8867 119.012 69.784 119.51 69.8296 120.006C69.8751 120.502 70.067 120.974 70.3809 121.36C70.6949 121.747 71.1166 122.031 71.5926 122.178C71.9073 122.278 72.2384 122.315 72.5673 122.286C72.8961 122.258 73.216 122.164 73.5087 122.012C73.8015 121.86 74.0613 121.651 74.2732 121.398C74.4851 121.145 74.6451 120.852 74.7438 120.538H74.7281ZM74.4354 120.449C74.3035 120.864 74.0514 121.232 73.7108 121.504C73.3703 121.776 72.9566 121.942 72.5222 121.979C72.0877 122.016 71.6519 121.924 71.2699 121.714C70.8879 121.503 70.5768 121.185 70.376 120.797C70.1752 120.41 70.0936 119.972 70.1416 119.539C70.1896 119.105 70.365 118.696 70.6457 118.362C70.9263 118.029 71.2997 117.786 71.7184 117.664C72.1372 117.542 72.5825 117.548 72.9983 117.679C73.2761 117.765 73.5341 117.904 73.7575 118.09C73.981 118.276 74.1656 118.504 74.3006 118.762C74.4356 119.019 74.5184 119.301 74.5443 119.59C74.5701 119.88 74.5384 120.171 74.4511 120.449H74.4354ZM73.0872 117.386C72.6125 117.236 72.1037 117.229 71.6253 117.368C71.147 117.507 70.7207 117.784 70.4004 118.166C70.0802 118.548 69.8807 119.016 69.8269 119.511C69.7733 120.006 69.8679 120.506 70.0988 120.947C70.3298 121.389 70.6867 121.751 71.1242 121.99C71.5616 122.228 72.0599 122.331 72.5559 122.285C73.052 122.24 73.5232 122.047 73.91 121.734C74.2967 121.419 74.5814 120.998 74.7281 120.522C74.9238 119.891 74.8631 119.207 74.5589 118.621C74.2547 118.034 73.7316 117.59 73.1029 117.386H73.0872ZM74.4354 120.449C74.3035 120.864 74.0514 121.232 73.7108 121.504C73.3703 121.776 72.9566 121.942 72.5222 121.979C72.0877 122.016 71.6519 121.924 71.2699 121.714C70.8879 121.503 70.5768 121.185 70.376 120.797C70.1752 120.41 70.0936 119.972 70.1416 119.539C70.1896 119.105 70.365 118.696 70.6457 118.362C70.9263 118.029 71.2997 117.786 71.7184 117.664C72.1372 117.542 72.5825 117.548 72.9983 117.679C73.2761 117.765 73.5341 117.904 73.7575 118.09C73.981 118.276 74.1656 118.504 74.3006 118.762C74.4356 119.019 74.5184 119.301 74.5443 119.59C74.5701 119.88 74.5384 120.171 74.4511 120.449H74.4354ZM73.0872 117.386C72.6125 117.236 72.1037 117.229 71.6253 117.368C71.147 117.507 70.7207 117.784 70.4004 118.166C70.0802 118.548 69.8807 119.016 69.8269 119.511C69.7733 120.006 69.8679 120.506 70.0988 120.947C70.3298 121.389 70.6867 121.751 71.1242 121.99C71.5616 122.228 72.0599 122.331 72.5559 122.285C73.052 122.24 73.5232 122.047 73.91 121.734C74.2967 121.419 74.5814 120.998 74.7281 120.522C74.9238 119.891 74.8631 119.207 74.5589 118.621C74.2547 118.034 73.7316 117.59 73.1029 117.386H73.0872ZM74.4354 120.449C74.3035 120.864 74.0514 121.232 73.7108 121.504C73.3703 121.776 72.9566 121.942 72.5222 121.979C72.0877 122.016 71.6519 121.924 71.2699 121.714C70.8879 121.503 70.5768 121.185 70.376 120.797C70.1752 120.41 70.0936 119.972 70.1416 119.539C70.1896 119.105 70.365 118.696 70.6457 118.362C70.9263 118.029 71.2997 117.786 71.7184 117.664C72.1372 117.542 72.5825 117.548 72.9983 117.679C73.2761 117.765 73.5341 117.904 73.7575 118.09C73.981 118.276 74.1656 118.504 74.3006 118.762C74.4356 119.019 74.5184 119.301 74.5443 119.59C74.5701 119.88 74.5384 120.171 74.4511 120.449H74.4354Z" fill="#ECE9FF"/>
<path d="M71.7953 124.933L69.8513 124.316L69.5273 125.726L71.2518 126.27L71.7953 124.933Z" fill="#ECE9FF"/>
<path d="M68.3054 123.109L67.3648 121.306L66.1367 122.069L66.9728 123.678L68.3054 123.109Z" fill="#ECE9FF"/>
<path d="M67.1243 119.357L67.7357 117.418L66.33 117.088L65.7812 118.818L67.1243 119.357Z" fill="#ECE9FF"/>
<path d="M68.9433 115.866L70.7514 114.93L69.9833 113.702L68.3789 114.539L68.9433 115.866Z" fill="#ECE9FF"/>
<path d="M72.6953 114.685L74.6393 115.301L74.9633 113.89L73.2388 113.347L72.6953 114.685Z" fill="#ECE9FF"/>
<path d="M76.1855 116.504L77.1261 118.312L78.3542 117.549L77.5181 115.939L76.1855 116.504Z" fill="#ECE9FF"/>
<path d="M77.3653 120.261L76.7539 122.199L78.1649 122.528L78.7083 120.799L77.3653 120.261Z" fill="#ECE9FF"/>
<path d="M75.549 123.746L73.7461 124.687L74.509 125.915L76.1134 125.079L75.549 123.746Z" fill="#ECE9FF"/>
<path d="M81.6467 124.77C81.3664 124.587 81.0379 124.491 80.703 124.494C80.368 124.497 80.0414 124.6 79.7647 124.788C79.4882 124.977 79.2737 125.244 79.1487 125.555C79.0236 125.866 78.9936 126.207 79.0624 126.535C79.1312 126.863 79.2957 127.163 79.5351 127.397C79.7745 127.631 80.0781 127.789 80.4074 127.851C80.7366 127.913 81.0768 127.875 81.3849 127.744C81.6929 127.612 81.955 127.392 82.138 127.111C82.3828 126.736 82.4686 126.278 82.3765 125.839C82.2844 125.4 82.0219 125.016 81.6467 124.77ZM81.9655 126.996C81.8053 127.242 81.5757 127.436 81.3059 127.551C81.036 127.666 80.738 127.699 80.4495 127.646C80.1609 127.592 79.8949 127.453 79.6849 127.248C79.475 127.043 79.3305 126.78 79.2699 126.493C79.2092 126.206 79.235 125.907 79.3442 125.635C79.4533 125.362 79.6408 125.128 79.8829 124.962C80.125 124.797 80.4108 124.706 80.7044 124.702C80.9979 124.699 81.2858 124.782 81.5318 124.943C81.6958 125.049 81.8372 125.187 81.9479 125.348C82.0585 125.509 82.1362 125.691 82.1765 125.882C82.2168 126.073 82.219 126.27 82.1827 126.463C82.1465 126.655 82.0727 126.839 81.9655 127.002V126.996ZM81.6467 124.77C81.3664 124.587 81.0379 124.491 80.703 124.494C80.368 124.497 80.0414 124.6 79.7647 124.788C79.4882 124.977 79.2737 125.244 79.1487 125.555C79.0236 125.866 78.9936 126.207 79.0624 126.535C79.1312 126.863 79.2957 127.163 79.5351 127.397C79.7745 127.631 80.0781 127.789 80.4074 127.851C80.7366 127.913 81.0768 127.875 81.3849 127.744C81.6929 127.612 81.955 127.392 82.138 127.111C82.3828 126.736 82.4686 126.278 82.3765 125.839C82.2844 125.4 82.0219 125.016 81.6467 124.77ZM81.9655 126.996C81.8053 127.242 81.5757 127.436 81.3059 127.551C81.036 127.666 80.738 127.699 80.4495 127.646C80.1609 127.592 79.8949 127.453 79.6849 127.248C79.475 127.043 79.3305 126.78 79.2699 126.493C79.2092 126.206 79.235 125.907 79.3442 125.635C79.4533 125.362 79.6408 125.128 79.8829 124.962C80.125 124.797 80.4108 124.706 80.7044 124.702C80.9979 124.699 81.2858 124.782 81.5318 124.943C81.6958 125.049 81.8372 125.187 81.9479 125.348C82.0585 125.509 82.1362 125.691 82.1765 125.882C82.2168 126.073 82.219 126.27 82.1827 126.463C82.1465 126.655 82.0727 126.839 81.9655 127.002V126.996ZM81.6467 124.77C81.3664 124.587 81.0379 124.491 80.703 124.494C80.368 124.497 80.0414 124.6 79.7647 124.788C79.4882 124.977 79.2737 125.244 79.1487 125.555C79.0236 125.866 78.9936 126.207 79.0624 126.535C79.1312 126.863 79.2957 127.163 79.5351 127.397C79.7745 127.631 80.0781 127.789 80.4074 127.851C80.7366 127.913 81.0768 127.875 81.3849 127.744C81.6929 127.612 81.955 127.392 82.138 127.111C82.3828 126.736 82.4686 126.278 82.3765 125.839C82.2844 125.4 82.0219 125.016 81.6467 124.77ZM81.9655 126.996C81.8053 127.242 81.5757 127.436 81.3059 127.551C81.036 127.666 80.738 127.699 80.4495 127.646C80.1609 127.592 79.8949 127.453 79.6849 127.248C79.475 127.043 79.3305 126.78 79.2699 126.493C79.2092 126.206 79.235 125.907 79.3442 125.635C79.4533 125.362 79.6408 125.128 79.8829 124.962C80.125 124.797 80.4108 124.706 80.7044 124.702C80.9979 124.699 81.2858 124.782 81.5318 124.943C81.6958 125.049 81.8372 125.187 81.9479 125.348C82.0585 125.509 82.1362 125.691 82.1765 125.882C82.2168 126.073 82.219 126.27 82.1827 126.463C82.1465 126.655 82.0727 126.839 81.9655 127.002V126.996ZM82.6658 123.202C82.0748 122.818 81.3832 122.619 80.6786 122.628C79.9738 122.637 79.2877 122.854 78.7067 123.253C78.1257 123.652 77.6761 124.214 77.4146 124.869C77.1531 125.523 77.0915 126.241 77.2375 126.93C77.3836 127.619 77.7308 128.25 78.2352 128.742C78.7396 129.235 79.3787 129.566 80.0715 129.695C80.7643 129.824 81.4798 129.745 82.1276 129.467C82.7754 129.19 83.3265 128.726 83.7105 128.136C83.9667 127.743 84.1417 127.304 84.228 126.843C84.3134 126.383 84.3076 125.91 84.2106 125.453C84.1135 124.994 83.9269 124.56 83.6624 124.174C83.397 123.788 83.0586 123.458 82.6658 123.202ZM82.3574 127.252C82.1466 127.577 81.8443 127.831 81.4889 127.983C81.1334 128.136 80.7408 128.18 80.3606 128.108C79.9804 128.038 79.6298 127.855 79.3532 127.585C79.0766 127.315 78.8864 126.969 78.8066 126.591C78.7268 126.212 78.761 125.818 78.905 125.459C79.049 125.1 79.2962 124.792 79.6155 124.574C79.9346 124.355 80.3114 124.237 80.6981 124.233C81.0848 124.228 81.464 124.34 81.7878 124.551C82.0031 124.691 82.1886 124.872 82.3339 125.084C82.479 125.296 82.5809 125.535 82.6338 125.786C82.6867 126.037 82.6896 126.297 82.6421 126.549C82.5947 126.802 82.498 127.043 82.3574 127.257V127.252ZM82.138 127.111C82.3189 126.831 82.413 126.504 82.4082 126.171C82.4033 125.837 82.2998 125.512 82.1107 125.238C81.9216 124.963 81.6554 124.751 81.3456 124.627C81.0359 124.504 80.6965 124.475 80.3703 124.544C80.0441 124.613 79.7457 124.778 79.5127 125.016C79.2797 125.254 79.1226 125.557 79.0613 125.885C79 126.212 79.0371 126.551 79.168 126.858C79.2989 127.164 79.5177 127.426 79.7968 127.608C80.1729 127.851 80.63 127.937 81.0685 127.845C81.507 127.752 81.8914 127.49 82.138 127.116V127.111ZM81.9655 126.996C81.8053 127.242 81.5757 127.436 81.3059 127.551C81.036 127.666 80.738 127.699 80.4495 127.646C80.1609 127.592 79.8949 127.453 79.6849 127.248C79.475 127.043 79.3305 126.78 79.2699 126.493C79.2092 126.206 79.235 125.907 79.3442 125.635C79.4533 125.362 79.6408 125.128 79.8829 124.962C80.125 124.797 80.4108 124.706 80.7044 124.702C80.9979 124.699 81.2858 124.782 81.5318 124.943C81.6958 125.049 81.8372 125.187 81.9479 125.348C82.0585 125.509 82.1362 125.691 82.1765 125.882C82.2168 126.073 82.219 126.27 82.1827 126.463C82.1465 126.655 82.0727 126.839 81.9655 127.002V126.996ZM81.6467 124.77C81.3664 124.587 81.0379 124.491 80.703 124.494C80.368 124.497 80.0414 124.6 79.7647 124.788C79.4882 124.977 79.2737 125.244 79.1487 125.555C79.0236 125.866 78.9936 126.207 79.0624 126.535C79.1312 126.863 79.2957 127.163 79.5351 127.397C79.7745 127.631 80.0781 127.789 80.4074 127.851C80.7366 127.913 81.0768 127.875 81.3849 127.744C81.6929 127.612 81.955 127.392 82.138 127.111C82.3828 126.736 82.4686 126.278 82.3765 125.839C82.2844 125.4 82.0219 125.016 81.6467 124.77ZM81.9655 126.996C81.8053 127.242 81.5757 127.436 81.3059 127.551C81.036 127.666 80.738 127.699 80.4495 127.646C80.1609 127.592 79.8949 127.453 79.6849 127.248C79.475 127.043 79.3305 126.78 79.2699 126.493C79.2092 126.206 79.235 125.907 79.3442 125.635C79.4533 125.362 79.6408 125.128 79.8829 124.962C80.125 124.797 80.4108 124.706 80.7044 124.702C80.9979 124.699 81.2858 124.782 81.5318 124.943C81.6958 125.049 81.8372 125.187 81.9479 125.348C82.0585 125.509 82.1362 125.691 82.1765 125.882C82.2168 126.073 82.219 126.27 82.1827 126.463C82.1465 126.655 82.0727 126.839 81.9655 127.002V126.996ZM81.6467 124.77C81.3664 124.587 81.0379 124.491 80.703 124.494C80.368 124.497 80.0414 124.6 79.7647 124.788C79.4882 124.977 79.2737 125.244 79.1487 125.555C79.0236 125.866 78.9936 126.207 79.0624 126.535C79.1312 126.863 79.2957 127.163 79.5351 127.397C79.7745 127.631 80.0781 127.789 80.4074 127.851C80.7366 127.913 81.0768 127.875 81.3849 127.744C81.6929 127.612 81.955 127.392 82.138 127.111C82.3828 126.736 82.4686 126.278 82.3765 125.839C82.2844 125.4 82.0219 125.016 81.6467 124.77ZM81.9655 126.996C81.8053 127.242 81.5757 127.436 81.3059 127.551C81.036 127.666 80.738 127.699 80.4495 127.646C80.1609 127.592 79.8949 127.453 79.6849 127.248C79.475 127.043 79.3305 126.78 79.2699 126.493C79.2092 126.206 79.235 125.907 79.3442 125.635C79.4533 125.362 79.6408 125.128 79.8829 124.962C80.125 124.797 80.4108 124.706 80.7044 124.702C80.9979 124.699 81.2858 124.782 81.5318 124.943C81.6958 125.049 81.8372 125.187 81.9479 125.348C82.0585 125.509 82.1362 125.691 82.1765 125.882C82.2168 126.073 82.219 126.27 82.1827 126.463C82.1465 126.655 82.0727 126.839 81.9655 127.002V126.996Z" fill="#DBDBDB"/>
<path d="M79.4312 129.432L78.2815 128.685L77.8164 129.536L78.8407 130.2L79.4312 129.432Z" fill="#DBDBDB"/>
<path d="M77.4968 127.618L77.2147 126.28L76.2793 126.552L76.5301 127.749L77.4968 127.618Z" fill="#DBDBDB"/>
<path d="M77.4082 124.974L78.1554 123.824L77.3037 123.359L76.6348 124.378L77.4082 124.974Z" fill="#DBDBDB"/>
<path d="M79.2224 123.041L80.5602 122.753L80.2885 121.823L79.0918 122.074L79.2224 123.041Z" fill="#DBDBDB"/>
<path d="M81.8652 122.952L83.0148 123.699L83.48 122.842L82.461 122.178L81.8652 122.952Z" fill="#DBDBDB"/>
<path d="M83.7988 124.76L84.0858 126.103L85.0164 125.826L84.7651 124.634L83.7988 124.76Z" fill="#DBDBDB"/>
<path d="M83.8879 127.409L83.1406 128.559L83.9924 129.024L84.6609 128L83.8879 127.409Z" fill="#DBDBDB"/>
<path d="M82.0793 129.342L80.7363 129.625L81.0133 130.561L82.2048 130.309L82.0793 129.342Z" fill="#DBDBDB"/>
<path d="M106.6 139.094L108.267 139.408L113.022 107.201L111.126 106.851L106.6 139.094Z" fill="#ECE9FF"/>
<path d="M92.0352 133.994L94.5075 112.474L111.125 106.851C111.125 106.851 106.599 139.444 106.599 139.094L92.0352 133.994Z" fill="#ECE9FF"/>
<path opacity="0.4" d="M92.0352 133.994L94.5075 112.474L111.125 106.851C111.125 106.851 106.599 139.444 106.599 139.094L92.0352 133.994Z" fill="white"/>
<path d="M51.7556 113.347C51.4839 111.565 51.3375 109.767 51.233 107.969C51.1807 107.071 51.1598 106.167 51.1389 105.268C51.118 104.369 51.1076 103.465 51.1389 102.561V102.326H51.3688C54.6715 102.148 57.969 101.929 61.2978 101.804C64.6265 101.677 67.9031 101.49 71.2267 101.385C67.9292 101.683 64.637 101.939 61.3396 102.179C58.0421 102.42 54.7394 102.618 51.4421 102.843L51.6824 102.597V105.289L51.7138 107.98C51.7138 108.879 51.7138 109.777 51.7608 110.671L51.7556 113.347Z" fill="white"/>
<path d="M96.8242 112.793C97.8692 112.302 98.9143 111.847 99.9593 111.429C101.004 111.011 102.071 110.607 103.157 110.217C104.234 109.851 105.315 109.49 106.419 109.172C107.516 108.848 108.63 108.589 109.758 108.393L110.035 108.346L109.987 108.612C109.726 110.008 109.465 111.398 109.131 112.793C109.251 111.377 109.423 109.965 109.601 108.56L109.831 108.784C108.733 109.046 107.647 109.349 106.56 109.674C105.472 109.997 104.391 110.337 103.314 110.687L96.8242 112.793Z" fill="white"/>
<path opacity="0.1" d="M58.9453 100.795L59.2275 106.177L59.4678 111.56L59.8807 122.33L60.2046 133.1L60.3354 138.488L60.4242 143.881L60.1419 138.498L59.9068 133.11L59.4887 122.346L59.1648 111.57L59.0341 106.183L58.9453 100.795Z" fill="black"/>
<path opacity="0.1" d="M57.4027 104.04C57.4427 104.23 57.4267 104.428 57.3567 104.609C57.2867 104.791 57.1657 104.949 57.0083 105.063C56.8509 105.177 56.6638 105.244 56.4695 105.254C56.2752 105.265 56.0821 105.218 55.9134 105.122C55.7885 105.048 55.6803 104.949 55.5957 104.831C55.5111 104.713 55.452 104.579 55.4221 104.437C55.3957 104.295 55.3987 104.15 55.4311 104.01C55.4634 103.869 55.5245 103.738 55.6102 103.622C55.6954 103.514 55.8011 103.423 55.9213 103.356C56.0414 103.289 56.1737 103.246 56.3105 103.23C56.5605 103.205 56.8108 103.275 57.0126 103.424C57.2143 103.574 57.3533 103.793 57.4027 104.04ZM57.4027 104.04C57.365 103.858 57.2663 103.694 57.123 103.577C56.9798 103.458 56.8005 103.393 56.6149 103.39C56.4292 103.388 56.2484 103.449 56.1021 103.563C55.9559 103.678 55.8532 103.839 55.8108 104.02C55.7684 104.2 55.789 104.39 55.8692 104.557C55.9494 104.725 56.0842 104.86 56.2516 104.94C56.419 105.021 56.6087 105.041 56.7895 104.999C56.9703 104.958 57.1313 104.855 57.2459 104.709C57.3192 104.615 57.3711 104.507 57.3982 104.391C57.4253 104.276 57.4268 104.156 57.4027 104.04Z" fill="black"/>
<path opacity="0.1" d="M57.7757 110.494C57.8188 110.739 57.7725 110.993 57.6449 111.208C57.5174 111.422 57.3173 111.584 57.0807 111.664C56.9454 111.705 56.8029 111.718 56.6625 111.7C56.522 111.683 56.3868 111.637 56.2656 111.564C56.1443 111.491 56.0398 111.394 55.9588 111.277C55.8777 111.161 55.822 111.03 55.7952 110.891C55.7687 110.749 55.7717 110.604 55.8041 110.463C55.8365 110.323 55.8975 110.191 55.9833 110.076C56.0684 109.967 56.1742 109.877 56.2943 109.809C56.4145 109.742 56.5468 109.699 56.6836 109.683C56.9336 109.659 57.1838 109.728 57.3856 109.878C57.5873 110.028 57.7264 110.247 57.7757 110.494ZM57.7757 110.494C57.7547 110.38 57.7098 110.273 57.6438 110.179C57.5779 110.085 57.4925 110.006 57.3934 109.947C57.2944 109.889 57.184 109.853 57.0696 109.84C56.9554 109.828 56.8397 109.84 56.7306 109.877C56.5787 109.924 56.4436 110.014 56.3419 110.136C56.2403 110.258 56.1762 110.407 56.1577 110.565C56.1392 110.723 56.1669 110.883 56.2375 111.025C56.3082 111.168 56.4187 111.287 56.5556 111.367C56.6925 111.448 56.85 111.487 57.0089 111.481C57.1677 111.473 57.321 111.42 57.4503 111.328C57.5796 111.235 57.6791 111.107 57.7369 110.959C57.7947 110.811 57.8081 110.649 57.7757 110.494Z" fill="black"/>
<path opacity="0.1" d="M58.012 117.345C58.0552 117.591 58.0088 117.844 57.8813 118.059C57.7538 118.273 57.5536 118.435 57.317 118.515C57.0509 118.592 56.7653 118.56 56.5227 118.426C56.3978 118.352 56.2897 118.254 56.2051 118.136C56.1205 118.018 56.0614 117.884 56.0315 117.742C56.005 117.6 56.0081 117.455 56.0404 117.315C56.0728 117.175 56.1338 117.042 56.2196 116.927C56.3375 116.771 56.4976 116.655 56.6805 116.588C56.8636 116.523 57.0618 116.511 57.2512 116.555C57.4407 116.6 57.6133 116.698 57.7483 116.838C57.8832 116.977 57.9749 117.154 58.012 117.345ZM58.012 117.345C57.991 117.232 57.9461 117.124 57.8802 117.03C57.8142 116.936 57.7288 116.857 57.6298 116.799C57.5307 116.74 57.4203 116.703 57.306 116.691C57.1917 116.679 57.0761 116.692 56.9669 116.728C56.815 116.775 56.68 116.865 56.5783 116.987C56.4766 117.109 56.4126 117.258 56.394 117.416C56.3755 117.574 56.4033 117.734 56.4739 117.876C56.5445 118.019 56.6551 118.137 56.792 118.219C56.9289 118.299 57.0864 118.338 57.2452 118.332C57.404 118.324 57.5574 118.272 57.6867 118.179C57.8159 118.086 57.9154 117.958 57.9732 117.81C58.031 117.662 58.0445 117.5 58.012 117.345Z" fill="black"/>
<path opacity="0.1" d="M58.2445 124.195C58.2876 124.441 58.2412 124.694 58.1137 124.909C57.9862 125.124 57.7861 125.286 57.5494 125.366C57.4142 125.402 57.2732 125.41 57.1347 125.39C56.9961 125.37 56.8629 125.323 56.7431 125.251C56.6232 125.179 56.519 125.083 56.4367 124.971C56.3544 124.857 56.2956 124.728 56.264 124.592C56.2374 124.451 56.2405 124.305 56.2728 124.165C56.3053 124.025 56.3662 123.893 56.4521 123.777C56.5699 123.623 56.73 123.505 56.913 123.44C57.096 123.373 57.2941 123.362 57.4837 123.406C57.6731 123.45 57.8457 123.548 57.9807 123.688C58.1156 123.829 58.2073 124.004 58.2445 124.195ZM58.2445 124.195C58.221 124.079 58.173 123.969 58.1035 123.873C58.0342 123.776 57.945 123.696 57.8421 123.636C57.641 123.531 57.4064 123.508 57.1889 123.573C56.9958 123.635 56.8322 123.765 56.7295 123.94C56.6267 124.114 56.5922 124.32 56.6323 124.519C56.6725 124.717 56.7847 124.894 56.9473 125.015C57.1099 125.135 57.3113 125.191 57.5129 125.172C57.6244 125.162 57.7327 125.129 57.8314 125.077C57.9301 125.024 58.0173 124.952 58.0877 124.864C58.1604 124.771 58.2119 124.662 58.239 124.547C58.266 124.432 58.2679 124.311 58.2445 124.195Z" fill="black"/>
<path opacity="0.1" d="M58.4816 131.041C58.5216 131.232 58.5056 131.429 58.4357 131.611C58.3657 131.792 58.2446 131.95 58.0872 132.065C57.9298 132.179 57.7427 132.245 57.5484 132.255C57.3541 132.266 57.161 132.22 56.9923 132.123C56.8679 132.05 56.7601 131.952 56.6755 131.835C56.591 131.718 56.5316 131.584 56.501 131.443C56.4738 131.301 56.4765 131.155 56.5088 131.014C56.5413 130.873 56.6026 130.739 56.6892 130.623C56.7743 130.515 56.8801 130.425 57.0002 130.358C57.1203 130.29 57.2526 130.247 57.3895 130.232C57.6382 130.214 57.8849 130.285 58.0852 130.434C58.2855 130.583 58.4261 130.798 58.4816 131.041ZM58.4816 131.041C58.459 130.929 58.4131 130.823 58.3467 130.729C58.2805 130.636 58.1952 130.558 58.0966 130.499C57.998 130.441 57.8883 130.405 57.7745 130.392C57.6608 130.379 57.5456 130.39 57.4365 130.425C57.2434 130.485 57.0798 130.616 56.977 130.791C56.8743 130.965 56.8397 131.171 56.8799 131.369C56.9201 131.569 57.0322 131.744 57.1948 131.865C57.3574 131.987 57.5588 132.042 57.7604 132.024C57.876 132.014 57.9882 131.981 58.0896 131.924C58.1911 131.868 58.2793 131.791 58.3486 131.698C58.4178 131.605 58.4664 131.498 58.4911 131.385C58.5159 131.272 58.5162 131.155 58.492 131.041H58.4816Z" fill="black"/>
<path opacity="0.1" d="M58.7376 137.893C58.7641 138.022 58.7646 138.156 58.7393 138.287C58.7139 138.417 58.6631 138.54 58.5898 138.651C58.5166 138.762 58.4222 138.857 58.3122 138.931C58.2022 139.006 58.0786 139.057 57.9485 139.084C57.8185 139.11 57.6845 139.111 57.5543 139.085C57.424 139.06 57.3 139.009 57.1894 138.936C57.0788 138.863 56.9836 138.768 56.9095 138.658C56.8353 138.548 56.7835 138.424 56.7571 138.295C56.7286 138.155 56.7294 138.013 56.7596 137.874C56.7899 137.736 56.8487 137.606 56.9324 137.491C57.0161 137.378 57.1228 137.281 57.2456 137.212C57.3684 137.141 57.5047 137.097 57.6455 137.082C57.8942 137.065 58.141 137.137 58.3413 137.285C58.5415 137.434 58.6821 137.649 58.7376 137.893ZM58.7376 137.893C58.7141 137.776 58.666 137.667 58.5965 137.572C58.5271 137.476 58.438 137.397 58.3353 137.339C58.236 137.285 58.1271 137.251 58.015 137.241C57.9028 137.23 57.7896 137.242 57.6821 137.276C57.489 137.337 57.3253 137.467 57.2226 137.641C57.1199 137.816 57.0852 138.022 57.1255 138.221C57.1657 138.419 57.2779 138.596 57.4404 138.716C57.6029 138.837 57.8044 138.894 58.006 138.875C58.1216 138.865 58.2339 138.831 58.3352 138.775C58.4366 138.719 58.5249 138.642 58.5941 138.549C58.6634 138.456 58.712 138.35 58.7368 138.236C58.7615 138.123 58.7618 138.005 58.7376 137.893Z" fill="black"/>
<path d="M60.8392 148.365L36.3438 155.789L37.2106 158.65L61.7061 151.227L60.8392 148.365Z" fill="#ECE9FF"/>
<path opacity="0.4" d="M60.8392 148.365L36.3438 155.789L37.2106 158.65L61.7061 151.227L60.8392 148.365Z" fill="white"/>
<path d="M49.0966 150.953L46.248 151.858L47.5941 156.092L50.4427 155.186L49.0966 150.953Z" fill="#ECE9FF"/>
<path d="M37.0136 162.845L30.6905 135.472L11.6113 139.998L21.0072 166.675L37.0136 162.845Z" fill="#ECE9FF"/>
<path d="M41.2474 161.455L37.0145 162.845L30.6914 135.472L36.7794 136.925L41.2474 161.455Z" fill="#ECE9FF"/>
<path opacity="0.2" d="M41.2474 161.455L37.0145 162.845L30.6914 135.472L36.7794 136.925L41.2474 161.455Z" fill="black"/>
<path d="M61.2765 153.041C63.0687 153.041 64.5217 151.589 64.5217 149.797C64.5217 148.004 63.0687 146.551 61.2765 146.551C59.4842 146.551 58.0312 148.004 58.0312 149.797C58.0312 151.589 59.4842 153.041 61.2765 153.041Z" fill="#ECE9FF"/>
<path d="M94.6976 148.297L93.8242 151.156L118.304 158.63L119.178 155.772L94.6976 148.297Z" fill="#ECE9FF"/>
<path opacity="0.4" d="M94.6976 148.297L93.8242 151.156L118.304 158.63L119.178 155.772L94.6976 148.297Z" fill="white"/>
<path d="M106.424 150.884L105.068 155.114L107.915 156.026L109.27 151.796L106.424 150.884Z" fill="#ECE9FF"/>
<path d="M118.498 162.824L124.874 135.462L143.948 140.029L134.494 166.686L118.498 162.824Z" fill="#ECE9FF"/>
<path d="M114.266 161.424L118.499 162.824L124.874 135.462L118.787 136.899L114.266 161.424Z" fill="#ECE9FF"/>
<path opacity="0.2" d="M114.266 161.424L118.499 162.824L124.874 135.462L118.787 136.899L114.266 161.424Z" fill="black"/>
<path d="M91.0098 149.718C91.0081 150.361 91.1964 150.99 91.5522 151.526C91.908 152.062 92.4147 152.48 93.0086 152.728C93.6016 152.976 94.2552 153.042 94.8863 152.918C95.5175 152.794 96.0972 152.486 96.5534 152.033C97.0095 151.579 97.3206 151 97.4475 150.37C97.5735 149.739 97.5105 149.085 97.2658 148.49C97.0211 147.896 96.6056 147.387 96.0715 147.029C95.5374 146.671 94.9087 146.479 94.2659 146.478C93.8388 146.477 93.4166 146.56 93.0219 146.721C92.6271 146.884 92.2688 147.122 91.9661 147.423C91.6642 147.724 91.4236 148.081 91.2594 148.475C91.0952 148.869 91.0106 149.292 91.0098 149.718Z" fill="#ECE9FF"/>
<path d="M115.52 115.954C115.598 115.881 123.468 108.586 132.723 111.084C142.187 113.634 149.999 127.89 150.077 128.036L152.69 126.614C152.345 125.982 144.193 111.078 133.481 108.194C122.579 105.257 113.805 113.42 113.439 113.786L115.52 115.954Z" fill="#ECE9FF"/>
<path opacity="0.4" d="M115.52 115.954C115.598 115.881 123.468 108.586 132.723 111.084C142.187 113.634 149.999 127.89 150.077 128.036L152.69 126.614C152.345 125.982 144.193 111.078 133.481 108.194C122.579 105.257 113.805 113.42 113.439 113.786L115.52 115.954Z" fill="white"/>
<path d="M146.592 142.386L152.278 139.402C151.562 138.034 151.117 136.54 150.967 135.002C150.841 132.912 151.667 132.201 152.571 131.72C154.557 130.675 155.743 131.088 156.552 131.564C157.687 132.238 158.842 133.607 159.804 135.431L165.473 132.437C163.906 129.5 162.014 127.347 159.809 126.046C157.603 124.744 154.06 123.693 149.581 126.046C146.096 127.885 144.319 131.198 144.57 135.379C144.774 137.825 145.461 140.207 146.592 142.386Z" fill="#ECE9FF"/>
<path d="M116.742 105.958C117.971 105.111 119.23 104.312 120.489 103.517C121.748 102.722 123.029 101.949 124.309 101.197C125.589 100.444 126.881 99.6968 128.187 98.9811L130.152 97.9104C130.815 97.5703 131.469 97.2153 132.143 96.8645C131.531 97.2933 130.899 97.6955 130.283 98.1086L128.391 99.3054C127.131 100.105 125.856 100.873 124.576 101.625C123.295 102.378 122 103.126 120.693 103.841C119.386 104.557 118.054 105.304 116.742 105.958Z" fill="#263238"/>
<path d="M113.461 118.196C115.223 119.2 116.89 120.334 118.535 121.494C120.181 122.654 121.78 123.877 123.302 125.215C121.556 124.201 119.862 123.1 118.227 121.917C116.597 120.741 114.982 119.545 113.461 118.196Z" fill="#263238"/>
<path d="M116.35 116.691C117.708 117.104 119.046 117.574 120.379 118.044C121.711 118.515 123.012 119.022 124.355 119.545C125.698 120.067 126.968 120.59 128.285 121.112L130.239 121.948C130.882 122.246 131.53 122.528 132.168 122.837C131.488 122.638 130.819 122.403 130.146 122.189L128.143 121.488C126.806 121.018 125.484 120.511 124.167 120.004C122.85 119.498 121.554 118.959 120.232 118.437C118.91 117.914 117.629 117.308 116.35 116.691Z" fill="#263238"/>
<path d="M120.207 107.117C121.508 106.778 122.82 106.496 124.131 106.224C125.443 105.952 126.744 105.702 128.082 105.466C129.42 105.231 130.721 105.017 132.048 104.829L134.039 104.552C134.708 104.479 135.371 104.39 136.046 104.332C135.392 104.505 134.739 104.646 134.086 104.808L132.121 105.226C130.81 105.503 129.509 105.749 128.171 105.984C126.833 106.219 125.527 106.433 124.199 106.617C122.872 106.799 121.545 107.003 120.207 107.117Z" fill="#263238"/>
<path d="M89.1934 115.254C89.4206 114.193 89.7714 113.161 90.2384 112.182C90.6912 111.19 91.2735 110.262 91.9685 109.422C92.6635 108.563 93.5617 107.89 94.581 107.462C95.6468 107.068 96.8204 107.078 97.8787 107.494C98.9394 107.934 99.7854 108.773 100.235 109.829C100.47 110.344 100.618 110.893 100.675 111.455C100.747 112.032 100.68 112.618 100.481 113.164C100.37 113.463 100.169 113.721 99.9065 113.901C99.763 113.995 99.6005 114.056 99.4304 114.078C99.2554 114.107 99.0755 114.091 98.9079 114.031C98.6127 113.885 98.3755 113.644 98.2336 113.347C98.1009 113.091 97.9973 112.821 97.9259 112.542C97.6614 111.464 97.5701 110.351 97.6539 109.245C97.7642 107.03 98.4169 104.876 99.5557 102.974C100.14 102.024 100.912 101.205 101.824 100.564C102.738 99.9233 103.795 99.5144 104.902 99.3734C105.443 99.2739 105.993 99.2266 106.542 99.2325C106.819 99.2258 107.096 99.2432 107.368 99.2847C107.643 99.2996 107.915 99.337 108.184 99.3942C109.261 99.6082 110.295 99.9988 111.246 100.549C112.181 101.109 113.041 101.784 113.807 102.561C114.577 103.323 115.254 104.173 115.824 105.095C114.607 103.314 112.998 101.836 111.121 100.773C110.186 100.265 109.174 99.9117 108.127 99.7284C107.607 99.6513 107.083 99.6106 106.558 99.6082C106.032 99.6165 105.507 99.6737 104.991 99.7807C103.951 99.9399 102.961 100.339 102.101 100.946C101.244 101.556 100.522 102.334 99.9795 103.235C98.8996 105.069 98.2842 107.139 98.1872 109.266C98.1009 110.316 98.1806 111.375 98.4219 112.401C98.5471 112.882 98.7719 113.446 99.1012 113.572C99.1402 113.584 99.1808 113.592 99.2214 113.597C99.2737 113.606 99.3268 113.606 99.3782 113.597C99.4769 113.586 99.5714 113.552 99.6552 113.499C99.8385 113.369 99.977 113.187 100.052 112.976C100.227 112.503 100.287 111.997 100.225 111.497C100.174 110.983 100.041 110.481 99.8327 110.008C99.4338 109.052 98.6865 108.285 97.7426 107.86C96.7781 107.458 95.699 107.424 94.7121 107.766C93.7268 108.155 92.8509 108.779 92.1617 109.584C90.7509 111.222 89.7358 113.162 89.1934 115.254Z" fill="#263238"/>
<path d="M40.9082 128.794C41.418 127.844 42.1318 127.017 42.9985 126.375C43.8651 125.707 44.862 125.228 45.9249 124.969C47.0006 124.704 48.1272 124.727 49.1909 125.037C50.2539 125.367 51.2146 125.964 51.9815 126.771C52.7442 127.573 53.3378 128.521 53.7269 129.557C54.1356 130.591 54.3139 131.702 54.2495 132.813C54.23 133.407 54.0172 133.98 53.6433 134.443C53.4126 134.686 53.0953 134.829 52.7601 134.84C52.4485 134.845 52.1401 134.776 51.8613 134.636C51.5756 134.484 51.3479 134.242 51.2133 133.946C51.0896 133.67 51.022 133.372 51.0147 133.069C51.0076 132.501 51.1013 131.937 51.2917 131.402C51.6569 130.358 52.1977 129.384 52.8908 128.522C53.5671 127.655 54.3643 126.89 55.258 126.249C57.0434 124.912 59.2688 124.299 61.4871 124.535C62.5802 124.665 63.6368 125.01 64.5964 125.549C65.5489 126.093 66.388 126.815 67.0682 127.676C67.7329 128.534 68.2746 129.48 68.6777 130.487C69.0893 131.485 69.3772 132.529 69.5347 133.596C69.1284 131.49 68.2095 129.516 66.8591 127.848C66.1888 127.031 65.3651 126.353 64.4344 125.852C63.5055 125.357 62.4878 125.052 61.4401 124.953C59.3326 124.76 57.2289 125.361 55.5402 126.636C53.8301 127.873 52.5231 129.587 51.7829 131.563C51.6057 132.04 51.5154 132.545 51.5164 133.053C51.5008 133.279 51.5458 133.504 51.6469 133.707C51.748 133.908 51.9014 134.08 52.0912 134.203C52.2923 134.309 52.5173 134.361 52.7444 134.354C52.8485 134.353 52.9512 134.329 53.0463 134.287C53.1414 134.246 53.2271 134.184 53.2984 134.109C53.5972 133.726 53.7656 133.256 53.7792 132.771C53.8297 131.728 53.6513 130.686 53.2566 129.719C52.8893 128.737 52.3356 127.836 51.6262 127.064C50.9131 126.289 50.0136 125.711 49.0133 125.382C48.012 125.065 46.9449 125.018 45.9197 125.246C43.8456 125.719 42.0436 126.995 40.9082 128.794Z" fill="#263238"/>
<path d="M132.122 29.8553C130.021 29.3673 127.837 29.3673 125.736 29.8553C124.704 30.0977 123.748 30.5893 122.951 31.2872C122.193 32.0055 121.728 32.9791 121.645 34.0202C121.586 35.0553 121.924 36.0737 122.59 36.8683C122.913 37.2764 123.299 37.6294 123.735 37.9134C124.15 38.1942 124.627 38.3733 125.125 38.436C125.346 38.4605 125.57 38.4187 125.768 38.3158C125.855 38.2682 125.931 38.2001 125.986 38.1172C126.018 38.0806 126.034 38.0231 126.065 37.9813C126.097 37.9395 126.065 37.8977 126.092 37.8611C126.092 37.5006 125.736 37.0512 125.365 36.7167C124.562 36.0368 123.659 35.4834 122.69 35.0758C120.757 34.1869 118.636 33.7833 116.512 33.9001C115.462 33.9705 114.438 34.255 113.503 34.7362C112.569 35.2203 111.762 35.9166 111.145 36.769C110.813 37.1796 110.519 37.6205 110.268 38.0858C110.138 38.317 110.026 38.5581 109.934 38.807C109.819 39.0446 109.726 39.291 109.651 39.5439C109.336 40.5581 109.189 41.6174 109.217 42.6793C109.297 44.8351 109.872 46.9435 110.9 48.8404C110.339 47.9132 109.892 46.9219 109.568 45.8879C109.232 44.8514 109.029 43.777 108.962 42.6897C108.907 41.5933 109.032 40.4953 109.332 39.4393C109.407 39.1737 109.499 38.9135 109.609 38.6607C109.702 38.4021 109.814 38.1506 109.944 37.9082C110.191 37.416 110.485 36.9487 110.822 36.5129C111.457 35.5945 112.305 34.8433 113.294 34.3233C114.281 33.8093 115.361 33.5001 116.471 33.4141C118.677 33.2743 120.884 33.678 122.899 34.5899C123.92 35.0231 124.867 35.6138 125.704 36.3405C125.918 36.5346 126.11 36.75 126.279 36.9832C126.477 37.2466 126.582 37.5683 126.577 37.8977C126.555 38.0734 126.488 38.2407 126.384 38.3837C126.286 38.5242 126.157 38.6404 126.008 38.7234C125.726 38.8731 125.405 38.9334 125.088 38.8959C124.512 38.824 123.962 38.6142 123.483 38.2844C123.011 37.9739 122.591 37.5893 122.24 37.1452C121.514 36.2688 121.156 35.1447 121.242 34.0098C121.359 32.8787 121.887 31.8298 122.726 31.0625C123.577 30.3519 124.589 29.8603 125.673 29.6307C126.739 29.399 127.829 29.3094 128.918 29.3641C130.002 29.4042 131.076 29.5691 132.122 29.8553Z" fill="#263238"/>
<path d="M39.1555 128.91C38.7366 128.778 38.2882 128.774 37.8669 128.897C37.4457 129.021 37.0705 129.265 36.7886 129.602C36.5067 129.939 36.3309 130.351 36.2833 130.787C36.2357 131.224 36.3185 131.665 36.5212 132.054C36.7239 132.444 37.0374 132.764 37.4221 132.975C37.8069 133.187 38.2456 133.279 38.683 133.241C39.1203 133.203 39.5366 133.037 39.8792 132.762C40.2219 132.487 40.4755 132.118 40.6082 131.7C40.7852 131.137 40.7315 130.527 40.4592 130.003C40.1868 129.481 39.7179 129.087 39.1555 128.91ZM40.3522 131.616C40.2363 131.984 40.014 132.308 39.7135 132.55C39.413 132.791 39.0476 132.938 38.6637 132.972C38.2797 133.006 37.8944 132.925 37.5564 132.74C37.2184 132.554 36.9429 132.273 36.7647 131.931C36.5865 131.589 36.5136 131.203 36.5553 130.82C36.597 130.436 36.7513 130.074 36.9988 129.779C37.2463 129.483 37.5758 129.268 37.9457 129.159C38.3156 129.051 38.7093 129.055 39.0771 129.171C39.5698 129.327 39.9806 129.672 40.2196 130.13C40.4586 130.588 40.5062 131.122 40.3522 131.616ZM39.1555 128.91C38.7366 128.778 38.2882 128.774 37.8669 128.897C37.4457 129.021 37.0705 129.265 36.7886 129.602C36.5067 129.939 36.3309 130.351 36.2833 130.787C36.2357 131.224 36.3185 131.665 36.5212 132.054C36.7239 132.444 37.0374 132.764 37.4221 132.975C37.8069 133.187 38.2456 133.279 38.683 133.241C39.1203 133.203 39.5366 133.037 39.8792 132.762C40.2219 132.487 40.4755 132.118 40.6082 131.7C40.7852 131.137 40.7315 130.527 40.4592 130.003C40.1868 129.481 39.7179 129.087 39.1555 128.91ZM40.3522 131.616C40.2363 131.984 40.014 132.308 39.7135 132.55C39.413 132.791 39.0476 132.938 38.6637 132.972C38.2797 133.006 37.8944 132.925 37.5564 132.74C37.2184 132.554 36.9429 132.273 36.7647 131.931C36.5865 131.589 36.5136 131.203 36.5553 130.82C36.597 130.436 36.7513 130.074 36.9988 129.779C37.2463 129.483 37.5758 129.268 37.9457 129.159C38.3156 129.051 38.7093 129.055 39.0771 129.171C39.5698 129.327 39.9806 129.672 40.2196 130.13C40.4586 130.588 40.5062 131.122 40.3522 131.616ZM39.1555 128.91C38.7366 128.778 38.2882 128.774 37.8669 128.897C37.4457 129.021 37.0705 129.265 36.7886 129.602C36.5067 129.939 36.3309 130.351 36.2833 130.787C36.2357 131.224 36.3185 131.665 36.5212 132.054C36.7239 132.444 37.0374 132.764 37.4221 132.975C37.8069 133.187 38.2456 133.279 38.683 133.241C39.1203 133.203 39.5366 133.037 39.8792 132.762C40.2219 132.487 40.4755 132.118 40.6082 131.7C40.7852 131.137 40.7315 130.527 40.4592 130.003C40.1868 129.481 39.7179 129.087 39.1555 128.91ZM40.3522 131.616C40.2363 131.984 40.014 132.308 39.7135 132.55C39.413 132.791 39.0476 132.938 38.6637 132.972C38.2797 133.006 37.8944 132.925 37.5564 132.74C37.2184 132.554 36.9429 132.273 36.7647 131.931C36.5865 131.589 36.5136 131.203 36.5553 130.82C36.597 130.436 36.7513 130.074 36.9988 129.779C37.2463 129.483 37.5758 129.268 37.9457 129.159C38.3156 129.051 38.7093 129.055 39.0771 129.171C39.5698 129.327 39.9806 129.672 40.2196 130.13C40.4586 130.588 40.5062 131.122 40.3522 131.616ZM39.8975 126.562C39.0099 126.279 38.0579 126.265 37.1623 126.522C36.2666 126.78 35.4678 127.298 34.8671 128.01C34.2664 128.723 33.8909 129.598 33.7883 130.524C33.6858 131.451 33.8607 132.386 34.291 133.213C34.7213 134.04 35.3875 134.72 36.205 135.167C37.0225 135.615 37.9546 135.809 38.8828 135.726C39.8112 135.643 40.6937 135.286 41.4187 134.7C42.1436 134.115 42.6782 133.327 42.9545 132.437C43.3223 131.253 43.2074 129.97 42.6349 128.871C42.0624 127.771 41.0785 126.941 39.8975 126.562ZM40.9426 131.788C40.7901 132.273 40.4975 132.701 40.1019 133.018C39.7062 133.336 39.2252 133.529 38.7198 133.573C38.2143 133.617 37.707 133.511 37.2621 133.267C36.8172 133.023 36.4546 132.653 36.2201 132.203C35.9856 131.753 35.8898 131.243 35.9447 130.739C35.9997 130.235 36.2031 129.758 36.529 129.369C36.8549 128.98 37.2888 128.696 37.7759 128.555C38.2629 128.412 38.7812 128.417 39.2652 128.569C39.5875 128.671 39.8865 128.836 40.1452 129.053C40.4038 129.27 40.6169 129.537 40.7723 129.837C40.9277 130.137 41.0222 130.465 41.0506 130.801C41.0789 131.138 41.0405 131.477 40.9374 131.799L40.9426 131.788ZM40.6134 131.689C40.746 131.27 40.7515 130.821 40.629 130.4C40.5066 129.978 40.2617 129.601 39.9254 129.318C39.5891 129.036 39.1764 128.859 38.7398 128.811C38.303 128.763 37.8619 128.846 37.472 129.048C37.0821 129.25 36.7611 129.564 36.5495 129.95C36.338 130.334 36.2455 130.774 36.2835 131.211C36.3217 131.649 36.4888 132.065 36.7638 132.409C37.0387 132.751 37.4091 133.004 37.8281 133.137C38.3874 133.311 38.9929 133.258 39.5132 132.989C40.0337 132.721 40.4271 132.257 40.6082 131.7L40.6134 131.689ZM40.3574 131.606C40.2415 131.973 40.0193 132.298 39.7187 132.54C39.4182 132.781 39.0529 132.928 38.6689 132.961C38.2849 132.995 37.8996 132.915 37.5616 132.729C37.2237 132.544 36.9481 132.263 36.7699 131.921C36.5917 131.579 36.5189 131.192 36.5606 130.809C36.6022 130.426 36.7565 130.063 37.004 129.768C37.2515 129.473 37.581 129.257 37.9509 129.149C38.3208 129.041 38.7146 129.045 39.0823 129.16C39.327 129.238 39.554 129.363 39.7502 129.528C39.9465 129.694 40.1082 129.896 40.2261 130.125C40.344 130.353 40.4159 130.602 40.4375 130.858C40.4592 131.114 40.4301 131.371 40.3522 131.616L40.3574 131.606ZM39.1607 128.899C38.7418 128.768 38.2935 128.763 37.8722 128.886C37.4509 129.01 37.0757 129.255 36.7938 129.592C36.512 129.928 36.3361 130.341 36.2885 130.777C36.2409 131.214 36.3237 131.654 36.5264 132.044C36.7291 132.433 37.0426 132.754 37.4274 132.964C37.8121 133.176 38.2508 133.269 38.6882 133.231C39.1255 133.192 39.5417 133.026 39.8844 132.752C40.2271 132.478 40.4807 132.108 40.6134 131.689C40.787 131.127 40.731 130.519 40.4578 129.999C40.1847 129.478 39.7164 129.086 39.1555 128.91L39.1607 128.899ZM40.3574 131.606C40.2415 131.973 40.0193 132.298 39.7187 132.54C39.4182 132.781 39.0529 132.928 38.6689 132.961C38.2849 132.995 37.8996 132.915 37.5616 132.729C37.2237 132.544 36.9481 132.263 36.7699 131.921C36.5917 131.579 36.5189 131.192 36.5606 130.809C36.6022 130.426 36.7565 130.063 37.004 129.768C37.2515 129.473 37.581 129.257 37.9509 129.149C38.3208 129.041 38.7146 129.045 39.0823 129.16C39.327 129.238 39.554 129.363 39.7502 129.528C39.9465 129.694 40.1082 129.896 40.2261 130.125C40.344 130.353 40.4159 130.602 40.4375 130.858C40.4592 131.114 40.4301 131.371 40.3522 131.616L40.3574 131.606ZM39.1607 128.899C38.7418 128.768 38.2935 128.763 37.8722 128.886C37.4509 129.01 37.0757 129.255 36.7938 129.592C36.512 129.928 36.3361 130.341 36.2885 130.777C36.2409 131.214 36.3237 131.654 36.5264 132.044C36.7291 132.433 37.0426 132.754 37.4274 132.964C37.8121 133.176 38.2508 133.269 38.6882 133.231C39.1255 133.192 39.5417 133.026 39.8844 132.752C40.2271 132.478 40.4807 132.108 40.6134 131.689C40.787 131.127 40.731 130.519 40.4578 129.999C40.1847 129.478 39.7164 129.086 39.1555 128.91L39.1607 128.899ZM40.3574 131.606C40.2415 131.973 40.0193 132.298 39.7187 132.54C39.4182 132.781 39.0529 132.928 38.6689 132.961C38.2849 132.995 37.8996 132.915 37.5616 132.729C37.2237 132.544 36.9481 132.263 36.7699 131.921C36.5917 131.579 36.5189 131.192 36.5606 130.809C36.6022 130.426 36.7565 130.063 37.004 129.768C37.2515 129.473 37.581 129.257 37.9509 129.149C38.3208 129.041 38.7146 129.045 39.0823 129.16C39.327 129.238 39.554 129.363 39.7502 129.528C39.9465 129.694 40.1082 129.896 40.2261 130.125C40.344 130.353 40.4159 130.602 40.4375 130.858C40.4592 131.114 40.4301 131.371 40.3522 131.616L40.3574 131.606Z" fill="#455A64"/>
<path d="M38.0008 135.583L36.2815 135.039L35.9941 136.288L37.52 136.769L38.0008 135.583Z" fill="#455A64"/>
<path d="M34.914 133.973L34.0831 132.374L32.9961 133.053L33.7381 134.475L34.914 133.973Z" fill="#455A64"/>
<path d="M33.866 130.654L34.4094 128.935L33.1605 128.647L32.6797 130.173L33.866 130.654Z" fill="#455A64"/>
<path d="M35.4783 127.566L37.0721 126.735L36.398 125.648L34.9766 126.391L35.4783 127.566Z" fill="#455A64"/>
<path d="M38.7969 126.521L40.5161 127.059L40.8035 125.815L39.2776 125.335L38.7969 126.521Z" fill="#455A64"/>
<path d="M41.8848 128.131L42.7156 129.724L43.8026 129.05L43.0606 127.629L41.8848 128.131Z" fill="#455A64"/>
<path d="M42.9283 131.449L42.3848 133.168L43.6337 133.455L44.1144 131.929L42.9283 131.449Z" fill="#455A64"/>
<path d="M41.3198 134.537L39.7207 135.368L40.4001 136.455L41.8214 135.713L41.3198 134.537Z" fill="#455A64"/>
<path d="M125.801 113.979C126.644 112.842 127.132 111.48 127.202 110.066C127.272 108.651 126.921 107.248 126.193 106.033C125.466 104.818 124.394 103.846 123.114 103.241C121.834 102.635 120.403 102.422 119.002 102.63C117.602 102.838 116.294 103.457 115.244 104.407C114.194 105.358 113.451 106.599 113.107 107.973C112.763 109.347 112.834 110.792 113.311 112.124C113.789 113.458 114.651 114.62 115.788 115.464C117.313 116.594 119.224 117.073 121.102 116.794C122.979 116.516 124.67 115.503 125.801 113.979ZM122.738 111.706C122.344 112.237 121.801 112.639 121.178 112.862C120.555 113.085 119.88 113.117 119.238 112.956C118.596 112.795 118.017 112.447 117.573 111.957C117.129 111.467 116.84 110.855 116.744 110.2C116.648 109.546 116.747 108.877 117.031 108.28C117.314 107.682 117.768 107.182 118.336 106.842C118.905 106.503 119.56 106.339 120.221 106.373C120.882 106.406 121.518 106.634 122.049 107.029C122.401 107.291 122.699 107.619 122.925 107.996C123.15 108.372 123.299 108.79 123.363 109.224C123.427 109.659 123.406 110.102 123.298 110.527C123.191 110.953 123.001 111.354 122.738 111.706Z" fill="#263238"/>
<path d="M117.066 116.043L114.855 114.403L113.82 116.059L115.785 117.517L117.066 116.043Z" fill="#263238"/>
<path d="M113.415 112.177L113.013 109.454L111.105 109.888L111.466 112.312L113.415 112.177Z" fill="#263238"/>
<path d="M113.566 106.856L115.206 104.646L113.55 103.606L112.092 105.571L113.566 106.856Z" fill="#263238"/>
<path d="M117.431 103.204L120.154 102.801L119.72 100.894L117.295 101.254L117.431 103.204Z" fill="#263238"/>
<path d="M122.752 103.35L124.963 104.991L125.997 103.34L124.033 101.877L122.752 103.35Z" fill="#263238"/>
<path d="M126.406 107.222L126.809 109.945L128.716 109.506L128.355 107.087L126.406 107.222Z" fill="#263238"/>
<path d="M126.254 112.537L124.613 114.747L126.27 115.787L127.728 113.822L126.254 112.537Z" fill="#263238"/>
<path d="M122.386 116.195L119.664 116.597L120.098 118.499L122.522 118.144L122.386 116.195Z" fill="#263238"/>
<path d="M117.49 110.054L119.01 111.973L121.43 111.612L122.329 109.338L120.809 107.421L118.388 107.782L117.49 110.054ZM120.369 109.077C120.451 109.138 120.52 109.214 120.572 109.302C120.624 109.389 120.658 109.486 120.673 109.586C120.688 109.688 120.683 109.79 120.658 109.888C120.634 109.987 120.59 110.08 120.529 110.162C120.468 110.243 120.391 110.312 120.304 110.364C120.217 110.417 120.12 110.451 120.02 110.466C119.919 110.48 119.817 110.476 119.718 110.451C119.619 110.426 119.526 110.382 119.444 110.321C119.28 110.198 119.171 110.014 119.142 109.81C119.113 109.606 119.165 109.399 119.288 109.234C119.349 109.153 119.426 109.085 119.514 109.035C119.602 108.984 119.699 108.951 119.799 108.938C119.9 108.925 120.002 108.932 120.099 108.959C120.197 108.985 120.289 109.031 120.369 109.093V109.077Z" fill="#263238"/>
<path d="M111.198 49.2429C110.831 49.1271 110.438 49.1228 110.069 49.2303C109.7 49.338 109.371 49.5527 109.124 49.8474C108.877 50.1422 108.722 50.5035 108.681 50.8859C108.639 51.2683 108.712 51.6545 108.89 51.9955C109.067 52.3366 109.343 52.6172 109.679 52.8019C110.017 52.9866 110.402 53.0671 110.785 53.0331C111.168 52.9991 111.532 52.8522 111.832 52.611C112.132 52.3698 112.353 52.0451 112.469 51.6781C112.622 51.1868 112.575 50.6544 112.337 50.1979C112.099 49.7413 111.689 49.3979 111.198 49.2429ZM112.244 51.6102C112.142 51.9326 111.947 52.2177 111.683 52.4293C111.419 52.6408 111.098 52.7695 110.762 52.7988C110.425 52.8281 110.087 52.7569 109.791 52.5941C109.494 52.4313 109.253 52.1843 109.097 51.8842C108.941 51.5842 108.878 51.2447 108.916 50.9086C108.953 50.5725 109.089 50.255 109.306 49.9963C109.523 49.7376 109.813 49.5492 110.138 49.4552C110.463 49.361 110.808 49.3654 111.131 49.4676C111.344 49.5353 111.542 49.6444 111.713 49.7888C111.885 49.9332 112.026 50.1101 112.129 50.309C112.231 50.5081 112.294 50.7255 112.314 50.9486C112.332 51.1719 112.307 51.3967 112.238 51.6102H112.244ZM111.198 49.2429C110.831 49.1271 110.438 49.1228 110.069 49.2303C109.7 49.338 109.371 49.5527 109.124 49.8474C108.877 50.1422 108.722 50.5035 108.681 50.8859C108.639 51.2683 108.712 51.6545 108.89 51.9955C109.067 52.3366 109.343 52.6172 109.679 52.8019C110.017 52.9866 110.402 53.0671 110.785 53.0331C111.168 52.9991 111.532 52.8522 111.832 52.611C112.132 52.3698 112.353 52.0451 112.469 51.6781C112.622 51.1868 112.575 50.6544 112.337 50.1979C112.099 49.7413 111.689 49.3979 111.198 49.2429ZM112.244 51.6102C112.142 51.9326 111.947 52.2177 111.683 52.4293C111.419 52.6408 111.098 52.7695 110.762 52.7988C110.425 52.8281 110.087 52.7569 109.791 52.5941C109.494 52.4313 109.253 52.1843 109.097 51.8842C108.941 51.5842 108.878 51.2447 108.916 50.9086C108.953 50.5725 109.089 50.255 109.306 49.9963C109.523 49.7376 109.813 49.5492 110.138 49.4552C110.463 49.361 110.808 49.3654 111.131 49.4676C111.344 49.5353 111.542 49.6444 111.713 49.7888C111.885 49.9332 112.026 50.1101 112.129 50.309C112.231 50.5081 112.294 50.7255 112.314 50.9486C112.332 51.1719 112.307 51.3967 112.238 51.6102H112.244ZM111.198 49.2429C110.831 49.1271 110.438 49.1228 110.069 49.2303C109.7 49.338 109.371 49.5527 109.124 49.8474C108.877 50.1422 108.722 50.5035 108.681 50.8859C108.639 51.2683 108.712 51.6545 108.89 51.9955C109.067 52.3366 109.343 52.6172 109.679 52.8019C110.017 52.9866 110.402 53.0671 110.785 53.0331C111.168 52.9991 111.532 52.8522 111.832 52.611C112.132 52.3698 112.353 52.0451 112.469 51.6781C112.622 51.1868 112.575 50.6544 112.337 50.1979C112.099 49.7413 111.689 49.3979 111.198 49.2429ZM112.244 51.6102C112.142 51.9326 111.947 52.2177 111.683 52.4293C111.419 52.6408 111.098 52.7695 110.762 52.7988C110.425 52.8281 110.087 52.7569 109.791 52.5941C109.494 52.4313 109.253 52.1843 109.097 51.8842C108.941 51.5842 108.878 51.2447 108.916 50.9086C108.953 50.5725 109.089 50.255 109.306 49.9963C109.523 49.7376 109.813 49.5492 110.138 49.4552C110.463 49.361 110.808 49.3654 111.131 49.4676C111.344 49.5353 111.542 49.6444 111.713 49.7888C111.885 49.9332 112.026 50.1101 112.129 50.309C112.231 50.5081 112.294 50.7255 112.314 50.9486C112.332 51.1719 112.307 51.3967 112.238 51.6102H112.244ZM111.852 47.1839C111.079 46.9405 110.252 46.9317 109.474 47.1584C108.696 47.3853 108.002 47.8375 107.482 48.4582C106.962 49.0788 106.636 49.8399 106.548 50.6453C106.46 51.4506 106.612 52.264 106.986 52.9827C107.36 53.7014 107.939 54.2931 108.649 54.6829C109.359 55.0728 110.169 55.2434 110.976 55.1731C111.783 55.1029 112.552 54.7948 113.184 54.2881C113.816 53.7813 114.283 53.0986 114.527 52.3261C114.854 51.2908 114.757 50.1682 114.257 49.2044C113.757 48.2405 112.897 47.5139 111.862 47.1839H111.852ZM112.761 51.7721C112.628 52.1962 112.372 52.5713 112.025 52.8498C111.679 53.1284 111.258 53.2979 110.815 53.337C110.372 53.3761 109.927 53.283 109.538 53.0695C109.148 52.856 108.83 52.5316 108.624 52.1374C108.419 51.7433 108.335 51.297 108.383 50.8551C108.431 50.4132 108.61 49.9955 108.895 49.6549C109.181 49.3143 109.561 49.066 109.988 48.9415C110.414 48.817 110.869 48.8219 111.293 48.9555C111.86 49.1355 112.332 49.5332 112.606 50.0613C112.881 50.5893 112.935 51.2046 112.756 51.7721H112.761ZM112.474 51.6781C112.589 51.3114 112.593 50.9188 112.485 50.5498C112.377 50.1809 112.163 49.852 111.868 49.605C111.574 49.3581 111.213 49.2039 110.831 49.162C110.449 49.1202 110.063 49.1925 109.722 49.3699C109.381 49.5473 109.1 49.8218 108.916 50.1588C108.73 50.4957 108.649 50.88 108.682 51.2628C108.716 51.6457 108.862 52.0103 109.102 52.3102C109.343 52.6101 109.666 52.832 110.033 52.948C110.525 53.1019 111.057 53.0547 111.513 52.8166C111.97 52.5786 112.314 52.1691 112.469 51.6781H112.474ZM112.244 51.6102C112.142 51.9326 111.947 52.2177 111.683 52.4293C111.419 52.6408 111.098 52.7695 110.762 52.7988C110.425 52.8281 110.087 52.7569 109.791 52.5941C109.494 52.4313 109.253 52.1843 109.097 51.8842C108.941 51.5842 108.878 51.2447 108.916 50.9086C108.953 50.5725 109.089 50.255 109.306 49.9963C109.523 49.7376 109.813 49.5492 110.138 49.4552C110.463 49.361 110.808 49.3654 111.131 49.4676C111.344 49.5353 111.542 49.6444 111.713 49.7888C111.885 49.9332 112.026 50.1101 112.129 50.309C112.231 50.5081 112.294 50.7255 112.314 50.9486C112.332 51.1719 112.307 51.3967 112.238 51.6102H112.244ZM111.198 49.2429C110.831 49.1271 110.438 49.1228 110.069 49.2303C109.7 49.338 109.371 49.5527 109.124 49.8474C108.877 50.1422 108.722 50.5035 108.681 50.8859C108.639 51.2683 108.712 51.6545 108.89 51.9955C109.067 52.3366 109.343 52.6172 109.679 52.8019C110.017 52.9866 110.402 53.0671 110.785 53.0331C111.168 52.9991 111.532 52.8522 111.832 52.611C112.132 52.3698 112.353 52.0451 112.469 51.6781C112.622 51.1868 112.575 50.6544 112.337 50.1979C112.099 49.7413 111.689 49.3979 111.198 49.2429ZM112.244 51.6102C112.142 51.9326 111.947 52.2177 111.683 52.4293C111.419 52.6408 111.098 52.7695 110.762 52.7988C110.425 52.8281 110.087 52.7569 109.791 52.5941C109.494 52.4313 109.253 52.1843 109.097 51.8842C108.941 51.5842 108.878 51.2447 108.916 50.9086C108.953 50.5725 109.089 50.255 109.306 49.9963C109.523 49.7376 109.813 49.5492 110.138 49.4552C110.463 49.361 110.808 49.3654 111.131 49.4676C111.344 49.5353 111.542 49.6444 111.713 49.7888C111.885 49.9332 112.026 50.1101 112.129 50.309C112.231 50.5081 112.294 50.7255 112.314 50.9486C112.332 51.1719 112.307 51.3967 112.238 51.6102H112.244ZM111.198 49.2429C110.831 49.1271 110.438 49.1228 110.069 49.2303C109.7 49.338 109.371 49.5527 109.124 49.8474C108.877 50.1422 108.722 50.5035 108.681 50.8859C108.639 51.2683 108.712 51.6545 108.89 51.9955C109.067 52.3366 109.343 52.6172 109.679 52.8019C110.017 52.9866 110.402 53.0671 110.785 53.0331C111.168 52.9991 111.532 52.8522 111.832 52.611C112.132 52.3698 112.353 52.0451 112.469 51.6781C112.622 51.1868 112.575 50.6544 112.337 50.1979C112.099 49.7413 111.689 49.3979 111.198 49.2429ZM112.244 51.6102C112.142 51.9326 111.947 52.2177 111.683 52.4293C111.419 52.6408 111.098 52.7695 110.762 52.7988C110.425 52.8281 110.087 52.7569 109.791 52.5941C109.494 52.4313 109.253 52.1843 109.097 51.8842C108.941 51.5842 108.878 51.2447 108.916 50.9086C108.953 50.5725 109.089 50.255 109.306 49.9963C109.523 49.7376 109.813 49.5492 110.138 49.4552C110.463 49.361 110.808 49.3654 111.131 49.4676C111.344 49.5353 111.542 49.6444 111.713 49.7888C111.885 49.9332 112.026 50.1101 112.129 50.309C112.231 50.5081 112.294 50.7255 112.314 50.9486C112.332 51.1719 112.307 51.3967 112.238 51.6102H112.244Z" fill="#263238"/>
<path d="M110.185 55.0799L108.681 54.6044L108.43 55.6965L109.767 56.1146L110.185 55.0799Z" fill="#263238"/>
<path d="M107.483 53.669L106.756 52.2737L105.805 52.8642L106.453 54.1079L107.483 53.669Z" fill="#263238"/>
<path d="M106.567 50.7634L107.038 49.2636L105.951 49.0128L105.527 50.3453L106.567 50.7634Z" fill="#263238"/>
<path d="M107.972 48.0617L109.373 47.3352L108.776 46.3842L107.533 47.0322L107.972 48.0617Z" fill="#263238"/>
<path d="M110.879 47.1473L112.384 47.6229L112.636 46.5307L111.298 46.1127L110.879 47.1473Z" fill="#263238"/>
<path d="M113.582 48.5581L114.309 49.9534L115.259 49.3629L114.611 48.1191L113.582 48.5581Z" fill="#263238"/>
<path d="M114.497 51.4637L114.021 52.9635L115.113 53.2196L115.537 51.8818L114.497 51.4637Z" fill="#263238"/>
<path d="M113.089 54.1654L111.689 54.8918L112.285 55.8428L113.528 55.1948L113.089 54.1654Z" fill="#263238"/>
<path d="M136.208 54.1915C134.793 52.0937 134.03 49.625 134.013 47.095C134.013 38.1119 143.879 30.8273 156.045 30.8273C168.21 30.8273 178.066 38.1119 178.066 47.095C178.066 56.078 168.21 63.3679 156.045 63.3679C150.145 63.3679 144.799 61.6591 140.849 58.8686L133.287 60.7968L136.208 54.1915Z" fill="white"/>
<path d="M136.208 54.1916C134.829 52.2138 134.049 49.8802 133.961 47.4704C133.874 45.0607 134.484 42.6769 135.716 40.6046C136.946 38.5332 138.597 36.7424 140.561 35.3476C142.507 33.9337 144.664 32.8351 146.952 32.0919C149.235 31.3493 151.597 30.8843 153.991 30.7071C156.387 30.5465 158.793 30.6693 161.161 31.0729C161.752 31.1931 162.347 31.2715 162.927 31.4283L164.667 31.8986L166.365 32.4943C166.93 32.6981 167.469 32.9751 168.023 33.2103C170.21 34.2311 172.21 35.6145 173.938 37.302C175.68 39.0002 176.987 41.0941 177.747 43.4056C178.482 45.7426 178.508 48.2448 177.82 50.5963C177.099 52.9206 175.825 55.0351 174.105 56.7574C172.404 58.4764 170.421 59.8905 168.242 60.938C166.073 61.9847 163.769 62.7235 161.396 63.1328C159.033 63.5529 156.628 63.6898 154.232 63.5404C151.836 63.3968 149.468 62.9472 147.187 62.2026C144.902 61.4679 142.741 60.3895 140.781 59.0044H140.874L133.286 60.8544L133.172 60.8805L133.224 60.776L136.208 54.1916ZM136.208 54.1916L133.313 60.8178L133.245 60.7394L140.817 58.7536H140.869L140.917 58.785C144.881 61.4212 149.495 62.9163 154.252 63.1066C156.618 63.2347 158.99 63.0785 161.318 62.6416C163.647 62.2408 165.908 61.518 168.038 60.4938C170.164 59.4681 172.1 58.086 173.76 56.4073C175.419 54.7402 176.646 52.6934 177.334 50.4447C177.989 48.1895 177.96 45.7907 177.251 43.552C176.525 41.3173 175.271 39.2913 173.593 37.6469C171.918 35.993 169.974 34.6359 167.844 33.6336C167.322 33.4036 166.799 33.111 166.22 32.9281L164.552 32.3324L162.843 31.8672C162.274 31.7157 161.689 31.6321 161.109 31.5119C158.776 31.1115 156.405 30.9817 154.043 31.1252C151.681 31.2841 149.347 31.7298 147.093 32.4525C144.833 33.161 142.697 34.219 140.765 35.5879C138.823 36.9487 137.18 38.6914 135.936 40.7092C134.701 42.7479 134.066 45.0933 134.102 47.4765C134.168 49.8668 134.897 52.1917 136.208 54.1916Z" fill="#263238"/>
<path d="M144.709 49.7601V50.9725H139.781V43.8707H144.621V45.083H141.161V46.7919H144.15V47.9102H141.161V49.7601H144.709Z" fill="#263238"/>
<path d="M145.791 50.9726V43.8708H148.927C149.24 43.8681 149.549 43.9378 149.831 44.0746C150.1 44.2025 150.343 44.3797 150.547 44.5972C150.747 44.8204 150.906 45.0768 151.017 45.3549C151.149 45.6938 151.201 46.0584 151.17 46.4207C151.14 46.7829 151.026 47.1334 150.839 47.4452C150.623 47.8106 150.295 48.0965 149.904 48.2604L151.524 50.9308H149.956L148.503 48.5479H147.145V50.9308L145.791 50.9726ZM147.171 47.3825H148.9C149.025 47.3822 149.147 47.3517 149.256 47.2937C149.366 47.2311 149.464 47.1477 149.543 47.0481C149.625 46.9371 149.689 46.8136 149.731 46.6823C149.778 46.5371 149.801 46.3853 149.799 46.2328C149.801 46.0761 149.775 45.9203 149.721 45.773C149.672 45.6394 149.599 45.5155 149.507 45.4072C149.421 45.3069 149.317 45.2251 149.198 45.1668C149.088 45.1121 148.966 45.0834 148.843 45.0832H147.171V47.3825Z" fill="#263238"/>
<path d="M152.439 50.9726V43.8708H155.575C155.89 43.8676 156.201 43.9374 156.484 44.0746C156.751 44.204 156.992 44.3811 157.195 44.5972C157.398 44.8177 157.558 45.0749 157.665 45.3549C157.777 45.6266 157.836 45.9178 157.838 46.2119C157.842 46.6541 157.723 47.0887 157.493 47.4661C157.276 47.8306 156.948 48.1162 156.557 48.2813L158.177 50.9517H156.61L155.162 48.5687H153.803V50.9517L152.439 50.9726ZM153.825 47.3825H155.554C155.677 47.3822 155.8 47.3517 155.91 47.2937C156.019 47.2324 156.115 47.1487 156.192 47.048C156.275 46.9384 156.339 46.8145 156.38 46.6823C156.428 46.5374 156.453 46.3856 156.453 46.2328C156.455 46.0761 156.428 45.9203 156.374 45.7729C156.323 45.6391 156.249 45.5153 156.155 45.4072C156.07 45.3069 155.964 45.2251 155.847 45.1668C155.736 45.1115 155.614 45.0829 155.491 45.0831H153.825V47.3825Z" fill="#263238"/>
<path d="M162.123 51.0196C161.634 51.0277 161.15 50.924 160.707 50.7165C160.295 50.5217 159.925 50.2463 159.62 49.9065C159.313 49.5699 159.075 49.178 158.915 48.7517C158.749 48.3269 158.664 47.875 158.664 47.4191C158.663 46.9531 158.754 46.4915 158.93 46.0604C159.099 45.6357 159.346 45.2459 159.657 44.9107C159.971 44.5763 160.347 44.3065 160.765 44.1164C161.2 43.9171 161.676 43.8172 162.155 43.8238C162.641 43.8178 163.123 43.9251 163.561 44.1373C163.972 44.3383 164.34 44.6189 164.642 44.963C164.944 45.3038 165.181 45.697 165.342 46.1231C165.684 46.9823 165.684 47.9395 165.342 48.7987C165.18 49.2176 164.943 49.6035 164.642 49.9378C164.33 50.27 163.955 50.5381 163.539 50.7269C163.095 50.9296 162.611 51.0296 162.123 51.0196ZM160.064 47.4295C160.064 47.7325 160.111 48.0338 160.2 48.3231C160.288 48.5986 160.427 48.8555 160.608 49.0808C160.786 49.2967 161.007 49.4745 161.256 49.6034C161.529 49.7381 161.83 49.8062 162.133 49.802C162.44 49.8084 162.744 49.7383 163.017 49.5982C163.271 49.4643 163.494 49.2771 163.67 49.0495C163.846 48.8204 163.98 48.5621 164.068 48.2865C164.157 48.0061 164.203 47.7135 164.204 47.4191C164.204 47.1169 164.155 46.8165 164.057 46.5307C163.969 46.2552 163.83 45.9984 163.649 45.773C163.472 45.5536 163.249 45.3754 162.996 45.2504C162.723 45.1196 162.424 45.0517 162.121 45.0517C161.817 45.0517 161.519 45.1196 161.245 45.2504C160.992 45.3752 160.77 45.5536 160.592 45.773C160.417 45.9998 160.284 46.2565 160.2 46.5307C160.105 46.8205 160.058 47.1244 160.064 47.4295Z" fill="#263238"/>
<path d="M166.654 50.9726V43.8708H169.789C170.102 43.8681 170.411 43.9378 170.693 44.0746C170.963 44.2025 171.205 44.3797 171.409 44.5972C171.609 44.8204 171.768 45.0768 171.879 45.3549C172.011 45.6938 172.064 46.0584 172.033 46.4207C172.002 46.7829 171.889 47.1334 171.702 47.4452C171.486 47.8106 171.158 48.0965 170.766 48.2604L172.386 50.9308H170.819L169.366 48.5479H168.007V50.9308L166.654 50.9726ZM168.034 47.3825H169.763C169.887 47.3822 170.009 47.3517 170.119 47.2937C170.229 47.2311 170.327 47.1477 170.406 47.0481C170.489 46.9371 170.552 46.8136 170.594 46.6823C170.641 46.5371 170.664 46.3853 170.662 46.2328C170.664 46.0761 170.637 45.9203 170.584 45.773C170.534 45.6394 170.462 45.5155 170.369 45.4072C170.284 45.3069 170.179 45.2251 170.061 45.1668C169.95 45.1121 169.829 45.0834 169.706 45.0832H168.034V47.3825Z" fill="#263238"/>
</svg>
