<svg width="24" height="22" viewBox="0 0 24 22" fill="none" xmlns="http://www.w3.org/2000/svg">
<path d="M21.4042 0H2.0625C0.925238 0 0 0.925238 0 2.0625V15.8125C0 16.9498 0.925238 17.875 2.0625 17.875H4.17083V21.3125C4.17083 21.5906 4.33836 21.8413 4.59525 21.9477C4.85219 22.054 5.14786 21.9952 5.34449 21.7986L9.2681 17.875H21.4042C22.5414 17.875 23.4667 16.9498 23.4667 15.8125V2.0625C23.4667 0.925238 22.5414 0 21.4042 0ZM22.0917 15.8125C22.0917 16.1916 21.7833 16.5 21.4042 16.5H8.98334C8.80101 16.5 8.62616 16.5725 8.49723 16.7014L5.54584 19.6527V17.1875C5.54584 16.8078 5.23802 16.5 4.85834 16.5H2.0625C1.68341 16.5 1.375 16.1916 1.375 15.8125V2.0625C1.375 1.68341 1.68341 1.375 2.0625 1.375H21.4042C21.7833 1.375 22.0917 1.68341 22.0917 2.0625V15.8125Z" fill="#2E3591"/>
<path d="M11.7334 2.75C8.32161 2.75 5.5459 5.52571 5.5459 8.9375C5.5459 12.3493 8.32161 15.125 11.7334 15.125C15.1452 15.125 17.9209 12.3493 17.9209 8.9375C17.9209 5.52571 15.1452 2.75 11.7334 2.75ZM11.7334 13.75C9.07979 13.75 6.9209 11.5911 6.9209 8.9375C6.9209 6.28389 9.07979 4.125 11.7334 4.125C14.387 4.125 16.5459 6.28389 16.5459 8.9375C16.5459 11.5911 14.387 13.75 11.7334 13.75Z" fill="#2E3591"/>
<path d="M14.1642 10.5128C13.5157 9.86426 12.6525 9.50708 11.7336 9.50708C10.8147 9.50708 9.95144 9.86426 9.3029 10.5128C9.03445 10.7813 9.03445 11.2166 9.3029 11.4851C9.57134 11.7535 10.0067 11.7536 10.2752 11.4851C10.664 11.0963 11.1819 10.8821 11.7335 10.8821C12.2851 10.8821 12.8031 11.0962 13.1919 11.4851C13.4605 11.7536 13.8957 11.7535 14.1642 11.4851C14.4327 11.2166 14.4327 10.7813 14.1642 10.5128Z" fill="#2E3591"/>
<path d="M9.6709 8.25C10.0506 8.25 10.3584 7.9422 10.3584 7.5625C10.3584 7.1828 10.0506 6.875 9.6709 6.875C9.2912 6.875 8.9834 7.1828 8.9834 7.5625C8.9834 7.9422 9.2912 8.25 9.6709 8.25Z" fill="#2E3591"/>
<path d="M13.7959 8.25C14.1756 8.25 14.4834 7.9422 14.4834 7.5625C14.4834 7.1828 14.1756 6.875 13.7959 6.875C13.4162 6.875 13.1084 7.1828 13.1084 7.5625C13.1084 7.9422 13.4162 8.25 13.7959 8.25Z" fill="#2E3591"/>
</svg>
