<svg width="21" height="22" viewBox="0 0 21 22" fill="none" xmlns="http://www.w3.org/2000/svg">
<path d="M17.7511 1.46667H16.8667V0.733333C16.8667 0.538841 16.7894 0.352315 16.6519 0.214788C16.5144 0.0772617 16.3278 0 16.1333 0C15.9388 0 15.7523 0.0772617 15.6148 0.214788C15.4773 0.352315 15.4 0.538841 15.4 0.733333V1.46667H11V0.733333C11 0.538841 10.9227 0.352315 10.7852 0.214788C10.6477 0.0772617 10.4612 0 10.2667 0C10.0722 0 9.88565 0.0772617 9.74812 0.214788C9.61059 0.352315 9.53333 0.538841 9.53333 0.733333V1.46667H5.13333V0.733333C5.13333 0.538841 5.05607 0.352315 4.91854 0.214788C4.78102 0.0772617 4.59449 0 4.4 0C4.20551 0 4.01898 0.0772617 3.88145 0.214788C3.74393 0.352315 3.66667 0.538841 3.66667 0.733333V1.46667H2.78227C2.04472 1.46783 1.33772 1.76133 0.816192 2.28286C0.294668 2.80438 0.00116363 3.51139 0 4.24893V19.2177C0.00116363 19.9553 0.294668 20.6623 0.816192 21.1838C1.33772 21.7053 2.04472 21.9988 2.78227 22H17.7511C18.4886 21.9988 19.1956 21.7053 19.7171 21.1838C20.2387 20.6623 20.5322 19.9553 20.5333 19.2177V4.24893C20.5322 3.51139 20.2387 2.80438 19.7171 2.28286C19.1956 1.76133 18.4886 1.46783 17.7511 1.46667ZM19.0667 19.2177C19.0655 19.5663 18.9265 19.9003 18.6801 20.1467C18.4336 20.3932 18.0996 20.5322 17.7511 20.5333H2.78227C2.4337 20.5322 2.09975 20.3932 1.85328 20.1467C1.60681 19.9003 1.46783 19.5663 1.46667 19.2177V4.24893C1.46783 3.90037 1.60681 3.56642 1.85328 3.31995C2.09975 3.07347 2.4337 2.93449 2.78227 2.93333H3.66667V3.66667C3.66667 3.86116 3.74393 4.04769 3.88145 4.18521C4.01898 4.32274 4.20551 4.4 4.4 4.4C4.59449 4.4 4.78102 4.32274 4.91854 4.18521C5.05607 4.04769 5.13333 3.86116 5.13333 3.66667V2.93333H9.53333V3.66667C9.53333 3.86116 9.61059 4.04769 9.74812 4.18521C9.88565 4.32274 10.0722 4.4 10.2667 4.4C10.4612 4.4 10.6477 4.32274 10.7852 4.18521C10.9227 4.04769 11 3.86116 11 3.66667V2.93333H15.4V3.66667C15.4 3.86116 15.4773 4.04769 15.6148 4.18521C15.7523 4.32274 15.9388 4.4 16.1333 4.4C16.3278 4.4 16.5144 4.32274 16.6519 4.18521C16.7894 4.04769 16.8667 3.86116 16.8667 3.66667V2.93333H17.7511C18.0996 2.93449 18.4336 3.07347 18.6801 3.31995C18.9265 3.56642 19.0655 3.90037 19.0667 4.24893V19.2177Z" fill="white"/>
<path d="M7.54826 7.54829L5.86673 9.22983L4.91853 8.28163C4.85088 8.21159 4.76996 8.15572 4.68049 8.11728C4.59102 8.07885 4.49479 8.05862 4.39742 8.05778C4.30005 8.05693 4.20348 8.07548 4.11336 8.11236C4.02324 8.14923 3.94136 8.20368 3.8725 8.27254C3.80365 8.34139 3.7492 8.42327 3.71232 8.51339C3.67545 8.60352 3.6569 8.70008 3.65774 8.79745C3.65859 8.89482 3.67882 8.99105 3.71725 9.08052C3.75569 9.16999 3.81155 9.25091 3.88159 9.31856L5.34826 10.7852C5.48578 10.9227 5.67227 10.9999 5.86673 10.9999C6.06118 10.9999 6.24767 10.9227 6.38519 10.7852L8.58519 8.58523C8.71877 8.44692 8.79269 8.26168 8.79102 8.0694C8.78935 7.87712 8.71223 7.69319 8.57626 7.55723C8.44029 7.42126 8.25636 7.34414 8.06409 7.34247C7.87181 7.34079 7.68657 7.41471 7.54826 7.54829Z" fill="white"/>
<path d="M16.1333 8.79999H10.9999C10.8054 8.79999 10.6189 8.87725 10.4814 9.01478C10.3439 9.1523 10.2666 9.33883 10.2666 9.53332C10.2666 9.72781 10.3439 9.91434 10.4814 10.0519C10.6189 10.1894 10.8054 10.2667 10.9999 10.2667H16.1333C16.3278 10.2667 16.5143 10.1894 16.6518 10.0519C16.7893 9.91434 16.8666 9.72781 16.8666 9.53332C16.8666 9.33883 16.7893 9.1523 16.6518 9.01478C16.5143 8.87725 16.3278 8.79999 16.1333 8.79999Z" fill="white"/>
<path d="M7.54826 14.1483L5.86673 15.8298L4.91853 14.8816C4.85088 14.8116 4.76996 14.7557 4.68049 14.7173C4.59102 14.6789 4.49479 14.6586 4.39742 14.6578C4.30005 14.6569 4.20348 14.6755 4.11336 14.7124C4.02324 14.7492 3.94136 14.8037 3.8725 14.8725C3.80365 14.9414 3.7492 15.0233 3.71232 15.1134C3.67545 15.2035 3.6569 15.3001 3.65774 15.3975C3.65859 15.4948 3.67882 15.5911 3.71725 15.6805C3.75569 15.77 3.81155 15.8509 3.88159 15.9186L5.34826 17.3852C5.48578 17.5227 5.67227 17.5999 5.86673 17.5999C6.06118 17.5999 6.24767 17.5227 6.38519 17.3852L8.58519 15.1852C8.71877 15.0469 8.79269 14.8617 8.79102 14.6694C8.78935 14.4771 8.71223 14.2932 8.57626 14.1572C8.44029 14.0213 8.25636 13.9441 8.06409 13.9425C7.87181 13.9408 7.68657 14.0147 7.54826 14.1483Z" fill="white"/>
<path d="M16.1333 15.4H10.9999C10.8054 15.4 10.6189 15.4773 10.4814 15.6148C10.3439 15.7523 10.2666 15.9388 10.2666 16.1333C10.2666 16.3278 10.3439 16.5143 10.4814 16.6519C10.6189 16.7894 10.8054 16.8667 10.9999 16.8667H16.1333C16.3278 16.8667 16.5143 16.7894 16.6518 16.6519C16.7893 16.5143 16.8666 16.3278 16.8666 16.1333C16.8666 15.9388 16.7893 15.7523 16.6518 15.6148C16.5143 15.4773 16.3278 15.4 16.1333 15.4Z" fill="white"/>
</svg>
