<svg width="18" height="22" viewBox="0 0 18 22" fill="none" xmlns="http://www.w3.org/2000/svg">
<path d="M8.9319 14.0424L8.93823 13.9558L8.9246 13.87C8.92253 13.857 8.92139 13.8432 8.92139 13.8286V9.55436C8.92139 9.41313 9.03587 9.29865 9.1771 9.29865H16.4685C16.6098 9.29865 16.7242 9.41313 16.7242 9.55436V13.8286C16.7242 13.8432 16.7231 13.857 16.721 13.87L16.7074 13.9558L16.7137 14.0424C16.7207 14.1377 16.7242 14.2341 16.7242 14.3315C16.7242 16.4862 14.9775 18.2329 12.8228 18.2329C10.6681 18.2329 8.92139 16.4862 8.92139 14.3315C8.92139 14.2341 8.92494 14.1377 8.9319 14.0424Z" fill="white" stroke="#2E3591" stroke-width="1.5"/>
<path d="M15.5925 4.52576C15.5925 5.50015 14.8026 6.29005 13.8283 6.29005C12.8539 6.29005 12.064 5.50015 12.064 4.52576C12.064 3.55137 12.8539 2.76147 13.8283 2.76147C14.8026 2.76147 15.5925 3.55137 15.5925 4.52576Z" fill="white" stroke="#2E3591" stroke-width="1.5"/>
<path d="M0.752277 15.8089L0.753373 15.7713L0.750683 15.7336C0.750236 15.7274 0.75 15.721 0.75 15.7144V9.55436C0.75 9.41313 0.864487 9.29865 1.00571 9.29865H11.0629C11.2041 9.29865 11.3186 9.41313 11.3186 9.55436V15.7144C11.3186 15.721 11.3183 15.7274 11.3179 15.7336L11.3152 15.7713L11.3163 15.8089C11.3178 15.861 11.3186 15.9133 11.3186 15.9658C11.3186 18.8842 8.95272 21.2501 6.03429 21.2501C3.11586 21.2501 0.75 18.8842 0.75 15.9658C0.75 15.9133 0.750763 15.861 0.752277 15.8089Z" fill="white" stroke="#2E3591" stroke-width="1.5"/>
<g filter="url(#filter0_i_1531_691)">
<path d="M6.03416 7.04C7.9782 7.04 9.55416 5.46404 9.55416 3.52C9.55416 1.57596 7.9782 0 6.03416 0C4.09012 0 2.51416 1.57596 2.51416 3.52C2.51416 5.46404 4.09012 7.04 6.03416 7.04Z" fill="white"/>
</g>
<path d="M8.80416 3.52C8.80416 5.04983 7.56399 6.29 6.03416 6.29C4.50433 6.29 3.26416 5.04983 3.26416 3.52C3.26416 1.99017 4.50433 0.75 6.03416 0.75C7.56399 0.75 8.80416 1.99017 8.80416 3.52Z" stroke="#2E3591" stroke-width="1.5"/>
<defs>
<filter id="filter0_i_1531_691" x="1.51416" y="-1" width="8.04004" height="8.03998" filterUnits="userSpaceOnUse" color-interpolation-filters="sRGB">
<feFlood flood-opacity="0" result="BackgroundImageFix"/>
<feBlend mode="normal" in="SourceGraphic" in2="BackgroundImageFix" result="shape"/>
<feColorMatrix in="SourceAlpha" type="matrix" values="0 0 0 0 0 0 0 0 0 0 0 0 0 0 0 0 0 0 127 0" result="hardAlpha"/>
<feOffset dx="-1" dy="-1"/>
<feGaussianBlur stdDeviation="0.5"/>
<feComposite in2="hardAlpha" operator="arithmetic" k2="-1" k3="1"/>
<feColorMatrix type="matrix" values="0 0 0 0 1 0 0 0 0 1 0 0 0 0 1 0 0 0 0.27 0"/>
<feBlend mode="normal" in2="shape" result="effect1_innerShadow_1531_691"/>
</filter>
</defs>
</svg>
