<?xml version="1.0" encoding="utf-8"?>
<!-- Generator: Adobe Illustrator 25.2.0, SVG Export Plug-In . SVG Version: 6.00 Build 0)  -->
<svg version="1.1" id="Layer_1" xmlns="http://www.w3.org/2000/svg" xmlns:xlink="http://www.w3.org/1999/xlink" x="0px" y="0px"
	 viewBox="0 0 18 22" style="enable-background:new 0 0 18 22;" xml:space="preserve">
<style type="text/css">
	.st0{fill:#2E3591;}
</style>
<g>
	<path class="st0" d="M13.8,2c-1.4,0-2.5,1.1-2.5,2.5c0,1.4,1.1,2.5,2.5,2.5c1.4,0,2.5-1.1,2.5-2.5C16.3,3.1,15.2,2,13.8,2z
		 M13.8,5.5c-0.6,0-1-0.5-1-1c0-0.6,0.5-1,1-1s1,0.5,1,1C14.8,5.1,14.4,5.5,13.8,5.5z"/>
</g>
<g>
	<path class="st0" d="M17.5,9.5c0-0.5-0.4-1-1-1H1c-0.6,0-1,0.5-1,1V16c0,3.3,2.7,6,6,6c2.3,0,4.3-1.3,5.3-3.2
		c0.5,0.2,0.9,0.2,1.4,0.2c2.6,0,4.6-2.1,4.6-4.6c0-0.1,0-0.2,0-0.4L17.5,9.5z M10.6,16c0,0.2,0,0.4,0,0.5c0,0.3-0.1,0.6-0.2,0.8
		c-0.1,0.2-0.2,0.5-0.3,0.7c-0.8,1.5-2.3,2.4-4,2.4c-2.5,0-4.5-2-4.5-4.5V10h9.1V16z M16,13.8l0,0.2l0,0.1v0.2
		c0,1.7-1.4,3.1-3.1,3.1c-0.3,0-0.6,0-0.9-0.1c0.1-0.4,0.2-0.9,0.2-1.4V10H16V13.8z"/>
</g>
<g>
	<g>
		<path class="st0" d="M6,0C4.1,0,2.5,1.6,2.5,3.5S4.1,7,6,7C8,7,9.5,5.5,9.5,3.5S8,0,6,0z M6,5.5c-1.1,0-2-0.9-2-2c0-1.1,0.9-2,2-2
			c1.1,0,2,0.9,2,2C8,4.6,7.2,5.5,6,5.5z"/>
	</g>
</g>
<g>
	<path class="st0" d="M6,0C4.1,0,2.5,1.6,2.5,3.5S4.1,7,6,7C8,7,9.5,5.5,9.5,3.5S8,0,6,0z M6,5.5c-1.1,0-2-0.9-2-2c0-1.1,0.9-2,2-2
		c1.1,0,2,0.9,2,2C8,4.6,7.2,5.5,6,5.5z"/>
</g>
</svg>
