<svg width="7" height="9" viewBox="0 0 7 9" fill="none" xmlns="http://www.w3.org/2000/svg">
<path d="M3.44745 4.2262C3.95072 4.2262 4.38652 4.0457 4.74259 3.68956C5.09867 3.33349 5.27917 2.89781 5.27917 2.39448C5.27917 1.89132 5.09867 1.45558 4.74254 1.09939C4.3864 0.74337 3.95066 0.562866 3.44745 0.562866C2.94412 0.562866 2.50843 0.74337 2.15236 1.09945C1.79628 1.45552 1.61572 1.89126 1.61572 2.39448C1.61572 2.89781 1.79628 3.33355 2.15242 3.68962C2.50855 4.04564 2.94429 4.2262 3.44745 4.2262Z" fill="#2E3591"/>
<path d="M6.65292 6.41066C6.64265 6.26247 6.62188 6.10083 6.5913 5.93013C6.56044 5.75816 6.52069 5.59558 6.47312 5.44699C6.42397 5.29341 6.35713 5.14174 6.27451 4.9964C6.18876 4.84555 6.08803 4.71419 5.97501 4.60609C5.85682 4.49301 5.71211 4.40209 5.54478 4.33578C5.37803 4.26981 5.19323 4.23639 4.99556 4.23639C4.91793 4.23639 4.84285 4.26824 4.69785 4.36264C4.60862 4.42083 4.50424 4.48814 4.38773 4.56258C4.28811 4.62605 4.15315 4.68553 3.98646 4.73937C3.82383 4.79199 3.6587 4.81868 3.49572 4.81868C3.33274 4.81868 3.16767 4.79199 3.00486 4.73937C2.83834 4.68558 2.70339 4.62611 2.60388 4.56264C2.48848 4.48889 2.38404 4.42159 2.29347 4.36258C2.14865 4.26818 2.07351 4.23633 1.99588 4.23633C1.79814 4.23633 1.61341 4.26981 1.44671 4.33583C1.2795 4.40204 1.13473 4.49295 1.01643 4.60615C0.903463 4.7143 0.802681 4.84561 0.717042 4.9964C0.634478 5.14174 0.567638 5.29335 0.518436 5.44705C0.470917 5.59564 0.431173 5.75816 0.400306 5.93013C0.369729 6.1006 0.348957 6.2623 0.338688 6.41083C0.328592 6.55635 0.323486 6.70738 0.323486 6.85991C0.323486 7.25689 0.449682 7.57827 0.698533 7.81529C0.944309 8.04917 1.26952 8.16782 1.66499 8.16782H5.3268C5.72227 8.16782 6.04736 8.04923 6.29319 7.81529C6.5421 7.57844 6.6683 7.25701 6.6683 6.85986C6.66824 6.70662 6.66308 6.55548 6.65292 6.41066Z" fill="#2E3591"/>
</svg>
